<svg id="Layer_1" xmlns="http://www.w3.org/2000/svg" viewBox="-36 211.5 718 190.5"><style>.st0,.st1,.st2{fill:none;stroke:#000;stroke-width:.36;stroke-linejoin:bevel;stroke-miterlimit:10}.st1,.st2{opacity:8e-2}.st2{stroke-width:.72}</style><path class="st0" d="M-491.9 562.8h3.5"/><path class="st1" d="M67.6 295.1l.3-.4.5-.4h.5l.5.4.3.4v.9l-.3.4-.5.5-.5.4-.5.9-.3 1.3h2.1M72.6 299.5l-.5-.4-.3-.4-.3-.4v-.4l.3-.4.3-.4.5-.4h.5l.5.4c.8 1.4.8.8 0 2.2l-.5.4h-.5M72.6 296.4l-.5-.4-.3-.4v-.5l.3-.4.5-.4h.5l.5.4.3.4v.5l-.3.4-.5.4M76.2 294.7l.6-.4h.5l.5.4.3.4v.5l-.3.4-.5.4.5.5.3.4.2.4v.5l-.2.4-.3.5-.5.4h-.5l-.6-.4-.2-.5M76.8 296.4h.5M72.8 203.8l1.1 6.2h-2.1l1-6.2M72.8 390l-1-6.3h2.1l-1.1 6.3M343.9 296.7l.5-.5h.5l.6.5.2.4v.4l-.2.5-.6.4.6.4.2.5.3.4v.5l-.3.4-.2.4-.6.5h-.5l-.5-.5-.3-.4M344.4 298.4h.5M348.9 301.5l-.5-.4c-.8-1-.8-3.3 0-4.4l.5-.4.5.4c.8 1 .8 3.3 0 4.4l-.5.4M344 362.9l.2-.4.6-.5h.5l.5.5.3.4v.9l-.3.4-.5.5-.5.4-.6.9-.2 1.3h2.1M348.9 199.5l1 6.3h-2.1l1.1-6.3M348.9 398.2l-1.1-6.3h2.1l-1 6.3M187.7 418.6l.2-.5.6-.4h.5l.5.4.3.5v.8l-.3.5-.5.4-.5.4-.6.9-.2 1.3h2.1M192.9 422.9l.3-2.2.2-1.3.3-.8.3-.9h-2.1M196 421.2l.3-.9.8-.4.8.4.3.9-.3.9-.3.4-.5.4-.5-.4c-.8-1-.8-3.3 0-4.4l.5-.4.5.4.3.4M201.3 422.9h-.3v-.4l.3.4M205.2 422.9l-.5-.4-.3-.4-.3-.4v-.4l.3-.4.3-.4.5-.4h.5l.5.4c.8 1.3.8.9 0 2.2l-.5.4h-.5M205.2 419.9l-.5-.5-.3-.4v-.4l.3-.5.5-.4h.5l.5.4.3.5v.4l-.3.4-.5.5M106 420.3l6.3-1.1v2.1l-6.3-1M288.1 420.3l-6.2 1v-2.1l6.2 1.1M365 332.1l.3-.9.8-.4.8.4.3.9-.3.9-.3.4-.5.4-.5-.4c-.8-1-.8-3.3 0-4.4l.5-.4.5.4.3.4M366.1 315.5l1 6.2H365l1.1-6.2M366.1 346.9l-1.1-6.3h2.1l-1 6.3M496.7 394.4v-5.3l2.1 5.3v-5.3M502.9 393.5l-.2.4-.6.5h-.5l-.5-.5-.3-.4-.2-.5-.3-1.3.3-1.3.2-.4.3-.4.5-.5h.5l.6.5.5.8.3 1.3-.3 1.3-.3.5M504.8 394.4v-5.3l1.3 4.4 1.3-4.4v5.3M510.2 389.1v5.3M513.4 394.4v-5.3l2.1 5.3v-5.3M517.3 394.4l1.3-5.3 1.3 5.3M517.8 392.6h1.6M521.7 389.1v5.3h2.1M484.1 399.6h2.1M485.2 397.8v3.5M488.6 397.4l.5-.4h.5l.5.4.3.4v.5l-.3.4-.5.4.5.5.3.4.3.4v.5l-.3.4-.3.4-.5.5h-.5l-.5-.5-.3-.4M489.1 399.1h.5M492.5 397h1c1.7 1.2 1.7 4 0 5.2h-1V397M498.8 402.2h-2.1V397h2.1M496.7 399.6h1.3M501.9 399.6h1v1.7l-.2.4-.6.5h-.5l-.5-.5-.3-.4-.2-.4-.3-1.3.3-1.3.2-.5.3-.4.5-.4h.5l.6.4.2.4M509.2 397h1c1.7 1.2 1.7 4 0 5.2h-1V397M513.4 402.2V397h1.3c1.2.7 1.2 1.9 0 2.6h-1.3M514.7 399.6l.8 2.6M517.3 402.2l1.3-5.2 1.3 5.2M517.8 400.4h1.6M521.7 402.2V397h2.1M521.7 399.6h1.3M525.6 397h2.7M527 397v5.2M531.1 402.2l-.2-.5h.2v.5l-.5.9M538.4 402.2V397h1.3c1.1.7 1.1 1.9 0 2.6h-1.3M544.7 402.2h-2.1V397h2.1M542.6 399.6h1.3M546.8 402.2V397h1.3c1.2.7 1.2 1.9 0 2.6h-1.3M548.1 399.6l.8 2.6M557.2 397.8l-.2-.4-.5-.4h-.6l-.5.4-.3.4v.5l.3.4.5.4.6.5.5.4.2.4v.9l-.2.4-.5.5h-.6l-.5-.5-.3-.4-.2-.4M560.4 397v5.2M563.5 397h1c1.7 1.2 1.7 4 0 5.2h-1V397M569.8 402.2h-2.1V397h2.1M567.7 399.6h1.3M481 389.1v5.2M485.2 394.3h-.3v-.4l.3.4M490.4 389.1h-1.6l-.2 2.2.5-.4h.5l.5.4.3.4.3.9-.3.9-.3.4-.5.4h-.5l-.5-.4-.3-.4M451.1 391.7l-6.2 1.1v-2.1l6.2 1M459 391.7l6.3-1v2.1l-6.3-1.1"/><path class="st0" d="M397.5 133.1h2.5"/><path class="st1" d="M512.6 434.5l.5.8.3 1.3v.9l-.3 1.3-.5.9M509.7 435.3l-.2-.4-.6-.4h-.5l-.5.4-.3.4v.5l.3.4.5.4.5.5.6.4.2.4v.9l-.2.5-.6.4h-.5l-.5-.4-.3-.5-.2-.4M503.5 439.7v-5.2l2 5.2v-5.2M501.4 438.8l-.3.5-.5.4h-.5l-.6-.4-.2-.5-.3-.4-.2-1.3.2-1.3.3-.5.2-.4.6-.4h.5l.5.4.3.4.2.5.3 1.3-.3 1.3-.2.4M496.1 434.5v5.2M493 435.3l-.2-.4-.6-.4h-.5l-.5.4-.3.4v.5l.3.4.5.4.5.5.6.4.2.4v.9l-.2.5-.6.4h-.5l-.5-.4-.3-.5-.2-.4M486.7 439.7v-5.2l2.1 5.2v-5.2M482.6 437.1h1.3M484.7 439.7h-2.1v-5.2h2.1M479.4 438.8l1.3-4.3v5.2"/><path class="st1" d="M478.1 439.7v-5.2l1.3 4.3M475.3 434.5v5.2M470 434.5h1c1.7 1.2 1.7 4 0 5.2h-1v-5.2M461.4 436.6h1.8M461.4 434.5v5.2h1.8l.3-.4.3-.5v-1.3l-.3-.4-.3-.5.3-.4v-1.3l-.3-.4h-1.8M458.5 434.5v5.2M454.6 437.1l.8 2.6M453.3 439.7v-5.2h1.3c1.2.7 1.2 1.9 0 2.6h-1.3M445 434.5v5.2h2.1M441.1 437.9h1.5M440.5 439.7l1.3-5.2 1.3 5.2M438.7 438.8l-.3.5-.5.4h-.5l-.5-.4-.3-.5-.3-.4-.2-1.3.2-1.3.3-.5.3-.4.5-.4h.5l.5.4.3.4M433.5 434.5v5.2M428.3 439.7v-5.2h1.3c1.1.7 1.1 1.9 0 2.6h-1.3M425.1 437.1l1.1-2.6M424.1 434.5l1 2.6v2.6M420.9 434.5v5.2M419.6 434.5h2.7M417 434.5l-.5.8-.3 1.3v.9l.3 1.3.5.9M482.3 428.3l-.5-.4c-.8-1-.8-3.3 0-4.4l.5-.4.5.4c.8 1 .8 3.3 0 4.4l-.5.4M478.2 428.3l-.5-.4c-.8-1-.8-3.3 0-4.4l.5-.4.5.4c.8 1 .8 3.3 0 4.4l-.5.4M474 428.3l-.5-.4c-.8-1-.8-3.4 0-4.4l.5-.4.5.4c.8 1 .8 3.3 0 4.4l-.5.4M469.8 428.3h-.3v-.5l.3.5M466.4 428.3V423l-1.8 3.9h2.3M452 425.6h1.3M454.1 428.3H452V423h2.1M447.9 423v5.3h2.1M443.9 426.5h1.6M443.4 428.3l1.3-5.3 1.3 5.3M441.6 427.4l-.3.4-.5.5h-.5l-.5-.5-.3-.4-.2-.5-.3-1.3.3-1.3.2-.4.3-.4.5-.5h.5l.5.5.3.4M437.4 423.9l-.2-.4-.6-.5h-.5l-.5.5-.3.4v.4l.3.5.5.4.5.4.6.5.2.4v.9l-.2.4-.6.5h-.5l-.5-.5-.3-.4-.2-.5M475.3 418.7h1.5M474.8 420.4l1.3-5.2 1.3 5.2M462.5 415.2v5.2h2.1M459.4 415.2v5.2M454.4 418.7h1.6M453.9 420.4l1.3-5.2 1.3 5.2M451 415.2v5.2M449.7 415.2h2.6M445.8 417.8h1.3M447.9 420.4h-2.1v-5.2h2.1M441.6 415.2h1c1.7 1.2 1.7 4 0 5.2h-1v-5.2M255.1 439.5h2.7M220.9 442.1h8.4M72.8 203.8v87.9M72.8 390v-87.9M288.1 420.3h-78M106 420.3h78M191 464h154M106 284.4v140.1M228.6 390H68.7M288.1 284.4v140.1M262.3 203.8h-12.6M246 203.8h-3.6M238.7 203.8h-12.6M222.5 203.8h-3.7M215.2 203.8h-12.7M198.9 203.8h-3.6M191.6 203.8H179M175.4 203.8h-3.7M168.1 203.8h-12.7M151.8 203.8h-3.6M144.5 203.8h-12.6M129.8 203.8H68.7M248.5 199.5H353M348.9 199.5v94.1M348.9 398.2v-94.1M366.1 315.5V326M366.1 346.9v-10.5M451.1 391.7h-16.7M459 391.7h17.3M448.2 346.9h-86.3M451.1 349v46.9M392.3 315.5h-30.4M459 348.7v47.2"/><path class="st2" d="M192.5 232.3c-.2 0-.4-.1-.7-.1M201.6 232.3l-.9.1c-2.4.3-4.9.3-7.3 0l-.9-.1M202.3 232.2c-.2 0-.3.1-.4.1M202.3 231c-3.2.6-7.3.6-10.5 0M170.5 219.8l.4.7c.7 1.2 1.5 2.3 2.4 3.4l.5.6M169.5 217.5v.1l.3.8.4.8.3.6M173.8 224.5l.5.5c4.3 3.6 9.9 6.1 15.5 7.2l2 .3M202.6 232.6l1.7-.3c5.6-1.1 11.2-3.6 15.6-7.3l.5-.5M220.3 224.5l.5-.6c1.4-1.7 2.6-3.6 3.6-5.7l.3-.8M197.1 216.1h-2c-5.2 0-10.4.2-15.6.7l-1.9.2M216.6 216.9l-1.9-.2c-5.2-.4-10.4-.6-15.6-.7h-2M139.7 361.3l1 .6c16.1 9.4 33.7 15 52.4 15.7l4 .1M168.6 360.5c0 .4.1.6.1.9v.1M168.6 360.5l-.4-.1c-2.9-.5-5.8-1.2-8.8-1.7l-1-.1M158.5 358.7l-1.4.1c-4.2.4-13.2-.3-16.7 1.9l-.6.6M225.5 361.5c0-.3 0-.6.1-.9v-.1M197.1 377.6l4-.1c17-.6 33.1-5.3 48.1-13.3l5.3-3"/><path class="st2" d="M254.5 361.3l-.6-.6c-3.6-2.2-12-1.6-16.2-1.9l-1.9-.1M235.7 358.7h-.5c-2.9.4-5.8 1.1-8.6 1.6l-1 .2M232.2 325.9h-3.3M201.1 309.1h2.2c9.3 0 18.6-.1 27.8-.2l3.3-.1M256.3 362.5c-.2.2-.4.3-.5.4h-.1M228.9 327.2h3.2M197.1 233.3l2-.1c7.8-.4 15.9-3.3 21.9-8.4l.7-.6M197.1 233.3v75.8M259.6 326.2l-2.4-.1c-3.5-.1-7-.1-10.6-.1h-13M233.5 327.2h.1c7.7-.1 15.4-.1 23.1-.2l2.6-.1M236.2 358.4l-1.1.1c-2.8.5-5.7 1.1-8.5 1.6l-1.1.2M225.8 266.7v-1.1c0-11.8-.1-23.6-.2-35.4l-.1-4.1M268.3 270.1l-2.4-.1c-11-.2-22-.2-33.1-.3h-3.9M229 271.1c11.9 0 23.7-.1 35.5-.3l3.9-.1M224.8 225.9l-.1 1.7c-.2 11.6-.2 23.2-.3 34.9v4.1M224.7 360.7h-.2M224.7 360.3v.3M235.4 217.1c-1.3-.1-2.9-.5-4.1-.9"/><path class="st2" d="M255 360.9l3.4-3.7 3.3-4c19.6-25.3 30.2-65.6 20.2-96.6l-.1-.2-1.5-4c-12.3-30.5-41.5-37.7-71.4-39.3l-7.6-.3h-4.2"/><path class="st2" d="M216.7 215.3l-1.3-.1c-5.4-.5-10.9-.7-16.4-.7h-2M226.2 217c-2.4-.9-6-1.2-8.5-1.6l-1-.1M221.6 224.2l.5-.6c1.5-1.8 2.8-3.8 3.8-5.9l.4-.8M260.6 246l2 3.2c18.6 31.9 3.9 83.4-23.1 106.5l-3.3 2.7M221.6 224.2l1.1.2c14.1 2.5 26.4 7.1 35.6 18.6l2.2 3"/><path class="st2" d="M255 360.9l-.6-.6c-3.6-2.3-12-1.5-16.2-1.9l-1.9-.1M134.9 326.9l2.5.1c6.9.1 13.8.2 20.7.2h2.6M160.6 325.9h-.2c-7.7.1-15.5.1-23.2.2l-2.6.1M172.6 224.2l.7.6c5.8 4.9 13.6 7.8 21.2 8.4l2.7.1M168.6 360.3l-.4-.1c-3.1-.5-6.1-1.3-9.2-1.8l-1.1-.1M165.3 269.8c-11.9 0-23.7.1-35.5.3l-3.9.1M168.7 226.1l-.1 1.8c-.2 11.6-.2 23.2-.3 34.8v4.1M169.7 266.6v-1.2c0-11.8-.1-23.6-.2-35.4l-.1-4.1M125.7 270.8l2.4.1c11 .2 22.1.2 33.1.3h3.9M169.7 360.7h-.2M169.5 360.7v-.3M163 216.2c-1.2.4-2.9.8-4.1.9"/><path class="st2" d="M172.6 224.2l-1.1.2-5 1c-24.6 5.1-38.5 21.3-42.4 45.7l-.5 4.6-.3 4.8c-.8 25.3 9.9 54.5 28.1 72.4l3.3 3 3.3 2.7"/><path class="st2" d="M167.9 217l.1.1c1 2.3 2.4 4.5 4 6.5l.6.7M177.4 215.3h-.5c-2.7.3-6.4.7-9 1.6v.1M181.4 215l-2 .1-2 .2M197.1 214.5h-.6c-4.4 0-8.8.1-13.2.4l-2 .1"/><path class="st2" d="M197.1 212.8h-4.2l-7.6.3c-29.9 1.7-59.2 8.8-71.4 39.3l-1.5 4-.1.2c-10 31 .6 71.3 20.2 96.6l3.3 4 3.4 3.7"/><path class="st2" d="M157.9 358.4l-1.9.1c-4.1.3-12.8-.4-16.3 1.9l-.6.6M233.6 325.9l.1-.8c.4-4.9.6-9.8.8-14.6v-1.7M234.4 308.8l-.1.9c-.4 4.9-1.1 9.7-1.8 14.5l-.3 1.7M224.6 350.4l-.1.2c-.6.9-1.4 1.8-2.2 2.6l-.3.3M224.6 350.4v.5c0 2.6 0 5.3.1 7.9v.9M225.6 358.8l1.4-2.6c3.7-7.8 5.2-17.2 6.1-25.7l.3-3.3M232 327.2l-.1.7c-1.1 6.2-2.5 13-5.2 18.8l-1 2M225.6 358.8v-.4c0-2.9 0-5.8.1-8.7v-1M197.1 360.4h.2c7.3-.1 16.8-1.3 22.9-5.6l1.8-1.4M197.1 367.1c8.7 0 16.9-1.8 24.8-5.2l2.6-1.2M224.7 359.8v.6"/><path class="st2" d="M224.7 359.8l-.3-.6-2.1-5.1-.3-.6M169.5 360.3v-.6M169.7 360.7l2.6 1.1c7.1 3 14.3 4.8 22 5.2l2.8.1M172.1 353.4l1.8 1.4c5.6 3.9 13.8 5.2 20.5 5.5l2.6.1M159.9 310.5l-.2-1.7M161.9 325.9l-.3-1.6c-.6-4-1.2-8.1-1.6-12.1l-.2-1.7M159.7 308.8v.9c.1 4.8.4 9.7.7 14.5l.1 1.7M172.1 353.4l-.3.6-2.1 5.1-.3.6M172.1 353.4l-.1-.1c-.8-.8-1.6-1.7-2.2-2.6l-.2-.3"/><path class="st2" d="M169.5 359.8v-.4c0-2.7 0-5.4.1-8.1v-.9M168.5 348.7l-.7-1.3c-2.7-5.4-4.1-12-5.2-18l-.4-2.2M160.7 327.2l.3 2.8c.9 8.7 2.4 18.2 6.2 26.2l1.4 2.6M168.5 348.7v10.1M197.1 309.1V315.1M159.7 308.8h1.2c10.8.2 21.6.3 32.4.3h3.7M165.2 325.9H162M197.1 358.4v1.9M255.7 363l-2.6 1.5c-15.6 8.8-32.6 14.2-50.6 15.1l-5.5.1M162.2 327.2h3.2"/><path class="st2" d="M197.1 379.7l-5.5-.1c-17.9-.9-35-6.2-50.6-15.1l-2.6-1.5M224.7 217.5c-2-.6-5.2-.6-7.3-.6h-.8M177.6 216.9h-.4c-2.3 0-5.5-.1-7.7.6v.1M221.6 224.2h-.1c-.4 0-.7.1-1 .3l-.1.1M172.6 224.2h.1c.4 0 .7.1 1 .3l.1.1M197.1 233.3v-.3M185.2 211.8l7.7-.3h4.2"/><path class="st2" d="M138.4 362l-3.4-3.8-3.3-4c-19.2-24.7-29.6-63-21.8-93.6l1.3-4.3.1-.3c9.6-28.6 32.6-39.5 60.9-43l6.6-.7 6.6-.4M197.1 211.5h4.2l7.7.3c30.5 1.7 60.1 9.1 72.6 40.1l1.5 4.1.1.3c10.1 31.4-.6 72.3-20.6 97.9l-3.3 4-3.4 3.8M255.3 362.4l-1.2.7c-16.3 9.4-34 15.1-52.9 15.8l-4.2.1M197.1 378.9l-4.2-.1c-18.9-.7-36.6-6.4-52.9-15.8l-1.2-.7"/><path class="st2" d="M138.3 362.1l-3.4-3.8-3.3-4.1c-19.3-24.9-29.8-63.5-21.7-94.3l1.3-4.3 1.5-4.1c12.3-30.1 40.8-37.8 70.7-39.7l7.5-.3 6.2-.1M138.4 362c-.1 0-.1 0 0 0M197.1 211.4l6.2.1 7.5.3c29.9 1.9 58.5 9.7 70.8 39.9l1.5 4.1 1.3 4.3c8.1 30.8-2.4 69.4-21.7 94.3l-3.3 4.1-3.4 3.8M255.9 362c-.1 0 0 0 0 0M255.9 362.1v-.1M255.4 362.4l-1.2.7c-16.3 9.4-34 15.1-52.9 15.8l-4.2.1M197.1 379v-.1M255.4 362.4c-.1 0 0 0 0 0M197.1 379l-4.2-.1c-18.9-.7-36.6-6.4-52.9-15.8l-1.2-.7M225.6 360.3v.2M168.6 360.5v-.2M155.6 270.9H149M149.1 270.1H155.7M168.6 257.1v-.4-6.2M169.4 250.5V257.1M224.7 257.1v-.4-6.2M225.5 250.5V257.1M238.5 270H245.1M245.1 270.8H238.5M238.5 326.2H245.1M245.1 327H238.5M225.6 340V346.6M224.8 346.5v-.7-5.9M169.4 343.8V346.5M169.5 340v3.8M168.6 346.5v-.7-5.9M155.6 327H149M149.1 326.2H155.7M138.4 363c-.2-.2-.4-.3-.6-.4l-.1-.1"/><path class="st2" d="M137.8 362.5l-3.4-3.7-3.3-4c-18.9-24.3-29.2-60.9-22.9-91.2l1.1-4.5.8-2.7c11.2-34.8 41.8-43.7 75.2-45.5l7.6-.2h4.1M197.1 210.7h4.1l7.6.2c31.3 1.7 61.3 9.5 73.7 41.3l1.5 4.3.8 2.7c8.5 31.3-2.1 70.5-21.8 95.7l-3.3 4-3.4 3.7M191.8 232.1c3.7.4 6.8.4 10.5 0M191.8 231c3.7.4 6.8.4 10.5 0M197.1 315l2.3.1c24 3.8 24 39.3 0 43.1l-2.3.1"/><path class="st2" d="M231.3 216.2h.2c1.2.2 2.7.5 3.8.9M231.2 216.2h.1M158.8 217.1c1.2-.4 2.9-.8 4.1-.9M197.1 358.4l-2.3-.1c-24-3.8-24-39.3 0-43.1l2.3-.1M246.5 201.3c0-.5 0-1.3-.2-1.8M246.5 206v-.2-4.5M246.4 207.3c0-.4 0-.8.1-1.2v-.1M220.1 201.3c0-.6 0-1.2.2-1.8M220 206v-.2-4.5M220.1 207.3c0-.4 0-.8-.1-1.2v-.1M147.7 201.3c0-.6 0-1.2.2-1.8M147.7 206v-.2-4.5M147.7 207.3c0-.4 0-.8-.1-1.2v-.1M174.1 201.3c0-.6 0-1.2-.2-1.8M174.1 206v-.2-4.5M174.1 207.3c0-.4 0-.8.1-1.2v-.1M257.6 363.7l3.5-3.8c33.9-38.6 46.2-121.3-12.9-143.3l-1.7-.6M220.1 210.2l-1.6-.2c-6.4-.6-12.8-.9-19.2-1H197"/><path class="st2" d="M197.1 209h-.7c-6.7 0-13.4.3-20.1.9l-2.3.2M147.7 215.9l-1.7.7c-59.1 22-46.8 104.8-12.9 143.3l3.5 3.8M138.3 364.9l-.1-.1M255.9 364.9l-3.1 2.8-3.4 2.7-.5.4c-9 6.6-19.4 11.2-28.8 17.4l-2 1.3-3.3 2c-4.8 2.8-9.9 5.7-15.5 6.5l-2.1.2-2.1-.1-1-.1-2.3-.5c-4.1-1.2-7.9-3.3-11.6-5.4l-3.5-2.1-2.1-1.3c-9.5-6.3-20-11-29.2-17.7l-.7-.5-3.4-2.7-3-2.8M256 364.8l-.1.1M168.6 360.3v-1.5M224.7 360.7l.1 1M224.6 350.4l-.1-20M168.4 330.3l.1 18.4M201.1 309.1h-4M232.2 325.9h1.4M160.6 325.9h1.3M226.2 217h-.3c-.5 0-.9.2-1.3.6M169.5 217.5c-.3-.4-.8-.6-1.3-.6h-.3M225.8 266.7c0 1.7 1.4 3 3 3M165.3 269.8c1.7 0 3-1.4 3-3M168.4 330.3c0-1.7-1.4-3-3-3.1M228.9 327.2c-1.7 0-3 1.4-3.1 3.1M165.3 270c1.8 0 3.3-1.5 3.3-3.3M225.6 266.7c0 1.8 1.5 3.3 3.3 3.3M228.9 327c-1.8 0-3.3 1.5-3.3 3.3M168.6 330.3c0-1.8-1.5-3.3-3.3-3.3M165.2 270.9c2.4 0 4.3-1.9 4.3-4.3M224.7 266.6c0 2.4 1.9 4.3 4.3 4.3M229 326.2c-2.4 0-4.3 1.9-4.3 4.3M169.5 330.4c0-2.4-1.9-4.3-4.3-4.3M229 325.9c-2.5 0-4.5 2-4.5 4.5M169.7 330.4c0-2.5-2-4.5-4.5-4.5M165.2 271.1c2.5 0 4.5-2 4.5-4.5M224.5 266.6c0 2.5 2 4.5 4.5 4.5M201.6 232.3h.3M177.6 216.9c5.4 4.7 12.3 7.3 19.5 7.3s14.1-2.6 19.5-7.3"/><path class="st2" d="M169.5 217.5c6.8 8.2 16.9 13 27.6 13 10.7 0 20.8-4.7 27.6-13M192.3 232.6h-.6M201.8 232.7l.8-.1M192.3 232.6c1.6.2 3.2.3 4.8.3s3.2-.1 4.7-.3M224.5 360.7l.2-.4M169.5 360.3l.2.4M268.3 270.1l.1.7M125.8 270.1l-.1.7M224.8 225.9l.7.2M169.4 225.9l-.7.2M259.2 326.9l.4-.7M134.9 326.9l-.3-.7M169.4 361.7l-.7-.2M224.8 361.7l.7-.2M138.1 364.8l-.5-.3M256 364.8l.6-.3M169.4 361.7l.1-1M235.7 358.7c.2-.1.4-.2.5-.3M157.9 358.4c.2.1.3.2.5.3M138.4 362c.1.1.3.3.5.4M255.3 362.4c.2-.1.3-.2.5-.4M254.5 361.3c.2-.1.3-.2.5-.4M139.2 360.9c.1.2.3.3.5.4M138.3 362.1c.1.1.3.3.5.4M255.4 362.4c.2-.1.3-.2.5-.4M201.3 390c0-2.3-1.9-4.2-4.2-4.2s-4.2 1.9-4.2 4.2 1.9 4.2 4.2 4.2 4.2-1.9 4.2-4.2"/><path class="st2" d="M201.4 390c0-2.4-1.9-4.3-4.3-4.3s-4.3 1.9-4.3 4.3 1.9 4.3 4.3 4.3 4.3-1.9 4.3-4.3M256.6 364.5c.3-.2.7-.5 1-.8M136.6 363.7c.3.3.6.5 1 .8M225.6 358.8v1.5M162.2 327.2h-1.5M232 327.2h1.5M169.7 330.4l-.2 20M225.7 348.7l.1-18.4M489.1 369.9l15.3-14.1M504.4 355.8l9.1-19.5M513.5 336.3l1.9-21.8M515.4 314.5l-5.3-14.8M501.4 342.7l-.1.8c-1.2 4.8-7.1 4.1-8.1-.4l-.1-.8M501.4 342.7l.1-3.5M501.7 331.8l.6-12.6M502.3 319.2V318M501.6 334.2l.1-2.4M502.3 318l.1-1.1M501.5 336.3l.1-2.1M502.4 316.9V315.5M501.4 342.7v-27.2M501.5 339.2V336.3M492.1 315.5v3M493 342.2v-26.7M492.8 334.2l.1 2.1c0 .9.1 1.9 0 2.8v.1M492.7 331.8l.1 2.4M492.1 318.6l.1 1.2M492.6 329.2l.1 2.6M492.2 319.8l.4 9.4M492.9 339.2l.1 3M510.1 299.7H397.6M459.2 342.6l-.1.8c-1.2 4.6-7.1 4.3-8.1-.2l-.1-.8M459.2 342.6l.2-3.4M459.6 331.8l.6-11.3M459.5 334.2l.1-2.4M459.4 336.3l.1-2.1M460.2 320.5l.1-5M459.2 342.6v-27.1M459.4 339.2V336.3M514 310.7H396.5M515.4 315.5H396.2M450.9 342.3v-26.8M460.2 320.5h32M502.2 320.5h12.7M420.5 320.5H450M449.9 315.5l.1 5M450.7 334.2l.1 2.1c0 .9.1 1.9 0 2.8v.1M450.6 331.8l.1 2.4M450 320.5l.6 11.3M450.8 339.2l.1 3.1M514.1 329.2h-12.3M492.6 329.2h-32.9M450.5 329.2h-30.9M419.6 331.3h-22.8M450.8 339.2h-50.9M492.9 339.2h-33.5M512.2 339.2h-10.7M420.9 315.5l-1.3 15.8M397.6 299.7l-.6 1.6M395.5 328l9.2 23.4M404.7 351.4l23.9 18.4M428.6 369.8l31.1 7M397 301.3l-1.5 26.7M459.7 376.8l29.4-6.9M220.2 199.5h26.1M147.9 199.5h26M220.1 207.3h26.3M147.7 207.3h26.4M224.8 248.3h.7M168.7 248.3h.7M224.8 250.4h.7M168.7 250.4h.7M224.8 250.5h.7M168.6 250.5h.8M247.3 326.2v.7M247.3 270.1v.7M246.4 207.3v8.6M245.2 326.2v.7M245.2 270.1v.7M245.1 326.2v.8M245.1 270.1v.7M224.7 257.1h.9M168.6 257.1h.9M238.5 326.2v.8M238.5 270v.9M245.2 270.1h-.1M245.2 270.1h2.1M149 270.8h-2.2M169.5 266.6h.2M224.7 266.6h-.2M168.3 266.7h.3M225.8 266.7h-.2M228.9 270h9.6M155.6 270h9.7M146.8 270.1h-21M268.3 270.1h-21M247.3 270.8h21.1M125.7 270.8h21.1M229 270.9h9.5M165.2 270.9h-9.6M146.8 270.1h2.2M247.3 270.8h-2.1M149 270.1h.1M225.5 346.6v-.1M229 326.2v-.3M229 270.9v.2M228.9 327.2v-.2M228.9 269.8v.2M225.5 250.4v.1M149.1 270.8h-.1M245.1 270.8h.1M224.8 250.5v-.1M225.5 346.6v2.2M224.8 250.4v-2.1M225.6 330.3v9.7M225.6 257.1v9.6M225.5 248.3v-22.2M225.5 361.5v-12.7M224.8 348.8v12.9M224.8 225.9v22.4M224.7 266.6v-9.5M224.7 330.4v9.6M220.1 207.3v2.9M225.5 248.3v2.1M224.8 348.8v-2.2M224.8 346.5v.1M255.7 363l-.3-.6M216.7 215.3l-.1 1.6M137.8 362.5l.5-.4M202.3 232.2v-.1M256.3 362.5l-.4-.4M197.1 210.7v.8M197.1 216.1v-3.3M197.1 377.6v-17.2M197.1 379.7v-.7M177.4 215.3l.2 1.6M245.1 326.2h.1M245.2 326.2h2.1M149 326.9h-2.2M229 326.2h9.5M165.2 326.2h-9.6M146.8 326.2h-12.2M259.6 326.2h-12.3M247.3 326.9h11.9M134.9 326.9h11.9M165.3 327h-9.7M238.5 327h-9.6M146.8 326.2h2.2M247.3 326.9h-2.1M149.1 326.2h-.1M138.4 363l.4-.6M169.4 346.5v.1M174.1 207.3v2.9M169.4 250.5v-.1M149 326.9l.1.1M168.4 330.3h.2M225.8 330.3h-.2M169.5 330.4h.2M224.7 330.4h-.2M245.2 326.9l-.1.1M168.7 250.4l-.1.1M169.4 346.6v2.2M168.7 250.4v-2.1M169.5 266.6v-9.5M169.5 330.4v9.6M169.4 248.3v-22.4M169.4 361.7v-12.9M168.7 348.8v12.7M168.7 226.1v22.2M168.6 266.7v-9.6M168.6 340v-9.7M165.3 327.2v-.2M165.3 269.8v.2M165.2 326.2v-.3M165.2 270.9v.2M169.4 248.3v2.1M168.7 348.8v-2.2M168.7 346.6l-.1-.1M169.5 340h-.9M225.6 340h-.9M155.6 270.9v-.9M155.6 327v-.8M169.4 346.5h-.8M225.5 346.5h-.7M169.4 346.6h-.7M225.5 346.6h-.7M169.4 348.8h-.7M225.5 348.8h-.7M149.1 270.8v-.7M149.1 327v-.8M149 270.8v-.7M149 326.9v-.7M147.7 207.3v8.6M146.8 270.8v-.7M146.8 326.9v-.7"/></svg>