<svg id="Layer_1" xmlns="http://www.w3.org/2000/svg" viewBox="0 0 1049.9 348"><style>.st0,.st1,.st2,.st3{fill:none;stroke:#000;stroke-width:.36;stroke-linejoin:bevel;stroke-miterlimit:10}.st1,.st2,.st3{opacity:.12}.st2,.st3{stroke-width:.447}.st3{stroke-width:.72}</style><path class="st0" d="M1148.2 132.7h3.5"/><path class="st1" d="M753.6 17.2h-.2v-.4l.2.4M126.2 138.4l.4-1.3.9-.9 1.3-.4 1.3.4.9.9.4 1.3-.4 1.3-.9.9-1.3.4-1.3-.4-.9-.9-.4-1.3M126.6 142.3l4.4-7.8M88 148.8v-5.2l1.3 4.4 1.3-4.4v5.2M94.5 148l-.3.4-.5.4h-.5l-.5-.4-.3-.4-.3-.5-.2-1.3.2-1.3.3-.4.3-.4.5-.5h.5l.5.5.3.4.3.4.2 1.3-.2 1.3-.3.5M98.7 143.6v4.4c-.6 1.2-1.5 1.2-2.1 0v-4.4M100.8 148.8v-5.2l2.1 5.2v-5.2M104.7 143.6h2.6M106 143.6v5.2M110.2 143.6v5.2M113.3 148.8v-5.2l2.1 5.2v-5.2M118.5 146.2h1.1v1.8l-.3.4-.5.4h-.5l-.6-.4-.2-.4-.3-.5-.2-1.3.2-1.3.3-.4.2-.4.6-.5h.5l.5.5.3.4M125.8 143.6v5.2M127.9 143.6v5.2M125.8 146.2h2.1M132.1 148l-.3.4-.5.4h-.5l-.5-.4-.3-.4-.2-.5-.3-1.3.3-1.3.2-.4.3-.4.5-.5h.5l.5.5.3.4.3.4.2 1.3-.2 1.3-.3.5M134.2 143.6v5.2h2.1M140.5 148.8h-2.1v-5.2h2.1M138.4 146.2h1.3M56.1 151.5l-.5.8-.3 1.3v.9l.3 1.3.5.9M61.1 152.3l-.3-.4-.5-.4h-.5l-.6.4-.2.4v.5l.2.4 1.6 1.3.3.4v.9l-.3.4-.5.5h-.5l-.6-.5-.2-.4-.3-.4M65.3 156.7h-2.1v-5.2h2.1M63.2 154.1h1.3M69.4 155.8l-.2.4-.6.5h-.5l-.5-.5-.3-.4-.2-.4-.3-1.3.3-1.3.2-.5.3-.4.5-.4h.5l.6.4.2.4M73.6 155.8l-.3.4-.5.5h-.5l-.5-.5-.3-.4-.2-.4-.3-1.3.3-1.3.2-.5.3-.4.5-.4h.5l.5.4.3.4.3.5.2 1.3-.2 1.3-.3.4M75.7 156.7v-5.2l2.1 5.2v-5.2M79.9 151.5h1c1.7 1.2 1.7 4 0 5.2h-1v-5.2M83.8 156.7l1.3-5.2 1.3 5.2M84.3 154.9h1.6M88.2 156.7v-5.2h1.3c1.2.7 1.2 1.9 0 2.6h-1.3M89.5 154.1l.8 2.6M92.4 151.5l1.1 2.6v2.6M93.5 154.1l1-2.6M102.9 155.8l-.3.4-.5.5h-.6l-.5-.5-.2-.4-.3-.4-.3-1.3.3-1.3.3-.5.2-.4.5-.4h.6l.5.4.3.4.2.5.3 1.3-.3 1.3-.2.4M104.9 156.7v-5.2h1.3c1.2.7 1.2 1.9 0 2.6h-1.3M111.2 156.7h-2.1v-5.2h2.1M109.1 154.1h1.3M113.3 156.7v-5.2h1.3c1.2.7 1.2 1.9 0 2.6h-1.3M114.6 154.1l.8 2.6M117.2 156.7l1.3-5.2 1.3 5.2M117.7 154.9h1.6M121.4 151.5h2.6M122.7 151.5v5.2M126.9 151.5v5.2M132.1 155.8l-.3.4-.5.5h-.5l-.5-.5-.3-.4-.3-.4-.2-1.3.2-1.3.3-.5.3-.4.5-.4h.5l.5.4.3.4.3.5.2 1.3-.2 1.3-.3.4M134.2 156.7v-5.2l2.1 5.2v-5.2M139.1 151.5l.6.8.2 1.3v.9l-.2 1.3-.6.9M135.2 135.8v5.2M138.4 139.3l.3-.9.8-.4.8.4.3.9-.3.9-.3.4-.5.4-.5-.4c-.8-1-.8-3.3 0-4.4l.5-.4.5.4.3.4M237.6 162.8l-6.3-.7.5-2 5.8 2.7M86.1 263.6v-5.2l1.3 4.3 1.3-4.3v5.2M92.6 262.7l-.2.5-.5.4h-.6l-.5-.4-.2-.5-.3-.4-.3-1.3.3-1.3.3-.5.2-.4.5-.4h.6l.5.4.2.4.3.5.3 1.3-.3 1.3-.3.4M96.8 258.4v4.4c-.6 1.2-1.5 1.2-2.1 0v-4.4M98.9 263.6v-5.2l2.1 5.2v-5.2M102.8 258.4h2.6M104.1 258.4v5.2M108.3 258.4v5.2M111.4 263.6v-5.2l2.1 5.2v-5.2M116.7 261h1v1.7l-.2.5-.6.4h-.5l-.5-.4-.3-.5-.2-.4-.3-1.3.3-1.3.2-.5.3-.4.5-.4h.5l.6.4.2.4M126.1 259.2l-.3-.4-.5-.4h-.5l-.6.4-.2.4v.5l.2.4 1.6 1.3.3.5v.8l-.3.5-.5.4h-.5l-.6-.4-.2-.5-.3-.4M128.2 258.4v5.2h2M134.4 262.7l-.2.5-.6.4h-.5l-.5-.4-.3-.5-.2-.4-.3-1.3.3-1.3.2-.5.3-.4.5-.4h.5l.6.4.5.9.2 1.3-.2 1.3-.3.4M136.3 258.4h2.6M137.6 258.4v5.2M54.3 266.2l-.6.9-.2 1.3v.9l.2 1.3.6.8M59.2 267.1l-.2-.5-.6-.4h-.5l-.5.4-.3.5v.4l.3.5.5.4.5.4.6.5.2.4v.9l-.2.4-.6.4h-.5l-.5-.4-.3-.4-.2-.5M63.4 271.4h-2.1v-5.2h2.1M61.3 268.8h1.3M67.6 270.6l-.3.4-.5.4h-.5l-.5-.4-.3-.4-.3-.5-.2-1.3.2-1.3.3-.4.3-.5.5-.4h.5l.5.4.3.5M71.8 270.6l-.3.4-.5.4h-.5l-.6-.4-.2-.4-.3-.5-.3-1.3.3-1.3.3-.4.2-.5.6-.4h.5l.5.4.3.5.2.4.3 1.3-.3 1.3-.2.5M73.8 271.4v-5.2l2.1 5.2v-5.2M78 266.2h1c1.7 1.2 1.7 4 0 5.2h-1v-5.2M81.9 271.4l1.3-5.2 1.4 5.2M82.5 269.7H84M86.4 271.4v-5.2h1.3c1.2.7 1.2 1.9 0 2.6h-1.3M87.7 268.8l.8 2.6M90.6 266.2l1 2.6v2.6M91.6 268.8l1-2.6M101 270.6l-.3.4-.5.4h-.5l-.5-.4-.3-.4-.2-.5-.3-1.3.3-1.3.2-.4.3-.5.5-.4h.5l.5.4.3.5.3.4.2 1.3-.2 1.3-.3.5M103.1 271.4v-5.2h1.3c1.2.7 1.2 1.9 0 2.6h-1.3M109.4 271.4h-2.1v-5.2h2.1M107.3 268.8h1.3M111.4 271.4v-5.2h1.3c1.2.7 1.2 1.9 0 2.6h-1.3M112.8 268.8l.7 2.6M115.4 271.4l1.3-5.2 1.3 5.2M115.9 269.7h1.6M119.5 266.2h2.6M120.8 266.2v5.2M125 266.2v5.2M130.2 270.6l-.2.4-.5.4h-.6l-.5-.4-.2-.4-.3-.5-.3-1.3.3-1.3.3-.4.2-.5.5-.4h.6l.5.4.2.5.3.4.3 1.3-.3 1.3-.3.5M132.3 271.4v-5.2l2.1 5.2v-5.2M137.3 266.2l.5.9.3 1.3v.9l-.3 1.3-.5.8M132.3 251.4l.3-.4.5-.5h.5l.6.5.2.4v.9l-.2.4-.6.5-.5.4-.5.9-.3 1.3h2.1M136.5 251.4l.3-.4.5-.5h.5l.5.5.3.4v.9l-.3.4-.5.5-.5.4-.5.9-.3 1.3h2.1M147.7 222.8l-1-6.3h2.1l-1.1 6.3M147.7 237.2l1.1 6.3h-2.1l1-6.3M209.3 304v5.2M212.4 307.4l.3-.9.8-.4.8.4.3.9-.3.9-.3.4-.5.4-.5-.4c-.8-1-.8-3.3 0-4.4l.5-.4.5.4.3.4M237.4 306.6l-6.3 1v-2.1l6.3 1.1M247.9 306.6l6.3-1.1v2.1l-6.3-1M622.6 167.5l.5-.5h.6l.5.5.2.4v.4l-.2.5-.5.4.5.4.2.5.3.4v.4l-.3.5-.2.4-.5.4h-.6l-.5-.4-.3-.4M623.1 169.2h.6M626.5 167.9l.3-.4.5-.5h.5l.6.5.2.4v.9l-.2.4-1.1.9-.5.8-.3 1.3h2.1M631.5 172.2l-.5-.4-.3-.4-.3-.4v-.4l.3-.4.3-.4.5-.4h.5l.5.4c.8 1.4.8.8 0 2.2l-.5.4h-.5M631.5 169.2l-.5-.4-.3-.5v-.4l.3-.4.5-.5h.5l.5.5.3.4v.4l-.3.5-.5.4M635.9 172.2h-.2v-.4l.2.4M640.9 172.2V167l-1.8 3.9h2.3M631.7 74.9l1.1 6.3h-2.1l1-6.3M631.7 291l-1-6.3h2.1l-1.1 6.3M601.9 58l.3-.9.8-.4.8.4.2.9-.3.9-.3.4-.5.4-.5-.4c-.8-1-.8-3.3 0-4.4l.5-.4.5.4.3.4M592.5 76.9l-1.1-6.3h2.1l-1 6.3M592.5 80.8l1 6.3h-2.1l1.1-6.3M871.9 227.3h.5m-1-1.8l.5-.4h.5l.5.4.3.4v.4l-.3.4-.5.4.5.4.3.4.3.4v.4l-.3.4-.3.4-.5.4h-.5l-.5-.4-.3-.4m-117.4-49.9l6.1 1.8-.9 1.9-5.2-3.7m119.7 1.5h.5m-1.1-1.7l.5-.4h.5l.5.4.3.4v.4l-.3.4-.5.4.5.4.3.4.3.4v.4l-.3.4-.3.4-.5.4h-.5l-.5-.4-.3-.4m-53.6-19.3l6.1 1.9-.9 1.9-5.2-3.8m14.2-126h1.6m-2.1 1.7l1.3-5.2 1.3 5.2m-14.9-5.2V39h2.1m-5.2-5.2V39m-5-1.7h1.6m-2.1 1.7l1.3-5.2 1.3 5.2m-5.5-5.2V39m-1.3-5.2h2.6m-6.5 2.6h1.3m.8 2.6h-2.1v-5.2h2.1m-6.3 0h1c1.7 1.2 1.7 4 0 5.2h-1v-5.2m-8.3 2.6h1.3m.8 2.6h-2.1v-5.2h2.1m-6.3 2.6h1.3m.8 2.6h-2.1v-5.2h2.1m-4.2.9l-.3-.4-.5-.4h-.5l-.5.4-.3.4v.4l.3.4.5.4.5.4.5.4.3.4v.9l-.3.4-.5.6h-.5l-.5-.4-.3-.4-.3-.4m-20.6 30.9l1.1-6.3 2 .7-3.1 5.6m247.4 171.9l1-2.6m-2 0l1 2.6v2.6m-3.9-2.6l.8 2.6m-2.1 0V238h1.3c1.2.7 1.2 1.9 0 2.6h-1.3m-3.9.9h1.6m-2.1 1.7l1.3-5.2 1.3 5.2m-6.5-5.2h1c1.7 1.2 1.7 4 0 5.2h-1V238m-4.2 5.2V238l2.1 5.2V238m-4.2 0v4.4c-.6 1.2-1.5 1.2-2.1 0V238m-2.1 4.4l-.3.4-.5.4h-.5l-.5-.4-.3-.4-.3-.4-.3-1.3.3-1.3.3-.4.3-.4.5-.4h.5l.5.4.3.4.3.4.3 1.3-.3 1.3-.3.4m-6.5-2.2h1.8m-1.8-2.2v5.2h1.8l.3-.4.3-.4v-1.3l-.3-.4-.3-.4.3-.4v-1.3l-.3-.4h-1.8m-8.1 2.4h1.3m-1.3 2.6V238h2.1m0 5.2h-2.1m-4.4-5.2l1.3 5.2 1.3-5.2m-5.3 2.6l.8 2.6m-2.1 0V238h1.3c1.2.7 1.2 1.9 0 2.6h-1.3m-2-2.6v4.4c-.6 1.2-1.5 1.2-2.1 0V238m-2.1 4.4l-.3.4-.5.4h-.5l-.5-.4-.3-.4-.3-.4-.3-1.3.3-1.3.3-.4.3-.4.5-.4h.5l.5.4.3.4m-10.5 4.2V238l2.1 5.2V238m-5.2 0v5.2m-5.2-2.6h2.1m0-2.6v5.2m-2.1-5.2v5.2M934 238v5.2m-1.3-5.2h2.6m-5.4 0v5.2m-5.8-5.2l.8 5.2.8-5.2.8 5.2.8-5.2m-10 5.2l-.5-.4c-.8-1-.8-3.4 0-4.4l.5-.4.5.4c.8 1 .8 3.3 0 4.4l-.5.4m-5.2-4.3l.3-.4.5-.4h.5l.5.4.3.4v.9l-.3.4-.5.4-.5.4-.5.9-.3 1.3h2.1m-5.2 0l-.5-.4c-.8-1-.8-3.3 0-4.4l.5-.4.5.4c.8 1.1.8 3.3 0 4.4l-.5.4m-4.2-5.2v5.2m-4.2-5.2v5.2m-4.2-5.2v5.2m-1.3-5.2h2.6m-6.7 5.2V238l1.3 4.4 1.3-4.4v5.2m-9.7-3.4v.4l-.3-.4h.3m0 3.4h-.3v-.4l.3.4m-5.2 0V238l2.1 5.2V238m-4.2 4.4l-.3.4-.5.4h-.5l-.5-.4-.3-.4-.3-.4-.3-1.3.3-1.3.3-.4.3-.4.5-.4h.5l.5.4.3.4.3.4.3 1.3-.3 1.3-.3.4m-4.2 0l-.3.4-.5.4h-.5l-.5-.4-.3-.4-.3-.4-.3-1.3.3-1.3.3-.4.3-.4.5-.4h.5l.5.4.3.4m-5.2-1v5.2M995 194l.3-.4.5-.4h.5l.5.4.3.4v.9l-.3.4-.5.4-.5.4-.5.9-.3 1.3h2.1m-6.1-2.6h1.6m-5.7.9h1.6m-2.1 1.7l1.3-5.2 1.3 5.2m-10.7-2.6h1.3m.7 2.6h-2.1v-5.2h2.1m-6.2 5.2v-5.2h1.3c1.2.7 1.2 1.9 0 2.6h-1.3M972 194l-.3-.4-.5-.4h-.5l-.5.4-.3.4v.4l.3.4.5.4.5.4.5.4.3.4v.9l-.3.4-.5.4h-.5l-.5-.4-.5-.9m-3.7 1.5l1.6-5.2m-5 0v5.2m-5.2 0v-5.2h1.3c1.2.7 1.2 1.9 0 2.6h-1.3m-4-2.2l-.3.4v.4l.3.4.5.4.5.4.5.4.3.4v.9l-.3.4-.5.4h-.4l-.5-.4-.3-.4-.3-.4m2.4-2.8l-.3-.4-.5-.4h-.5l-.5.4m-7.6 1.2v.4l-.3-.4h.3m0 3.5h-.3v-.4l.3.4m-3.2-4.3l-.3-.4-.5-.4h-.5l-.5.4-.3.4v.4l.3.4.5.4.5.4.5.4.3.4v.9l-.3.4-.5.4h-.5l-.5-.4-.5-.9m-3.9-1.1h1.3m.8 2.6h-2.1v-5.2h2.1m-4.2 4.3l-.3.4-.5.4h-.5l-.5-.4-.3-.4-.3-.4-.3-1.3.3-1.3.3-.4.3-.4.5-.4h.5l.5.4.3.4m-6 2.6h1.6m-2.1 1.7l1.3-5.2 1.3 5.2m-6.6-2.6h1.3m-1.3 2.6v-5.2h2.1m-4.9 2.6l.8 2.6m-2.1 0v-5.2h1.3c1.2.7 1.2 1.9 0 2.6h-1.3m-2.1-2.6v4.4c-.6 1.2-1.5 1.2-2.1 0v-4.4m-2.1.9l-.3-.4-.5-.4h-.5l-.5.4-.3.4v.4l.3.4.5.4.5.4.5.4.3.4v.9l-.3.4-.5.4h-.5l-.5-.4-.5-.9m-7.1-1.1l1-2.6m-2 0l1 2.6v2.6m-5.2-5.2h1c1.7 1.2 1.7 4 0 5.2h-1v-5.2m-2.1 4.3l-.3.4-.5.4h-.5l-.5-.4-.3-.4-.3-.4-.3-1.3.3-1.3.3-.4.3-.4.5-.4h.5l.5.4.3.4.3.4.3 1.3-.4 1.3-.2.4m-6.5-2.1h1.8m-1.8-2.2v5.2h1.8l.3-.4.3-.4v-1.3l-.3-.4-.3-.4.3-.4v-1.3l-.3-.4h-1.8m-8.1 5v-5.2l2.1 5.2v-5.2m-5.3 0v5.2m-4.9-1.7h1.6m-2.2 1.7l1.3-5.2 1.3 5.2m-6.7 0v-5.2l1.3 4.4 1.3-4.4v5.2M631.8 74.9v89.5M631.8 291V174.9M747.4 291H627.6M761.8 68.7l11.5-32.3M656.4 74.9h-28.8M773.3 36.4h8.4M560 80.8h36.7M579.6 76.9h17.1M592.5 80.8v16.7"/><path class="st1" d="M592.5 76.9V57.2h5.7"/><path class="st2" d="M864.7 232H878"/><path class="st1" d="M853.1 227.6h8.4"/><path class="st2" d="M864.7 223.7H878M866.1 185.4h13.4"/><path class="st1" d="M854.6 181h8.4"/><path class="st2" d="M866.1 177.2h13.4"/><path class="st1" d="M753.7 179.2l99.4 48.4M818.9 163.3l35.7 17.7"/><path class="st2" d="M878 223.7l4.6 4.1M879.5 177.2l4.6 4.1M864.7 223.7v8.3M866.1 177.2v8.2M879.5 185.4l4.6-4.1M878 232l4.6-4.2"/><path class="st1" d="M237.4 306.6h-19.2M247.9 306.6h16.7M147.7 237.2v16M147.7 222.8v-16.7M147.7 253.2h-5.4M240.6 237.2h-97M240.6 222.8h-97M237.4 234.1v76.6M247.9 234.1v76.6M237.6 162.8l-87.7-24.4h-5.8M767.3 76.4c0-4.5-3.7-8.2-8.2-8.2-4.5 0-8.2 3.7-8.2 8.2 0 4.5 3.7 8.2 8.2 8.2 4.5 0 8.2-3.7 8.2-8.2"/><path class="st3" d="M238.5 290.8h-.4c-2.3-.2-4.5-.5-6.7-1l-.8-.2m35.3-211H242.7m0 180.7l-2.5-.1c-13.8-1.7-21.4-13.9-22.3-26.9l-.1-.8m24.9.7h-.5c-1.3 0-2.7.3-4 .6l-.5.1m9.9.1l-.5-.1c-1.3-.4-2.6-.6-4-.6h-.5m.1 4.9v-.5-4.6m-24.9-.8l-.7-11.5c-1.7-30.8-2.8-61.7-3.7-92.6l-.3-11.6m.1 0l.1-1.3c.8-3.9 4.4-6 8.2-6.4l1.4-.1m31.9 181.9l-.7.1c-3.4.7-6.8 1.1-10.2 1.2h-1.2m-19.9-183.1H242.7m0-.1H262.6m-.1.1h.7c4 .1 8 2.2 8.8 6.4l.1 1.3m.1 0c-.8 34.7-2 69.5-4 104.1l-.7 11.6m.1 0h51.2m-76.1 25.6l-2.3-.1c-11.4-1.5-17.8-11.8-19.3-22.5l-.3-3.2m43.7 0l-.3 3.2c-1.5 10.7-7.9 21-19.3 22.5l-2.3.1m92.2-178.3H291.8m-23.3 36.9l-.1 5.8c-.7 32.8-1.7 65.5-3.3 98.3l-.6 11.6m-16.8 27.5l-2.5.4-2.5.1m24.9-27.9l-.1.9c-.9 11.9-7.3 23.4-19.5 26.4l-.3.1m-26.9-27.6l-.3-5.8c-1.7-32.7-2.7-65.5-3.5-98.3l-.2-11.6m50.8 115.9h-.2c-.8 0-1.7-.1-2.5-.2h-.3m7.6-115.5h-.3c-1 0-2-.1-3-.1h-.4m-6-6.1c0 .7-.1 1.4-.2 2.1l-.1.1m.3-3.7V109.5m-39.7-.1c0 .7.1 1.4.2 2.1l.1.1m-.3-3.7V109.5m-9.6 6.1h.3c1 0 2-.1 3-.1h.4m.9 115.8h.2c.8 0 1.7-.1 2.5-.2h.3m41.4-119.5h.4c2.2 0 5.2.7 5.9 3l.1.8m-51.8.1v-.2c.2-2.7 3.3-3.6 5.5-3.6h.8m19.6-33.1H219.5m-26 0H150.5m407.1 42.5l-.1.9c-.2 2.5-.3 5.1-.5 7.6l-.1.9M558 114v.4c-.1 1.2-.1 2.4-.2 3.5v.4m-1.2-3.6v.1c.4 1 .6 2.1.8 3.2v.4m-.7-5c-.2.3-.2.8-.1 1.1v.1m1.4-1.2H556.7m-5.6 92.5v.4m6.3-85.2l-.3 4.3c-1.4 24-3.2 48-5.2 72l-.7 8.5m6.2-87.5v2.7m-6.3 84.9v-.1m4.5-56.6l.4-5.6.4-5.6.4-5.7.3-5.7v-.1m-5.8 77.7l.4-4.3c1.3-14.9 2.5-29.8 3.5-44.7l.4-6m-4.4 55.3v-.1m-.1 1.4v-.1c0-.3.1-.7.1-1v-.1m6.2-84c0-.1 0-.1 0 0v-.1m-.8-5.9c-.1-.3 0-1 .1-1.3m-61.1 176.9l2.6-1.3c9.5-5 19.8-11.5 27.2-19.2l2.5-2.8m-32.7 23.5c.1-.1.2-.1.3-.2m-1 .5l.6-.3h.1M558 80.8c-.1-.2-.1-.3-.1-.5M556.8 79.9v.4m2.6.5v-.2M545 76.3l.1.2c.6.4 2 .4 2.8.4h.3m7.1 3v.4m-7.6-2.8h9.1m-11.9-1.2v.1l.1.3.2.2.3.2.3.1.3.1.2.1.3.1H547.5m-2.6-2.1v1m0-1.5v.4m-.5 3.3v-.4c0-1 .1-2 .1-3v-.4m12.3 3.8H544.5m12.3-.5v.5m0-1.1v.5m.7-1.1c-.3 0-.6.2-.7.5v.1m-9.1 0c0-.3.2-.6.5-.6h.1m-3.4-.6c.1 0 .1 0 0 0h.1m11.8 4.6c-.1-.2-.1-.3-.1-.5v-.1m-164.4 27.5h.9m1 2.7c.3 1.4.5 2.7.6 4.1v.5m-1.7-7.2l.2.1c.4.5.7 1.6.8 2.3l.1.3m161.2-29.7l-.1-.1v-.6M410.9 258c.2.4.5.8.6 1.1l.1.1m-9.5-27.4l.2 2.2c.9 7.4 3.5 14.6 7 21.2l1.3 2.4m-8.5-26.3s-.1 0 0 0m-9-123.4v.2c.1.6.3 1.3.7 1.8l.1.2M545 75.4v.9m0-1.4v.4m-2.2 175.5v-.1c-1.3-5.7-2.2-11.5-2.4-17.4v-2m3.2-152.7v-.4c0-1 .1-2 .1-3v-.4m-147.5 3.8v-.4c0-1-.1-2-.1-3v-.4m147.5 3.8H396.2m162.6 2.1v-.1m0 .2v-.1m-18.5 150.6c.2-.1.4-.1.6-.2h.1m2.4-151.7c.1-.2.2-.5.2-.7v-.1m-.9 1.3c.3 0 .5-.2.6-.4v-.1m-145.8.5c-.6 0-1.2-.4-1.3-1v-.2m147.1 1.2h.1c.5-.1.9-.5 1-1.1v-.2M402.1 231.3h138.4m16.3-152.7v.1c0 .3-.2.6-.4.8l-.1.1m0 0c-.3.2-.6.2-.8.3h-.1m2.8-1.1v.2c-.2.5-.6.8-1.1.9h-.2m-16.6 151.4v-14.7c0-40.6.1-81 1.6-121.6l.6-15.1m-53.3 199.8V291.2m51.8-60.1l.1-14.7c.1-40.5.2-80.9 1.7-121.4l.6-15.1m-2.1 157.8v-.3c-.2-1.9-.3-3.8-.3-5.7v-.7m2.1 17.7v-.2c-.7-3.2-1.3-6.4-1.7-9.6l-.1-1.1m1.5 13l.1-.1c.2-.3.3-.7.4-1v-.1m7.8-43.7v.4m.3-4v.4c-.1.9-.2 1.9-.3 2.8v.4m.6-5.9v.2c-.1.6-.1 1.3-.2 1.9v.2m4.4-55.5l-.1.7c-.1 1.9-.3 3.8-.4 5.8v.7m2.2-32.9l-.1.9c-.2 2.5-.3 5.1-.5 7.6l-.1.9m.8-12.1v.3c0 .7-.1 1.4-.1 2.2v.3m.4-7.2v.4c-.1 1.2-.1 2.4-.2 3.5v.4m.2-4.9v.6m1.9-33.3v.1M411.6 259.3l1.3 1.6c17.1 20.8 44 28.4 69.9 29.9l6.4.2m-96.9-183.1l-.1-1.7c-.3-4.6-.5-9.2-.8-13.9l-.1-1.7m152.1 158.6l.2-.8c1.7-7.5 3.4-15.1 5.3-22.6l.6-2.4m-60.3 56.3h.6c20.5-1.7 38.8-8.5 51-25.9l1.8-2.6M489.2 291h.3c1.5 0 3 0 4.6-.2h.5m261.3-169.7v-.2c.1-1.2.6-1.7 1.5-2.4l.3-.2m-7.6 87.6l1-3.4.8-3.9c1.4-7.9 1.7-16.3 2-24.3l.1-2.1.2-8.5c.2-10.7.6-21.3 1.2-31.9l.1-2.1.5-8.5m-6.5 85.1c.3 0 .5-.2.6-.4v-.1m16.3-92.4h-17m17.2 1.3c.6-.3.5-1.1 0-1.2h-.2m-8.6 4.9c2.6-1.3 5.3-2.3 7.9-3.3l.9-.3m-34.3-.1l.9.3c2.4.9 4.8 1.8 7.1 2.9l.9.4m-9.3-4.1l.1.2.1.1.1.1.2.1m.1-1.3c-.4 0-.7.3-.7.6v.2m17.7-.8h-17m16.3 92.5c.1.3.3.4.5.4h.1m-6.4-85.2l.1 2.1.5 8.5c.6 10.6 1 21.3 1.2 31.9v2.1l.2 8.5c.3 8.8.6 17.8 2.4 26.5l.3 1.4 1 3.8m-7.6-87.5l.1.1c.9.6 1.5 1.2 1.7 2.3v.3m4.6 79.6l-.1-.7-.8-4.5c-.8-5.7-1.1-11.6-1.4-17.4l-.2-8.2-.2-7.8c-.2-9.9-.6-19.9-1.1-29.8l-.3-5.7-.1-1.7m5.5 81l-.2-.5c-.4-1.4-.8-2.7-1.1-4.1l-.1-.5m-5.8-82.1c-.2-.1-.3-.2-.4-.3m.7.4c-.1-.1-.2-.1-.2-.2m.6.6l-.2-.2m.5.7c-.1-.2-.2-.2-.2-.3m.5 1.2c0-.1-.1-.3-.1-.4m.2.9v-.4m13 0v.4m.1-1c-.1.1-.1.3-.1.4m.6-1.2c-.1.1-.2.2-.2.3m.5-.6l-.2.2m.6-.5c-.1.1-.2.1-.3.2m.8-.5c-.2.1-.3.2-.4.2m2.4-1.2l-.2.1c-.5.2-1.1.5-1.6.8l-.2.1m-17.4-.4l-.4-.2-.2-.1-.2-.1-.4-.2m1.9 1l-.2-.1-.2-.1-.2-.1-.2-.1m11.2 82.5l-.1.6c-.3 1.4-.7 2.8-1.1 4.2l-.2.5m5.6-80.5l-.1 1.5-.3 5.8c-.6 9.8-1 19.7-1.1 29.5l-.1 7.1-.2 7.8c-.2 6.1-.6 12.3-1.4 18.4l-.8 4.6-.1.6m37.3 30.5l-.1.6c-1.5 6.4-6.1 12.2-11 16.3l-1.8 1.4m32-169.5l-.5 11.4c-2.1 42.3-7.3 84.3-15.6 125.8l-2.9 14M759.7 80.3c-.1.6-.8.7-1 .1v-.2m21-.3v.2m-39.4.2c-.1.6-.8.7-1 .2v-.2m30.9 0c-.1.7-.9.6-1 .1v-.2m-39.4 0c-.1.7-.8.8-1 .3v-.2m21.2 163l1.3.3 1.3.5c6.6 3.3 14.3 19.3 16.8 26l.4 1.2.6 2.4c2.2 10.8-6.2 15.5-15.6 16.8l-3.3.3h-2m9.1-210.9v.4m16.9 0v.1c-.1.6-.9.5-1-.1v-.2m-50 .2v.1c-.2.5-.8.6-1 .1v-.2m66.5 151l-.1.6c-1.6 6.7-6.2 12.9-11.4 17.3l-1.9 1.5m-67.7-19.4l-2.9-14.2c-8-40.3-13.2-81-15.3-122l-.7-15.2m89.7-.1V79m6.4 200.7l-.1-.3c-3.2-8.1-6.8-16.2-11.1-23.8l-1.5-2.5m8 10.1l.9 2.9.9 2.9.9 2.9.6 2 .8 2.9.7 2.9m-9.4-28.6l.4.9 1.1 2.8 1.1 2.8 1 2.8 1 2.8m-.7-182.8l-.1.3-.1.2-.2.1H780l-.1-.1-.1-.2v-.1l-.1-.2v-.2m-60.5-1.1V79.9m0 .3l-.1.3-.1.2v.1l-.1.1-.2.1h-.2l-.1-.1-.1-.1-.1-.2v-.2m51.7 196.1v.9c-.6 9-10 12.1-17.6 12.6l-2.7.1m23.8-37.1l.3-.2 2.7-1.5.3-.2m-27.2-27.7l2.1.1c10.6 1.4 18.3 13.4 22.7 22.1l1.7 3.5m0 .3c.2.4.4.8.5 1.2l.1.1m-54.3.1l.1-.2.1-.1v-.1l.1-.1.1-.1.1-.1.1-.1.1-.1.1-.1.1-.1m-49.9-18.4h35.5m40.7 1.8l2 .1c8.7 1.2 15.7 10.1 20.3 17l1.7 2.8m-.1 0l.1-.2 2.1-3.3.2-.4m-50.3 3.9l.1-.2c4.6-7.6 12.3-18.2 21.8-19.6l2-.1M723 249.2l.8-1.7c4.4-9.2 12.4-22.4 23.6-23.9l2.1-.1m14.4 65.6l1.4-.4c6.6-1.8 12.9-4.5 18.7-7.9l2.1-1.2M725.5 253l-.1-.2-2.1-3.3-.2-.4m-10.3 30.6l.5-2c2.1-8.1 4.5-16.1 7.7-23.8l1.2-2.8m3.3 1.9l-1.3 2.3c-4 6.9-7.2 14.2-10.3 21.6l-1.1 2.7m128.8-201h-31.9M725.5 253l-.3-.2-2.7-1.5-.3-.2m27.3 6.7v-1M809 79.9l-.5 11.4c-2.1 42.3-7.3 84.3-15.5 125.8l-2.9 14.2m-67.8 19.5l-1.8-1.5c-4.8-4.1-9-9.6-10.9-15.6l-.6-2.3m3.8 48.3l.8.5c6 3.6 12.4 6.4 19.1 8.4l2.3.6m3.3-35.5l1 .6c2.8 1.5 5.9 2.4 9 2.6h1.2m0 0c3.6 0 7-.9 10.1-2.6l1-.6M735 80.2c-.1.6-.8.8-1 .2v-.2m-24 150.9l-2.9-14c-8.1-40.2-13.2-81-15.4-122l-.7-15.2m31.9 169.5l-.9-.7c-4.9-4-9.4-9.4-11.4-15.4l-.6-2.2m98.1-154.8v-.1c.1-.4.1-.7.2-1.1V75m-117.6.4c.1.3.1.6.1.8v.1m-.2-1.4c0 .2 0 .3.1.4m58.8 214.8h-.6c-8.1-.1-19.1-3-19.8-12.7v-.9m-39-196.6c-.6-.1-.9-.6-.9-1.1v-.2m60.3 212.2h-2l-3.3-.3c-8.6-1.1-17.1-5.4-15.8-15.4l.2-1.4.6-2.4c2.2-6.8 10.4-23.9 17.2-27.2l1.3-.5 1.3-.2m-58.8-164c-.1-.2-.2-.5-.2-.7v-.1m.6 1.2c-.2-.1-.3-.2-.3-.3v-.1m.4.5h-.1m49.7 0V78.7m9.2 179.1c3.7 0 7.4-.9 10.6-2.6l1.1-.6m-11.7 3.2V288.5M735 79.9V78.7m4.2-.1V79.8m-9.4.1V78.7m4.1-.1V79.8m-9.4-.1v-.2m4.2-.9V79.8m-10.5-.2v.2m5.2-1.2V79.8m35.2-1.2V79.8m5.3-1.2V79.8m-23.6.5v-.4m-1.1 0v.4m20.5-.4V78.7m9.4-.1V79.8m-4.1-.2v-.1-.9m0 1.3v-.2m9.4-1.1v1.1m0 0v.1m-4.2.1V78.7m-32.4 175.9l1 .6c2.9 1.5 6.2 2.4 9.5 2.6h1.2m59.2-178.4c.1-.2.2-.5.2-.7v-.1m-.7 1.3c.2 0 .4-.2.5-.4v-.1m-33.2.5V78.7m33.4 1.2c.6-.1.9-.6.9-1.1v-.2M735 80.2v-.3m-1 0v.4m-4.2-.1v-.3m-1.1 0v.4m-5.3-.4v.4m52.1 0v-.4m-5.3.4v-.4m-1 0v.3m-4.2.1v-.4m-1.1 0v.3m1.1.1c-.1.7-.8.6-1 .1v-.2m-4.3.1v-.4m46.2-3.1h.5c.5-.1 1-.1 1.5-.3l.2-.2m-4.6.6h.2c.7 0 1.4 0 2.1-.1h.1m-115-.5l.1.2c1.1.4 2.9.4 4 .4h.5m112.7-.6h-.1m-4.9 1.2v-.7h.2m-44.9.1v.7m5.3-.7v.7m-4-.1v-.6m9.3 0V77.7m-4-.2v-.6m9.3 0v.7m-4.1-.1v-.6m9.3 0V77.6m-4-.1v-.6m5.2.6v-.6m-40.4.6v-.6m-5.3.6v-.6m4 0v.7m-9.3-.1v-.6m-6.4 1.7h-4.1m4.1-.7v.7m0-1.1V77.8m-4.1-.3h4.1m-4.2 1.1v-.1-1m-23.4 0H718m-27.3-1.2l.2.3c.9.8 3.3.9 4.4.9h.5m-5.2-2.1c.1.3.1.6.1.9v.1m-.2-1.5c0 .2 0 .3.1.4m27.6 3.3h-28.1m28-1.1v1.1m10.6 0h-4.1m4-1.1v1.1m-4-1.1h4m-4.1 1.1v-.1-1m9.4 1.1h-4.1m4.1-1.1v1.1m-4.1-1.1h4m-4 1.1v-.1-1m9.4 1.1h-4.1m4-1.1v1.1m-4-1.1h4m-4 1.1v-.1-1m9.1 1.1h-3.9m.1-1.1h3.8m-3.9 1.1v-.1-1m68.6 1.1h-28.2m27.5-2.3v-.1c.1-.4.1-.7.2-1.1V75m-5.2 2.5h.3c1.2 0 3.7-.1 4.6-.9l.2-.3m-27.5 1.2H803.1m-22.3 1.1v-.1-1m-5.2 0h4.1m-4.2 1.1v-.1-1m4.2 1.1h-4.1m4-1.1v1.1m-9.3-1.1h4m-4 1.1v-.1-1m4.1 1.1h-4.1m4.1-1.1v1.1m-9.3-1.1h4m-4.1 1.1v-.1-1m4.1 1.1H765m4.1-1.1v1.1m-9.3-1.1h4m-4.1 1.1v-.1-1m4.2 1.1h-4.1m4-1.1v1.1m-9-1.1h3.7m.1 1.1h-3.9m3.8-1.1v1.1m-24.7-1.7v.7m-9.2-.1v-.6m4 0v.7m-10.5-.7v.7m91.8-2.7v.4c0 1-.1 2-.1 3v.4m-114-1.2c0-.2-.1-.5-.2-.6h-.1m23.8.6v-.6m4.1 0v.7m-32.7-1.3h.1m-1.7 2.3v-.4c0-1-.1-2-.1-3v-.4m.1 3.8h-31.9m92.3 209.8h.4c7.3-.1 17.1-2.3 19.5-10.3l.3-1.4m-40.5 0l.3 1.4c2.1 7.4 10.6 9.8 17.4 10.3l2.5.1M208.6 86.6c0-1.2-.9-2.1-2.1-2.1s-2.1.9-2.1 2.1c0 1.2.9 2.1 2.1 2.1s2.1-1 2.1-2.1m72.3 0c0-1.2-.9-2.1-2.1-2.1-1.2 0-2.1.9-2.1 2.1 0 1.2.9 2.1 2.1 2.1 1.2 0 2.1-1 2.1-2.1M237.4 232c0 2.9 2.4 5.3 5.3 5.3s5.3-2.4 5.3-5.3m-.1-4c0-2.9-2.4-5.3-5.3-5.3s-5.3 2.4-5.3 5.3m10.6-63.8c0-2.9-2.4-5.3-5.3-5.3s-5.3 2.4-5.3 5.3 2.4 5.3 5.3 5.3c3 0 5.3-2.4 5.3-5.3M237.7 233l-.2.1m10.3-.1l-.2-.1m-8.3 58l1.2.1h2.2m-3.4-.1l-.8-.1M398 90.5l-.4-10.7m-2.8 35.8c2.2 38.6 4.6 77.2 7.3 115.7M555.4 154l-.6 8.6m2.2-32l-.5 7.2-.6 9m2.1-33.4l1.8-32.6m-173.6-3.4c0-1.3-1-2.3-2.3-2.3s-2.3 1-2.3 2.3m10.7 30.5c.1 1.3.8 2.5 1.9 3.2m-6.8-36.2c-.8-1.2-2.1-1.8-3.5-1.8-2.4 0-4.3 1.9-4.3 4.3M556.7 115l-.1-.3m.3.8l-.2-.5m.7 3.7v.3m-.3-2.5l.1.3m-.1-.3l-.1-.2m.2.7v-.2m0 .3v.2m-.2-1.1v-.1m.2.9v.1m-.2-1.2l.1.2m-.2-.3l-.1-.2m.6 2.8l-.1-1m.1 1.8v-.2m0 .2v.1m0-.7v-.2m0 2.2v-1.3m-162.6-3.7v-.6m162.6 5.7v.4m-13.8-42.5h.8m-49.9 212.2c.1 0 .3-.1.4-.2m-83.6-31.8c.1.2.2.3.3.5m131.2-8.5l-.2.4m.7-1.8l.1-.3m-141.3-17.3v-.5m8.8 26.7l-.2-.3m132.4-9l.2.8m7.8-43.2l-1.7 17.1m5.3-60.8l-.5 7.1-.7 8.3-.6 7-.7 8-.6 6.9-.5 5.9M719.2 79.1v-.5m5.3 0v.9m84.4-.9h1m-21 152.5l1.1.2M690.1 78.6l-.1-3.7m59.7 131.4c.1 0 .2-.1.3-.2m16.6-91.4c.3-.1.4-.3.4-.6 0-.4-.3-.7-.7-.7m-17.5 92.5c0 .1.1.1.1.2m7.2-86l.1-.2m.1-.2c0 .1-.1.2-.1.3m.4-.7l.1-.1M756.9 119l.1-.1m-7.5 124.4h-.5M775.9 249.2l.1.3m-6.3 27.2c.1-.4.1-.8.1-1.2m6.8-24.7l.2.4m-13-135.4l-1.3.5c-.9.3-1.7.7-2.6 1.1l-.1.1m6.1-2.5l.8-.3m-2.4.8l1.4-.5m-1.9.8l.3-.1m-39.6-35.4c0-.1 0-.1 0 0m-5.3-.1v-.1m60.5-1.5v.5m-89.6-.5h-1M710 231.1l-1.1.2m100-152.7l.1-3.7M748.9 206c.1.2.3.3.5.3h.2m-17.1-92.9c-.4 0-.7.3-.7.7 0 .3.2.5.4.6M750 206c0-.1.1-.1.1-.2m-7.3-85.7l-.1-.1m.1 0c0-.1-.1-.2-.1-.3m-.3-.4l-.1-.1M741.9 118.8l.1.1m8 124.4h-.6m-26.5 6.1l.1-.3m6.1 26.4l.1.9v.2m-6.9-25.8l-.2.4m13-135.4l1.3.5c.9.3 1.7.7 2.6 1.1l.1.1m-6-2.5l-.8-.3m2.3.8l-1.4-.5m1.6.6l.4.1M219.7 73.1h-26.5m98.9 0h-26.5m26.4 1.8h43m-115.4 0h46.1m-115.4 0h43m26.2 2.5h-26.1m98.5 0h-26.1m-72.2 2.5h-41.8m114.2 0h-46.6m114.1 0h-41.8m-72.5 2.7h-25.5m97.9 0h-25.5m.4 7.9h24.7m-97.1 0h24.7m114.7-10.6h.4m-8.8 101.2l1.8-17 1.6-17 1.5-17 1.3-17 1.2-17 1-16.3m-14.7 151.5L321 215l2.1-17 2-17m9.7-102.4l.2-3.7m-72.8 36.7h-39m45.3 3.9h-51.7m74.4-25l.9-17.4m-25.6 17.4l-.9-17.4M247.9 228v3.9m-5.2 59.1v-34.1m0-182v36.6m0 47.4v10.5m0 62.8v-9.4m-5.3 9.2v-4M218.8 90.5l.9-17.4m-25.6 17.4l-.9-17.4m24.6 158.2h-51.3M333.9 79.8l.2-.1c.4-.2.7-.6.8-1.1M166.5 231.3l.3 1.9c4.8 26.8 35.7 49.2 60.7 55.8l.8.2m-78-214.3l.2 3.7m1.4 1.3l1 16.3c2.5 39.7 6.4 79.4 11.5 118.9l2.2 16.3M150.5 78.6c.1.7.5 1.1 1.1 1.2h.2m78.8 209.9l-2.4-.5m28.9-.1l-2.3.5m2.3-.5l.8-.2c25-6.6 55.9-28.9 60.7-55.8l.3-1.9m-88.3 58.5l1.6.3 1.9.3 1.9.3 1.9.2m0 0l1.9.1 1.8.1h1.1m0 0h1.2c3.1-.1 6.3-.4 9.4-1l1.6-.3m239.9 1l1.2-.6m-.1 0l1.1-.6m.1.1l.7-.4c10.4-5.4 22.3-13 29.9-22l.2-.3m-140.5-192h190.9m-.1 1.4H545m32.5.6h-29.3m27.1 2h-9.8m-10.1 1H397.5M379.6 82.6h1m17.4 7.9h-11.8m191.3-13.6h.1c.3 0 .5-.3.5-.5v-.1m.1 0l.1-1.4m-2.8 2l-.2 2m-24.1 125.5v-.1m-.1 2v-.3m5.9-79.4l.3-5.5m-.6-7.7h1.4m2.5-36.5l-5.1 4m-.2-.5l4.5-3.5m3.6 0l-6.5 4m5.5-4l-5.7 3.4m9.5-3.4l-8.2 3.9m7-3.9l-7.1 3.4m-164 29.4c.3.8.4 1.7.6 2.5l.1.4m177.2-35.7l-12.3 3.9m10.6-3.9l-6.4 2m5.3-2l-10.1 3.9m8.7-3.9l-7.3 2.8M394.5 113l.1.5m-.1-.9l.1.5m.1 2.3l1.6 28.3m.1.1L398 171m0 0l1.6 25.6m-4.9-81.7v.8m5 80.9l2.3 34.7m-7.3-116.9v.5m7.3 116.4l.1 1.2c.8 8.2 3.6 16.1 7.5 23.3l.4.7m-15.4-142.6v.5m0-.9l.1.5m-8.5-23.5V77.4M410 256.5l.6 1.1m-.6-1.1l1.3 2.3m-.7-1.3l.7 1.3M381.6 81.6v-4.3m-2 .1v5.3m1-.1l1-1m404.3 198.6l2.6-1.5c16.5-9.8 33.2-25.9 36.8-45.5l.3-1.9M772.4 73.1h26.5m-98.9 0h26.5m-69.4 1.8h184.7m-33.7 1.4H690.9m112.6.6h-108m59.2 2h-10.5m-26 1h-59.6m64.8 0h-4.2m9.5 0h-4.2m9.5 0h-4.2m9.4 0H735m23.6 0h-18.3m23.6 0h-4.2m9.5 0H765m9.4 0h-4.2m9.5 0h-4.2m64.8 0h-59.6m59.6 0h.4m-15.1 151.4l2.2-16.3c5.1-39.5 8.9-79.2 11.5-118.9l1-16.3m1.3-1.2l.2-3.7m-109.3 38.5h33.9m-31.6 2.2l-.2-.1m64.2-40.6l.1-1.8m-18.2 3.8v3.5m-1-1.3v-2.2m0 3.2v-.3m-4.2.5v-3.4m-1.1 3.3v-3.3m-1.9-2l-.1-1.8m-2.2 7.2v-3.4m-1 3.3v-3.3m-4.2 3.4v-3.4m-1.1 3.3v-3.3m5.9 198.5v1m-13.9-155.3l-.3 4.2m4.1-45v-3.4m-1 3.4v-3.4m-14.7 0l.2 2m10.7-2l-.2 2m-5.2 0v164.9m0 47.2v-.9m-9.2-213.2v3.4m2.9 44.7l-.2-3.9m-13.5 151.7l.2-.9c1.6-6.2 11.7-27.8 19.1-28.1h.6m-20.3 31.6l.1-.9.1-.9.2-.9m-.4 3.8v-1m10.1-198.6v3.4m-4.2-3.4v3.3m-1-3.3v3.4m-4.2-3.4v3.3m-3.4-5.3l.1-1.8m2.2 3.8v3.4m-4.2-3.4v3.3m-1-3.3v3.4m-4.3-.5v.3m0-3.2v2.2m-1 1.3v-3.5m46.1 38.6l-.2.1m-64-40.7l-.1-1.8m125.6 158.2H790m50.7-151.5l.2-.1c.4-.2.7-.6.8-1.1m-92.2 165.2h.5c7.6 0 19.2 24.5 19.7 30.8l.1.9m-96.5-44.2l.3 1.9c3.4 18.7 18.8 34.1 34.3 43.9l2.6 1.6M657.1 74.9l.2 3.7m1.4 1.3l1 16.3c2.5 39.7 6.4 79.4 11.5 118.9l2.2 16.3M657.3 78.6c.1.7.5 1.1 1.1 1.2h.2m51.8 198.9l2.6 1.5c6.7 3.7 13.8 6.8 21.2 8.8l.8.2m0-.1l2.3.5m24.3.1l2.4-.5m-.1-.1l.8-.2c6.5-1.7 12.7-4.3 18.6-7.4l2.6-1.4m-48.6 9.6l1.6.3c3.1.6 6.2.9 9.4 1h1.2m0 0h1.1c3.2-.1 6.3-.4 9.4-1l1.6-.3"/></svg>