<svg id="Layer_1" xmlns="http://www.w3.org/2000/svg" viewBox="129 67 1049.9 414"><style>.st0,.st1,.st2{fill:none;stroke:#000;stroke-linejoin:bevel;stroke-miterlimit:10}.st0{stroke-width:.36}.st1,.st2{opacity:.12}.st1{enable-background:new;stroke-width:.36}.st2{stroke-width:.5}.st3{stroke-width:1.0291}.st3,.st4,.st5{opacity:.12;fill:none;stroke:#000;stroke-linejoin:bevel;stroke-miterlimit:10}.st4{enable-background:new;stroke-width:.7389}.st5{stroke-width:.6059}</style><path class="st0" d="M1277.2 371.7h3.5"/><path class="st1" d="M882.6 202.2h-.2v-.4l.2.4"/><path class="st2" d="M496.3 198.8v-8l-3.5 6h4.5"/><path class="st3" d="M1135.1 896.7c0-1.8-1.5-3.3-3.3-3.3-1.8 0-3.3 1.5-3.3 3.3 0 1.8 1.5 3.3 3.3 3.3 1.8.1 3.3-1.4 3.3-3.3m1.7 0c0-2.8-2.2-5-5-5s-5 2.2-5 5 2.2 5 5 5 5-2.2 5-5m18.4 5v-10m-6.6 13.3v16.7m0-735.3v16.7m-3.4 690.3v6.7M113 186.4h1177.7m-284.1 16.8v-16.7m0 735.3V905m284.1-534.7H1274M864.5 203.2v-16.7m0 735.3V905m426.2-350.9H1274M722.5 203.2v-16.7m0 735.3V905m-142 0v16.7m0-735.3v16.7M171 737.9h-16.7m1136.4 0H1274m-128.8 162.2l10 1.7M438.4 203.2v-16.7m0 735.3V905M106 905h1168V203.2H106m48.3 718.6h1136.4V186.4m-135.5 705.3l-10 1.7M296.4 905v16.7m0-735.3v16.7"/><path class="st2" d="M790.3 198.7v-7.9l-3.5 6h4.5"/><path class="st4" d="M651.9 199.9l-1-.8c-1.6-2.1-1.6-7 0-9l1-.8 1 .8c1.6 2.1 1.6 6.8 0 9l-1 .8"/><path class="st0" d="M727.4 478.8h-.2v-.4l.2.4M884.6 484.4l1 6.3h-2.1l1.1-6.3"/><path class="st5" d="M415.6 224.6h4.2"/><path class="st0" d="M884.6 484.4v10.5M910.8 484.4h-30.4"/></svg>