<?xml version="1.0" encoding="utf-8"?>
<!-- Generator: Adobe Illustrator 19.1.0, SVG Export Plug-In . SVG Version: 6.00 Build 0)  -->
<svg version="1.1" id="Layer_1" xmlns="http://www.w3.org/2000/svg" xmlns:xlink="http://www.w3.org/1999/xlink" x="0px" y="0px"
	 viewBox="0 0 1049.9 348" style="enable-background:new 0 0 1049.9 348;" xml:space="preserve">
<style type="text/css">
	.st0{fill:none;stroke:#000000;stroke-width:0.36;stroke-linejoin:bevel;stroke-miterlimit:10;}
	.st1{opacity:0.12;fill:none;stroke:#000000;stroke-width:0.36;stroke-linejoin:bevel;stroke-miterlimit:10;}
	.st2{opacity:0.12;fill:none;stroke:#000000;stroke-width:0.447;stroke-linejoin:bevel;stroke-miterlimit:10;}
	.st3{opacity:0.12;fill:none;stroke:#000000;stroke-width:0.72;stroke-linejoin:bevel;stroke-miterlimit:10;}
</style>
<line class="st0" x1="1148.2" y1="132.7" x2="1151.7" y2="132.7"/>
<polyline class="st1" points="753.6,17.2 753.4,17.2 753.4,16.8 753.6,17.2 "/>
<polyline class="st1" points="126.2,138.4 126.6,137.1 127.5,136.2 128.8,135.8 130.1,136.2 131,137.1 131.4,138.4 131,139.7 
	130.1,140.6 128.8,141 127.5,140.6 126.6,139.7 126.2,138.4 "/>
<line class="st1" x1="126.6" y1="142.3" x2="131" y2="134.5"/>
<polyline class="st1" points="88,148.8 88,143.6 89.3,148 90.6,143.6 90.6,148.8 "/>
<polyline class="st1" points="94.5,148 94.2,148.4 93.7,148.8 93.2,148.8 92.7,148.4 92.4,148 92.1,147.5 91.9,146.2 92.1,144.9 
	92.4,144.5 92.7,144.1 93.2,143.6 93.7,143.6 94.2,144.1 94.5,144.5 94.8,144.9 95,146.2 94.8,147.5 94.5,148 "/>
<path class="st1" d="M98.7,143.6v4.4c-0.6,1.2-1.5,1.2-2.1,0v-4.4"/>
<polyline class="st1" points="100.8,148.8 100.8,143.6 102.9,148.8 102.9,143.6 "/>
<line class="st1" x1="104.7" y1="143.6" x2="107.3" y2="143.6"/>
<line class="st1" x1="106" y1="143.6" x2="106" y2="148.8"/>
<line class="st1" x1="110.2" y1="143.6" x2="110.2" y2="148.8"/>
<polyline class="st1" points="113.3,148.8 113.3,143.6 115.4,148.8 115.4,143.6 "/>
<polyline class="st1" points="118.5,146.2 119.6,146.2 119.6,148 119.3,148.4 118.8,148.8 118.3,148.8 117.7,148.4 117.5,148 
	117.2,147.5 117,146.2 117.2,144.9 117.5,144.5 117.7,144.1 118.3,143.6 118.8,143.6 119.3,144.1 119.6,144.5 "/>
<line class="st1" x1="125.8" y1="143.6" x2="125.8" y2="148.8"/>
<line class="st1" x1="127.9" y1="143.6" x2="127.9" y2="148.8"/>
<line class="st1" x1="125.8" y1="146.2" x2="127.9" y2="146.2"/>
<polyline class="st1" points="132.1,148 131.8,148.4 131.3,148.8 130.8,148.8 130.3,148.4 130,148 129.8,147.5 129.5,146.2 
	129.8,144.9 130,144.5 130.3,144.1 130.8,143.6 131.3,143.6 131.8,144.1 132.1,144.5 132.4,144.9 132.6,146.2 132.4,147.5 
	132.1,148 "/>
<polyline class="st1" points="134.2,143.6 134.2,148.8 136.3,148.8 "/>
<polyline class="st1" points="140.5,148.8 138.4,148.8 138.4,143.6 140.5,143.6 "/>
<line class="st1" x1="138.4" y1="146.2" x2="139.7" y2="146.2"/>
<polyline class="st1" points="56.1,151.5 55.6,152.3 55.3,153.6 55.3,154.5 55.6,155.8 56.1,156.7 "/>
<polyline class="st1" points="61.1,152.3 60.8,151.9 60.3,151.5 59.8,151.5 59.2,151.9 59,152.3 59,152.8 59.2,153.2 60.8,154.5 
	61.1,154.9 61.1,155.8 60.8,156.2 60.3,156.7 59.8,156.7 59.2,156.2 59,155.8 58.7,155.4 "/>
<polyline class="st1" points="65.3,156.7 63.2,156.7 63.2,151.5 65.3,151.5 "/>
<line class="st1" x1="63.2" y1="154.1" x2="64.5" y2="154.1"/>
<polyline class="st1" points="69.4,155.8 69.2,156.2 68.6,156.7 68.1,156.7 67.6,156.2 67.3,155.8 67.1,155.4 66.8,154.1 
	67.1,152.8 67.3,152.3 67.6,151.9 68.1,151.5 68.6,151.5 69.2,151.9 69.4,152.3 "/>
<polyline class="st1" points="73.6,155.8 73.3,156.2 72.8,156.7 72.3,156.7 71.8,156.2 71.5,155.8 71.3,155.4 71,154.1 71.3,152.8 
	71.5,152.3 71.8,151.9 72.3,151.5 72.8,151.5 73.3,151.9 73.6,152.3 73.9,152.8 74.1,154.1 73.9,155.4 73.6,155.8 "/>
<polyline class="st1" points="75.7,156.7 75.7,151.5 77.8,156.7 77.8,151.5 "/>
<path class="st1" d="M79.9,151.5h1c1.7,1.2,1.7,4,0,5.2h-1V151.5"/>
<polyline class="st1" points="83.8,156.7 85.1,151.5 86.4,156.7 "/>
<line class="st1" x1="84.3" y1="154.9" x2="85.9" y2="154.9"/>
<path class="st1" d="M88.2,156.7v-5.2h1.3c1.2,0.7,1.2,1.9,0,2.6h-1.3"/>
<line class="st1" x1="89.5" y1="154.1" x2="90.3" y2="156.7"/>
<polyline class="st1" points="92.4,151.5 93.5,154.1 93.5,156.7 "/>
<line class="st1" x1="93.5" y1="154.1" x2="94.5" y2="151.5"/>
<polyline class="st1" points="102.9,155.8 102.6,156.2 102.1,156.7 101.5,156.7 101,156.2 100.8,155.8 100.5,155.4 100.2,154.1 
	100.5,152.8 100.8,152.3 101,151.9 101.5,151.5 102.1,151.5 102.6,151.9 102.9,152.3 103.1,152.8 103.4,154.1 103.1,155.4 
	102.9,155.8 "/>
<path class="st1" d="M104.9,156.7v-5.2h1.3c1.2,0.7,1.2,1.9,0,2.6h-1.3"/>
<polyline class="st1" points="111.2,156.7 109.1,156.7 109.1,151.5 111.2,151.5 "/>
<line class="st1" x1="109.1" y1="154.1" x2="110.4" y2="154.1"/>
<path class="st1" d="M113.3,156.7v-5.2h1.3c1.2,0.7,1.2,1.9,0,2.6h-1.3"/>
<line class="st1" x1="114.6" y1="154.1" x2="115.4" y2="156.7"/>
<polyline class="st1" points="117.2,156.7 118.5,151.5 119.8,156.7 "/>
<line class="st1" x1="117.7" y1="154.9" x2="119.3" y2="154.9"/>
<line class="st1" x1="121.4" y1="151.5" x2="124" y2="151.5"/>
<line class="st1" x1="122.7" y1="151.5" x2="122.7" y2="156.7"/>
<line class="st1" x1="126.9" y1="151.5" x2="126.9" y2="156.7"/>
<polyline class="st1" points="132.1,155.8 131.8,156.2 131.3,156.7 130.8,156.7 130.3,156.2 130,155.8 129.7,155.4 129.5,154.1 
	129.7,152.8 130,152.3 130.3,151.9 130.8,151.5 131.3,151.5 131.8,151.9 132.1,152.3 132.4,152.8 132.6,154.1 132.4,155.4 
	132.1,155.8 "/>
<polyline class="st1" points="134.2,156.7 134.2,151.5 136.3,156.7 136.3,151.5 "/>
<polyline class="st1" points="139.1,151.5 139.7,152.3 139.9,153.6 139.9,154.5 139.7,155.8 139.1,156.7 "/>
<line class="st1" x1="135.2" y1="135.8" x2="135.2" y2="141"/>
<path class="st1" d="M138.4,139.3l0.3-0.9l0.8-0.4l0.8,0.4l0.3,0.9l-0.3,0.9l-0.3,0.4l-0.5,0.4l-0.5-0.4c-0.8-1-0.8-3.3,0-4.4
	l0.5-0.4l0.5,0.4l0.3,0.4"/>
<polyline class="st1" points="237.6,162.8 231.3,162.1 231.8,160.1 237.6,162.8 "/>
<polyline class="st1" points="86.1,263.6 86.1,258.4 87.4,262.7 88.7,258.4 88.7,263.6 "/>
<polyline class="st1" points="92.6,262.7 92.4,263.2 91.9,263.6 91.3,263.6 90.8,263.2 90.6,262.7 90.3,262.3 90,261 90.3,259.7 
	90.6,259.2 90.8,258.8 91.3,258.4 91.9,258.4 92.4,258.8 92.6,259.2 92.9,259.7 93.2,261 92.9,262.3 92.6,262.7 "/>
<path class="st1" d="M96.8,258.4v4.4c-0.6,1.2-1.5,1.2-2.1,0v-4.4"/>
<polyline class="st1" points="98.9,263.6 98.9,258.4 101,263.6 101,258.4 "/>
<line class="st1" x1="102.8" y1="258.4" x2="105.4" y2="258.4"/>
<line class="st1" x1="104.1" y1="258.4" x2="104.1" y2="263.6"/>
<line class="st1" x1="108.3" y1="258.4" x2="108.3" y2="263.6"/>
<polyline class="st1" points="111.4,263.6 111.4,258.4 113.5,263.6 113.5,258.4 "/>
<polyline class="st1" points="116.7,261 117.7,261 117.7,262.7 117.5,263.2 116.9,263.6 116.4,263.6 115.9,263.2 115.6,262.7 
	115.4,262.3 115.1,261 115.4,259.7 115.6,259.2 115.9,258.8 116.4,258.4 116.9,258.4 117.5,258.8 117.7,259.2 "/>
<polyline class="st1" points="126.1,259.2 125.8,258.8 125.3,258.4 124.8,258.4 124.2,258.8 124,259.2 124,259.7 124.2,260.1 
	125.8,261.4 126.1,261.9 126.1,262.7 125.8,263.2 125.3,263.6 124.8,263.6 124.2,263.2 124,262.7 123.7,262.3 "/>
<polyline class="st1" points="128.2,258.4 128.2,263.6 130.2,263.6 "/>
<polyline class="st1" points="134.4,262.7 134.2,263.2 133.6,263.6 133.1,263.6 132.6,263.2 132.3,262.7 132.1,262.3 131.8,261 
	132.1,259.7 132.3,259.2 132.6,258.8 133.1,258.4 133.6,258.4 134.2,258.8 134.7,259.7 134.9,261 134.7,262.3 134.4,262.7 "/>
<line class="st1" x1="136.3" y1="258.4" x2="138.9" y2="258.4"/>
<line class="st1" x1="137.6" y1="258.4" x2="137.6" y2="263.6"/>
<polyline class="st1" points="54.3,266.2 53.7,267.1 53.5,268.4 53.5,269.3 53.7,270.6 54.3,271.4 "/>
<polyline class="st1" points="59.2,267.1 59,266.6 58.4,266.2 57.9,266.2 57.4,266.6 57.1,267.1 57.1,267.5 57.4,268 57.9,268.4 
	58.4,268.8 59,269.3 59.2,269.7 59.2,270.6 59,271 58.4,271.4 57.9,271.4 57.4,271 57.1,270.6 56.9,270.1 "/>
<polyline class="st1" points="63.4,271.4 61.3,271.4 61.3,266.2 63.4,266.2 "/>
<line class="st1" x1="61.3" y1="268.8" x2="62.6" y2="268.8"/>
<polyline class="st1" points="67.6,270.6 67.3,271 66.8,271.4 66.3,271.4 65.8,271 65.5,270.6 65.2,270.1 65,268.8 65.2,267.5 
	65.5,267.1 65.8,266.6 66.3,266.2 66.8,266.2 67.3,266.6 67.6,267.1 "/>
<polyline class="st1" points="71.8,270.6 71.5,271 71,271.4 70.5,271.4 69.9,271 69.7,270.6 69.4,270.1 69.1,268.8 69.4,267.5 
	69.7,267.1 69.9,266.6 70.5,266.2 71,266.2 71.5,266.6 71.8,267.1 72,267.5 72.3,268.8 72,270.1 71.8,270.6 "/>
<polyline class="st1" points="73.8,271.4 73.8,266.2 75.9,271.4 75.9,266.2 "/>
<path class="st1" d="M78,266.2h1c1.7,1.2,1.7,4,0,5.2h-1V266.2"/>
<polyline class="st1" points="81.9,271.4 83.2,266.2 84.6,271.4 "/>
<line class="st1" x1="82.5" y1="269.7" x2="84" y2="269.7"/>
<path class="st1" d="M86.4,271.4v-5.2h1.3c1.2,0.7,1.2,1.9,0,2.6h-1.3"/>
<line class="st1" x1="87.7" y1="268.8" x2="88.5" y2="271.4"/>
<polyline class="st1" points="90.6,266.2 91.6,268.8 91.6,271.4 "/>
<line class="st1" x1="91.6" y1="268.8" x2="92.6" y2="266.2"/>
<polyline class="st1" points="101,270.6 100.7,271 100.2,271.4 99.7,271.4 99.2,271 98.9,270.6 98.7,270.1 98.4,268.8 98.7,267.5 
	98.9,267.1 99.2,266.6 99.7,266.2 100.2,266.2 100.7,266.6 101,267.1 101.3,267.5 101.5,268.8 101.3,270.1 101,270.6 "/>
<path class="st1" d="M103.1,271.4v-5.2h1.3c1.2,0.7,1.2,1.9,0,2.6h-1.3"/>
<polyline class="st1" points="109.4,271.4 107.3,271.4 107.3,266.2 109.4,266.2 "/>
<line class="st1" x1="107.3" y1="268.8" x2="108.6" y2="268.8"/>
<path class="st1" d="M111.4,271.4v-5.2h1.3c1.2,0.7,1.2,1.9,0,2.6h-1.3"/>
<line class="st1" x1="112.8" y1="268.8" x2="113.5" y2="271.4"/>
<polyline class="st1" points="115.4,271.4 116.7,266.2 118,271.4 "/>
<line class="st1" x1="115.9" y1="269.7" x2="117.5" y2="269.7"/>
<line class="st1" x1="119.5" y1="266.2" x2="122.1" y2="266.2"/>
<line class="st1" x1="120.8" y1="266.2" x2="120.8" y2="271.4"/>
<line class="st1" x1="125" y1="266.2" x2="125" y2="271.4"/>
<polyline class="st1" points="130.2,270.6 130,271 129.5,271.4 128.9,271.4 128.4,271 128.2,270.6 127.9,270.1 127.6,268.8 
	127.9,267.5 128.2,267.1 128.4,266.6 128.9,266.2 129.5,266.2 130,266.6 130.2,267.1 130.5,267.5 130.8,268.8 130.5,270.1 
	130.2,270.6 "/>
<polyline class="st1" points="132.3,271.4 132.3,266.2 134.4,271.4 134.4,266.2 "/>
<polyline class="st1" points="137.3,266.2 137.8,267.1 138.1,268.4 138.1,269.3 137.8,270.6 137.3,271.4 "/>
<polyline class="st1" points="132.3,251.4 132.6,251 133.1,250.5 133.6,250.5 134.2,251 134.4,251.4 134.4,252.3 134.2,252.7 
	133.6,253.2 133.1,253.6 132.6,254.5 132.3,255.8 134.4,255.8 "/>
<polyline class="st1" points="136.5,251.4 136.8,251 137.3,250.5 137.8,250.5 138.3,251 138.6,251.4 138.6,252.3 138.3,252.7 
	137.8,253.2 137.3,253.6 136.8,254.5 136.5,255.8 138.6,255.8 "/>
<polyline class="st1" points="147.7,222.8 146.7,216.5 148.8,216.5 147.7,222.8 "/>
<polyline class="st1" points="147.7,237.2 148.8,243.5 146.7,243.5 147.7,237.2 "/>
<line class="st1" x1="209.3" y1="304" x2="209.3" y2="309.2"/>
<path class="st1" d="M212.4,307.4l0.3-0.9l0.8-0.4l0.8,0.4l0.3,0.9l-0.3,0.9l-0.3,0.4l-0.5,0.4l-0.5-0.4c-0.8-1-0.8-3.3,0-4.4
	l0.5-0.4l0.5,0.4l0.3,0.4"/>
<polyline class="st1" points="237.4,306.6 231.1,307.6 231.1,305.5 237.4,306.6 "/>
<polyline class="st1" points="247.9,306.6 254.2,305.5 254.2,307.6 247.9,306.6 "/>
<polyline class="st1" points="622.6,167.5 623.1,167 623.7,167 624.2,167.5 624.4,167.9 624.4,168.3 624.2,168.8 623.7,169.2 
	624.2,169.6 624.4,170.1 624.7,170.5 624.7,170.9 624.4,171.4 624.2,171.8 623.7,172.2 623.1,172.2 622.6,171.8 622.3,171.4 "/>
<line class="st1" x1="623.1" y1="169.2" x2="623.7" y2="169.2"/>
<polyline class="st1" points="626.5,167.9 626.8,167.5 627.3,167 627.8,167 628.4,167.5 628.6,167.9 628.6,168.8 628.4,169.2 
	627.3,170.1 626.8,170.9 626.5,172.2 628.6,172.2 "/>
<path class="st1" d="M631.5,172.2l-0.5-0.4l-0.3-0.4l-0.3-0.4v-0.4l0.3-0.4l0.3-0.4l0.5-0.4h0.5l0.5,0.4c0.8,1.4,0.8,0.8,0,2.2
	l-0.5,0.4H631.5"/>
<polyline class="st1" points="631.5,169.2 631,168.8 630.7,168.3 630.7,167.9 631,167.5 631.5,167 632,167 632.5,167.5 632.8,167.9 
	632.8,168.3 632.5,168.8 632,169.2 "/>
<polyline class="st1" points="635.9,172.2 635.7,172.2 635.7,171.8 635.9,172.2 "/>
<polyline class="st1" points="640.9,172.2 640.9,167 639.1,170.9 641.4,170.9 "/>
<polyline class="st1" points="631.7,74.9 632.8,81.2 630.7,81.2 631.7,74.9 "/>
<polyline class="st1" points="631.7,291 630.7,284.7 632.8,284.7 631.7,291 "/>
<path class="st1" d="M601.9,58l0.3-0.9l0.8-0.4l0.8,0.4L604,58l-0.3,0.9l-0.3,0.4l-0.5,0.4l-0.5-0.4c-0.8-1-0.8-3.3,0-4.4l0.5-0.4
	l0.5,0.4l0.3,0.4"/>
<polyline class="st1" points="592.5,76.9 591.4,70.6 593.5,70.6 592.5,76.9 "/>
<polyline class="st1" points="592.5,80.8 593.5,87.1 591.4,87.1 592.5,80.8 "/>
<path class="st1" d="M871.9,227.3h0.5 M871.4,225.5l0.5-0.4h0.5l0.5,0.4l0.3,0.4v0.4l-0.3,0.4l-0.5,0.4l0.5,0.4l0.3,0.4l0.3,0.4v0.4
	l-0.3,0.4l-0.3,0.4l-0.5,0.4h-0.5l-0.5-0.4l-0.3-0.4 M753.7,179.2l6.1,1.8l-0.9,1.9L753.7,179.2 M873.4,180.7h0.5 M872.8,179
	l0.5-0.4h0.5l0.5,0.4l0.3,0.4v0.4l-0.3,0.4l-0.5,0.4l0.5,0.4l0.3,0.4l0.3,0.4v0.4l-0.3,0.4l-0.3,0.4l-0.5,0.4h-0.5l-0.5-0.4
	l-0.3-0.4 M818.9,163.3l6.1,1.9l-0.9,1.9L818.9,163.3 M833.1,37.3h1.6 M832.6,39l1.3-5.2l1.3,5.2 M820.3,33.8V39h2.1 M817.2,33.8V39
	 M812.2,37.3h1.6 M811.7,39l1.3-5.2l1.3,5.2 M808.8,33.8V39 M807.5,33.8h2.6 M803.6,36.4h1.3 M805.7,39h-2.1v-5.2h2.1 M799.4,33.8h1
	c1.7,1.2,1.7,4,0,5.2h-1V33.8 M791.1,36.4h1.3 M793.2,39h-2.1v-5.2h2.1 M786.9,36.4h1.3 M789,39h-2.1v-5.2h2.1 M784.8,34.7l-0.3-0.4
	l-0.5-0.4h-0.5l-0.5,0.4l-0.3,0.4v0.4l0.3,0.4l0.5,0.4l0.5,0.4l0.5,0.4l0.3,0.4v0.9l-0.3,0.4L784,39h-0.5l-0.5-0.4l-0.3-0.4
	l-0.3-0.4 M761.8,68.7l1.1-6.3l2,0.7L761.8,68.7 M1009.2,240.6l1-2.6 M1008.2,238l1,2.6v2.6 M1005.3,240.6l0.8,2.6 M1004,243.2V238
	h1.3c1.2,0.7,1.2,1.9,0,2.6h-1.3 M1000.1,241.5h1.6 M999.6,243.2l1.3-5.2l1.3,5.2 M995.7,238h1c1.7,1.2,1.7,4,0,5.2h-1V238
	 M991.5,243.2V238l2.1,5.2V238 M989.4,238v4.4c-0.6,1.2-1.5,1.2-2.1,0V238 M985.2,242.4l-0.3,0.4l-0.5,0.4h-0.5l-0.5-0.4l-0.3-0.4
	l-0.3-0.4l-0.3-1.3l0.3-1.3l0.3-0.4l0.3-0.4l0.5-0.4h0.5l0.5,0.4l0.3,0.4l0.3,0.4l0.3,1.3l-0.3,1.3L985.2,242.4 M978.7,240.2h1.8
	 M978.7,238v5.2h1.8l0.3-0.4l0.3-0.4v-1.3l-0.3-0.4l-0.3-0.4l0.3-0.4v-1.3l-0.3-0.4H978.7 M970.6,240.6h1.3 M970.6,243.2V238h2.1
	 M972.7,243.2h-2.1 M966.2,238l1.3,5.2l1.3-5.2 M963.5,240.6l0.8,2.6 M962.2,243.2V238h1.3c1.2,0.7,1.2,1.9,0,2.6h-1.3 M960.2,238
	v4.4c-0.6,1.2-1.5,1.2-2.1,0V238 M956,242.4l-0.3,0.4l-0.5,0.4h-0.5l-0.5-0.4l-0.3-0.4l-0.3-0.4l-0.3-1.3l0.3-1.3l0.3-0.4l0.3-0.4
	l0.5-0.4h0.5l0.5,0.4l0.3,0.4 M945.5,243.2V238l2.1,5.2V238 M942.4,238v5.2 M937.2,240.6h2.1 M939.3,238v5.2 M937.2,238v5.2
	 M934,238v5.2 M932.7,238h2.6 M929.9,238v5.2 M924.1,238l0.8,5.2l0.8-5.2l0.8,5.2l0.8-5.2 M917.3,243.2l-0.5-0.4
	c-0.8-1-0.8-3.4,0-4.4l0.5-0.4l0.5,0.4c0.8,1,0.8,3.3,0,4.4L917.3,243.2 M912.1,238.9l0.3-0.4l0.5-0.4h0.5l0.5,0.4l0.3,0.4v0.9
	l-0.3,0.4l-0.5,0.4l-0.5,0.4l-0.5,0.9l-0.3,1.3h2.1 M909,243.2l-0.5-0.4c-0.8-1-0.8-3.3,0-4.4l0.5-0.4l0.5,0.4
	c0.8,1.1,0.8,3.3,0,4.4L909,243.2 M904.8,238v5.2 M900.6,238v5.2 M896.4,238v5.2 M895.1,238h2.6 M891,243.2V238l1.3,4.4l1.3-4.4v5.2
	 M883.9,239.8v0.4l-0.3-0.4H883.9 M883.9,243.2h-0.3v-0.4L883.9,243.2 M878.7,243.2V238l2.1,5.2V238 M876.6,242.4l-0.3,0.4l-0.5,0.4
	h-0.5l-0.5-0.4l-0.3-0.4l-0.3-0.4l-0.3-1.3l0.3-1.3l0.3-0.4l0.3-0.4l0.5-0.4h0.5l0.5,0.4l0.3,0.4l0.3,0.4l0.3,1.3l-0.3,1.3
	L876.6,242.4 M872.4,242.4l-0.3,0.4l-0.5,0.4h-0.5l-0.5-0.4l-0.3-0.4l-0.3-0.4l-0.3-1.3l0.3-1.3l0.3-0.4l0.3-0.4l0.5-0.4h0.5
	l0.5,0.4l0.3,0.4 M867.2,238v5.2 M995,194l0.3-0.4l0.5-0.4h0.5l0.5,0.4l0.3,0.4v0.9l-0.3,0.4l-0.5,0.4l-0.5,0.4l-0.5,0.9l-0.3,1.3
	h2.1 M991,195.7h1.6 M986.9,196.6h1.6 M986.4,198.3l1.3-5.2l1.3,5.2 M978.3,195.7h1.3 M980.3,198.3h-2.1v-5.2h2.1 M974.1,198.3v-5.2
	h1.3c1.2,0.7,1.2,1.9,0,2.6h-1.3 M972,194l-0.3-0.4l-0.5-0.4h-0.5l-0.5,0.4l-0.3,0.4v0.4l0.3,0.4l0.5,0.4l0.5,0.4l0.5,0.4l0.3,0.4
	v0.9l-0.3,0.4l-0.5,0.4h-0.5l-0.5-0.4l-0.5-0.9 M966,198.3l1.6-5.2 M962.6,193.1v5.2 M957.4,198.3v-5.2h1.3c1.2,0.7,1.2,1.9,0,2.6
	h-1.3 M953.4,193.5l-0.3,0.4v0.4l0.3,0.4l0.5,0.4l0.5,0.4l0.5,0.4l0.3,0.4v0.9l-0.3,0.4l-0.5,0.4H954l-0.5-0.4l-0.3-0.4l-0.3-0.4
	 M955.3,194l-0.3-0.4l-0.5-0.4H954l-0.5,0.4 M945.9,194.8v0.4l-0.3-0.4H945.9 M945.9,198.3h-0.3v-0.4L945.9,198.3 M942.7,194
	l-0.3-0.4l-0.5-0.4h-0.5l-0.5,0.4l-0.3,0.4v0.4l0.3,0.4l0.5,0.4l0.5,0.4l0.5,0.4l0.3,0.4v0.9l-0.3,0.4l-0.5,0.4h-0.5l-0.5-0.4
	l-0.5-0.9 M936.5,195.7h1.3 M938.6,198.3h-2.1v-5.2h2.1 M934.4,197.4l-0.3,0.4l-0.5,0.4h-0.5l-0.5-0.4l-0.3-0.4L932,197l-0.3-1.3
	l0.3-1.3l0.3-0.4l0.3-0.4l0.5-0.4h0.5l0.5,0.4l0.3,0.4 M928.4,196.6h1.6 M927.9,198.3l1.3-5.2l1.3,5.2 M923.9,195.7h1.3
	 M923.9,198.3v-5.2h2.1 M921.1,195.7l0.8,2.6 M919.8,198.3v-5.2h1.3c1.2,0.7,1.2,1.9,0,2.6h-1.3 M917.7,193.1v4.4
	c-0.6,1.2-1.5,1.2-2.1,0v-4.4 M913.5,194l-0.3-0.4l-0.5-0.4h-0.5l-0.5,0.4l-0.3,0.4v0.4l0.3,0.4l0.5,0.4l0.5,0.4l0.5,0.4l0.3,0.4
	v0.9l-0.3,0.4l-0.5,0.4h-0.5l-0.5-0.4l-0.5-0.9 M904.1,195.7l1-2.6 M903.1,193.1l1,2.6v2.6 M898.9,193.1h1c1.7,1.2,1.7,4,0,5.2h-1
	V193.1 M896.8,197.4l-0.3,0.4l-0.5,0.4h-0.5l-0.5-0.4l-0.3-0.4l-0.3-0.4l-0.3-1.3l0.3-1.3l0.3-0.4l0.3-0.4l0.5-0.4h0.5l0.5,0.4
	l0.3,0.4l0.3,0.4l0.3,1.3L897,197L896.8,197.4 M890.3,195.3h1.8 M890.3,193.1v5.2h1.8l0.3-0.4l0.3-0.4v-1.3l-0.3-0.4l-0.3-0.4
	l0.3-0.4v-1.3l-0.3-0.4H890.3 M882.2,198.3v-5.2l2.1,5.2v-5.2 M879,193.1v5.2 M874.1,196.6h1.6 M873.5,198.3l1.3-5.2l1.3,5.2
	 M869.4,198.3v-5.2l1.3,4.4l1.3-4.4v5.2"/>
<line class="st1" x1="631.8" y1="74.9" x2="631.8" y2="164.4"/>
<line class="st1" x1="631.8" y1="291" x2="631.8" y2="174.9"/>
<line class="st1" x1="747.4" y1="291" x2="627.6" y2="291"/>
<line class="st1" x1="761.8" y1="68.7" x2="773.3" y2="36.4"/>
<line class="st1" x1="656.4" y1="74.9" x2="627.6" y2="74.9"/>
<line class="st1" x1="773.3" y1="36.4" x2="781.7" y2="36.4"/>
<line class="st1" x1="560" y1="80.8" x2="596.7" y2="80.8"/>
<line class="st1" x1="579.6" y1="76.9" x2="596.7" y2="76.9"/>
<line class="st1" x1="592.5" y1="80.8" x2="592.5" y2="97.5"/>
<polyline class="st1" points="592.5,76.9 592.5,57.2 598.2,57.2 "/>
<line class="st2" x1="864.7" y1="232" x2="878" y2="232"/>
<line class="st1" x1="853.1" y1="227.6" x2="861.5" y2="227.6"/>
<line class="st2" x1="864.7" y1="223.7" x2="878" y2="223.7"/>
<line class="st2" x1="866.1" y1="185.4" x2="879.5" y2="185.4"/>
<line class="st1" x1="854.6" y1="181" x2="863" y2="181"/>
<line class="st2" x1="866.1" y1="177.2" x2="879.5" y2="177.2"/>
<line class="st1" x1="753.7" y1="179.2" x2="853.1" y2="227.6"/>
<line class="st1" x1="818.9" y1="163.3" x2="854.6" y2="181"/>
<line class="st2" x1="878" y1="223.7" x2="882.6" y2="227.8"/>
<line class="st2" x1="879.5" y1="177.2" x2="884.1" y2="181.3"/>
<line class="st2" x1="864.7" y1="223.7" x2="864.7" y2="232"/>
<line class="st2" x1="866.1" y1="177.2" x2="866.1" y2="185.4"/>
<line class="st2" x1="879.5" y1="185.4" x2="884.1" y2="181.3"/>
<line class="st2" x1="878" y1="232" x2="882.6" y2="227.8"/>
<line class="st1" x1="237.4" y1="306.6" x2="218.2" y2="306.6"/>
<line class="st1" x1="247.9" y1="306.6" x2="264.6" y2="306.6"/>
<line class="st1" x1="147.7" y1="237.2" x2="147.7" y2="253.2"/>
<line class="st1" x1="147.7" y1="222.8" x2="147.7" y2="206.1"/>
<line class="st1" x1="147.7" y1="253.2" x2="142.3" y2="253.2"/>
<line class="st1" x1="240.6" y1="237.2" x2="143.6" y2="237.2"/>
<line class="st1" x1="240.6" y1="222.8" x2="143.6" y2="222.8"/>
<line class="st1" x1="237.4" y1="234.1" x2="237.4" y2="310.7"/>
<line class="st1" x1="247.9" y1="234.1" x2="247.9" y2="310.7"/>
<polyline class="st1" points="237.6,162.8 149.9,138.4 144.1,138.4 "/>
<path class="st1" d="M767.3,76.4L767.3,76.4c0-4.5-3.7-8.2-8.2-8.2c-4.5,0-8.2,3.7-8.2,8.2c0,4.5,3.7,8.2,8.2,8.2
	C763.6,84.6,767.3,80.9,767.3,76.4"/>
<path class="st3" d="M238.5,290.8l-0.4,0c-2.3-0.2-4.5-0.5-6.7-1l-0.8-0.2 M265.9,78.6h-2.3c-6.2,0-12.4,0-18.6,0l-2.3,0
	 M242.7,259.3l-2.5-0.1c-13.8-1.7-21.4-13.9-22.3-26.9l-0.1-0.8 M242.7,232.2l-0.5,0c-1.3,0-2.7,0.3-4,0.6l-0.5,0.1 M247.6,233
	l-0.5-0.1c-1.3-0.4-2.6-0.6-4-0.6l-0.5,0 M242.7,237.2v-0.5c0-1.4,0-2.7,0-4.1v-0.5 M217.8,231.3l-0.7-11.5
	c-1.7-30.8-2.8-61.7-3.7-92.6l-0.3-11.6 M213.2,115.6l0.1-1.3c0.8-3.9,4.4-6,8.2-6.4l1.4-0.1 M254.8,289.7l-0.7,0.1
	c-3.4,0.7-6.8,1.1-10.2,1.2l-1.2,0 M222.8,107.9l1.3,0c5.5,0,11,0,16.6,0l2,0 M242.7,107.8l0.6,0c5.8,0,11.5,0,17.3,0l2,0
	 M262.5,107.9l0.7,0c4,0.1,8,2.2,8.8,6.4l0.1,1.3 M272.2,115.6L272.2,115.6c-0.8,34.7-2,69.5-4,104.1l-0.7,11.6 M267.6,231.3h4.9
	c13.1,0,26.3,0,39.4,0h4.9h0.2c0.5,0,1.1,0,1.6,0h0.2 M242.7,256.9l-2.3-0.1c-11.4-1.5-17.8-11.8-19.3-22.5l-0.3-3.2 M264.5,231.1
	l-0.3,3.2c-1.5,10.7-7.9,21-19.3,22.5l-2.3,0.1 M334.8,78.6h-4.3c-11.5,0-22.9,0-34.4,0l-4.3,0 M268.5,115.5l-0.1,5.8
	c-0.7,32.8-1.7,65.5-3.3,98.3l-0.6,11.6 M247.7,258.7l-2.5,0.4l-2.5,0.1 M267.6,231.3l-0.1,0.9c-0.9,11.9-7.3,23.4-19.5,26.4
	l-0.3,0.1 M220.8,231.1l-0.3-5.8c-1.7-32.7-2.7-65.5-3.5-98.3l-0.2-11.6 M267.6,231.3l-0.2,0c-0.8,0-1.7-0.1-2.5-0.2l-0.3,0
	 M272.2,115.6l-0.3,0c-1,0-2-0.1-3-0.1l-0.4,0 M262.5,109.4L262.5,109.4c0,0.7-0.1,1.4-0.2,2.1l-0.1,0.1 M262.5,107.9L262.5,107.9
	c0,0.5,0,0.9,0,1.4l0,0.2 M222.8,109.4L222.8,109.4c0,0.7,0.1,1.4,0.2,2.1l0.1,0.1 M222.8,107.9L222.8,107.9c0,0.5,0,0.9,0,1.4
	l0,0.2 M213.2,115.6l0.3,0c1,0,2-0.1,3-0.1l0.4,0 M217.8,231.3l0.2,0c0.8,0,1.7-0.1,2.5-0.2l0.3,0 M262.2,111.6l0.4,0
	c2.2,0,5.2,0.7,5.9,3l0.1,0.8 M216.8,115.5l0-0.2c0.2-2.7,3.3-3.6,5.5-3.6l0.8,0 M242.7,78.6l-2.3,0c-6.2,0-12.4,0-18.6,0h-2.3
	 M193.5,78.6l-4.3,0c-11.5,0-22.9,0-34.4,0h-4.3 M557.6,121.1l-0.1,0.9c-0.2,2.5-0.3,5.1-0.5,7.6l-0.1,0.9 M558,114l0,0.4
	c-0.1,1.2-0.1,2.4-0.2,3.5l0,0.4 M556.6,114.7l0,0.1c0.4,1,0.6,2.1,0.8,3.2l0,0.4 M556.7,113.4L556.7,113.4
	c-0.2,0.3-0.2,0.8-0.1,1.1l0,0.1 M558,113.4h-0.1c-0.4,0-0.7,0-1.1,0h-0.1 M551.1,205.9L551.1,205.9c0,0.2,0,0.3,0,0.4l0,0
	 M557.4,121.1l-0.3,4.3c-1.4,24-3.2,48-5.2,72l-0.7,8.5 M557.4,118.4l0,0.2c0,0.7,0,1.5,0,2.2l0,0.3 M551.1,206L551.1,206
	c0,0,0-0.1,0-0.1l0,0 M551.1,206L551.1,206C551.1,206,551.1,206,551.1,206L551.1,206 M555.6,149.3l0.4-5.6l0.4-5.6l0.4-5.7l0.3-5.7
	l0-0.1 M551.3,204.3l0.4-4.3c1.3-14.9,2.5-29.8,3.5-44.7l0.4-6 M551.2,204.6L551.2,204.6c0-0.1,0-0.1,0-0.1l0,0 M551.1,205.9l0-0.1
	c0-0.3,0.1-0.7,0.1-1l0-0.1 M557.4,120.7L557.4,120.7C557.4,120.6,557.4,120.6,557.4,120.7l0-0.1 M556.6,114.7L556.6,114.7
	c-0.1-0.3,0-1,0.1-1.3l0,0 M495.6,290.3l2.6-1.3c9.5-5,19.8-11.5,27.2-19.2l2.5-2.8 M495.2,290.5L495.2,290.5
	c0.1-0.1,0.2-0.1,0.3-0.2l0,0 M494.5,290.8L494.5,290.8c0.2-0.1,0.4-0.2,0.6-0.3l0.1,0 M558,80.8L558,80.8L558,80.8
	c-0.1-0.2-0.1-0.3-0.1-0.5l0,0 M556.7,80.3L556.7,80.3C556.7,80.3,556.7,80.3,556.7,80.3L556.7,80.3 M556.8,79.9L556.8,79.9
	c0,0.1,0,0.3,0,0.4l0,0 M559.4,80.8L559.4,80.8L559.4,80.8c0-0.1,0-0.1,0-0.2v0 M545,76.3l0.1,0.2c0.6,0.4,2,0.4,2.8,0.4l0.3,0
	 M555.3,80.3L555.3,80.3C555.3,80.3,555.3,80.3,555.3,80.3L555.3,80.3 M555.3,79.9L555.3,79.9c0,0.2,0,0.3,0,0.4l0,0 M547.7,77.5
	h0.9c2.4,0,4.9,0,7.3,0h0.9 M544.9,76.3l0,0.1l0.1,0.3l0.2,0.2l0.3,0.2l0.3,0.1l0.3,0.1l0.2,0.1l0.3,0.1l0.3,0l0.3,0l0.3,0
	 M544.9,75.4L544.9,75.4c0,0.3,0,0.6,0,0.9l0,0.1 M544.9,74.9L544.9,74.9c0,0.2,0,0.3,0,0.4l0,0 M544.4,78.6l0-0.4c0-1,0.1-2,0.1-3
	l0-0.4 M556.8,78.6h-1.2c-3.3,0-6.6,0-9.9,0h-1.2 M556.8,78.1l0,0.1l0,0.1l0,0.1l0,0.1l0,0.1 M556.8,77.5l0,0.1l0,0.1l0,0.1l0,0.1
	l0,0.1 M557.5,76.9L557.5,76.9c-0.3,0-0.6,0.2-0.7,0.5l0,0.1 M547.7,77.5L547.7,77.5c0-0.3,0.2-0.6,0.5-0.6l0.1,0 M544.9,76.3
	L544.9,76.3C545,76.3,545,76.3,544.9,76.3l0.1,0 M556.8,80.9L556.8,80.9L556.8,80.9c-0.1-0.2-0.1-0.3-0.1-0.5l0-0.1 M392.3,107.8
	L392.3,107.8c0.3,0,0.5,0,0.8,0l0.1,0 M394.2,110.5L394.2,110.5c0.3,1.4,0.5,2.7,0.6,4.1l0,0.5 M393.1,107.9l0.2,0.1
	c0.4,0.5,0.7,1.6,0.8,2.3l0.1,0.3 M555.4,80.9L555.4,80.9L555.4,80.9L555.4,80.9L555.4,80.9l-0.1-0.1l0,0l0-0.1l0-0.1l0-0.1l0,0
	l0-0.1l0-0.1l0-0.1 M411.6,259.2L411.6,259.2C411.6,259.2,411.6,259.2,411.6,259.2L411.6,259.2 M410.9,258L410.9,258
	c0.2,0.4,0.5,0.8,0.6,1.1l0.1,0.1 M402.1,231.8l0.2,2.2c0.9,7.4,3.5,14.6,7,21.2l1.3,2.4 M402.1,231.3L402.1,231.3
	C402.1,231.3,402,231.3,402.1,231.3L402.1,231.3 M394.8,115.6L394.8,115.6C394.8,115.6,394.8,115.6,394.8,115.6L394.8,115.6
	 M393.1,107.9l0,0.2c0.1,0.6,0.3,1.3,0.7,1.8l0.1,0.2 M545,75.4L545,75.4c0,0.3,0,0.6,0,0.8l0,0.1 M545,74.9L545,74.9
	c0,0.2,0,0.3,0,0.4l0,0 M542.8,250.8l0-0.1c-1.3-5.7-2.2-11.5-2.4-17.4l0-2 M543.6,78.6l0-0.4c0-1,0.1-2,0.1-3l0-0.4 M396.2,78.6
	l0-0.4c0-1-0.1-2-0.1-3l0-0.4 M543.6,78.6l-14.7,0c-39.3,0-78.7,0-118,0l-14.7,0 M558.8,80.7L558.8,80.7L558.8,80.7l0-0.1l0,0l0,0
	l0,0 M558.8,80.8L558.8,80.8L558.8,80.8L558.8,80.8l0-0.1l0,0 M540.3,231.3L540.3,231.3c0.2-0.1,0.4-0.1,0.6-0.2l0.1,0 M543.4,79.4
	L543.4,79.4c0.1-0.2,0.2-0.5,0.2-0.7l0-0.1 M542.7,79.9L542.7,79.9c0.3,0,0.5-0.2,0.6-0.4l0-0.1 M397.5,79.9L397.5,79.9
	c-0.6,0-1.2-0.4-1.3-1l0-0.2 M543.3,79.9l0.1,0c0.5-0.1,0.9-0.5,1-1.1l0-0.2 M402.1,231.3L402.1,231.3c0.1,0,0.2,0,0.2,0h0h0.1
	c0.1,0,0.3,0,0.4,0h0.1h0.2c0.5,0,0.9,0,1.4,0h0.2h13.6c36.2,0,72.4,0,108.6,0h13.6 M556.8,78.6l0,0.1c0,0.3-0.2,0.6-0.4,0.8
	l-0.1,0.1 M556.3,79.6L556.3,79.6c-0.3,0.2-0.6,0.2-0.8,0.3l-0.1,0 M558.2,78.8l0,0.2c-0.2,0.5-0.6,0.8-1.1,0.9l-0.2,0 M540.3,231.3
	l0-14.7c0-40.6,0.1-81,1.6-121.6l0.6-15.1 M489.2,279.7v0.9c0,2.3,0,4.6,0,7v0.9v0.3c0,0.7,0,1.4,0,2.1v0.3 M541,231.1l0.1-14.7
	c0.1-40.5,0.2-80.9,1.7-121.4l0.6-15.1 M541.3,237.7l0-0.3c-0.2-1.9-0.3-3.8-0.3-5.7v-0.7 M543.1,248.7l0-0.2
	c-0.7-3.2-1.3-6.4-1.7-9.6l-0.1-1.1 M542.8,250.8l0.1-0.1c0.2-0.3,0.3-0.7,0.4-1l0-0.1 M551.1,205.9L551.1,205.9c0,0.2,0,0.3,0,0.4
	l0,0 M551.4,202.3l0,0.4c-0.1,0.9-0.2,1.9-0.3,2.8l0,0.4 M551.7,200l0,0.2c-0.1,0.6-0.1,1.3-0.2,1.9l0,0.2 M555.9,146.8l-0.1,0.7
	c-0.1,1.9-0.3,3.8-0.4,5.8l0,0.7 M557.6,121.1l-0.1,0.9c-0.2,2.5-0.3,5.1-0.5,7.6l-0.1,0.9 M557.7,118.4l0,0.3
	c0,0.7-0.1,1.4-0.1,2.2l0,0.3 M558,114l0,0.4c-0.1,1.2-0.1,2.4-0.2,3.5l0,0.4 M558,113.4L558,113.4c0,0.2,0,0.4,0,0.5l0,0.1
	 M559.9,80.7L559.9,80.7c0,0.1,0,0.1,0,0.1l0,0 M411.6,259.3l1.3,1.6c17.1,20.8,44,28.4,69.9,29.9l6.4,0.2 M392.3,107.9l-0.1-1.7
	c-0.3-4.6-0.5-9.2-0.8-13.9l-0.1-1.7 M543.4,249.2l0.2-0.8c1.7-7.5,3.4-15.1,5.3-22.6l0.6-2.4 M489.2,279.7l0.6,0
	c20.5-1.7,38.8-8.5,51-25.9l1.8-2.6 M489.2,291l0.3,0c1.5,0,3,0,4.6-0.2l0.5,0 M755.9,121.1l0-0.2c0.1-1.2,0.6-1.7,1.5-2.4l0.3-0.2
	 M750.1,205.9l1-3.4l0.8-3.9c1.4-7.9,1.7-16.3,2-24.3l0.1-2.1l0.2-8.5c0.2-10.7,0.6-21.3,1.2-31.9l0.1-2.1l0.5-8.5 M749.5,206.3
	L749.5,206.3c0.3,0,0.5-0.2,0.6-0.4l0-0.1 M766.4,113.4h-1.7c-4.5,0-9,0-13.6,0h-1.7 M766.6,114.7L766.6,114.7
	c0.6-0.3,0.5-1.1,0-1.2l-0.2,0 M757.8,118.4L757.8,118.4c2.6-1.3,5.3-2.3,7.9-3.3l0.9-0.3 M732.3,114.7l0.9,0.3
	c2.4,0.9,4.8,1.8,7.1,2.9l0.9,0.4 M731.9,114.2l0.1,0.2l0.1,0.1l0.1,0.1l0.2,0.1 M732.5,113.4L732.5,113.4c-0.4,0-0.7,0.3-0.7,0.6
	l0,0.2 M749.5,113.4h-1.7c-4.5,0-9,0-13.6,0h-1.7 M748.8,205.9L748.8,205.9c0.1,0.3,0.3,0.4,0.5,0.4l0.1,0 M743,121.1l0.1,2.1
	l0.5,8.5c0.6,10.6,1,21.3,1.2,31.9l0,2.1l0.2,8.5c0.3,8.8,0.6,17.8,2.4,26.5l0.3,1.4l1,3.8 M741.1,118.4l0.1,0.1
	c0.9,0.6,1.5,1.2,1.7,2.3l0,0.3 M747.5,200.7l-0.1-0.7l-0.8-4.5c-0.8-5.7-1.1-11.6-1.4-17.4l-0.2-8.2l-0.2-7.8
	c-0.2-9.9-0.6-19.9-1.1-29.8l-0.3-5.7l-0.1-1.7 M748.8,205.9l-0.2-0.5c-0.4-1.4-0.8-2.7-1.1-4.1l-0.1-0.5 M741.6,118.7L741.6,118.7
	c-0.2-0.1-0.3-0.2-0.4-0.3l0,0 M741.9,118.8L741.9,118.8c-0.1-0.1-0.2-0.1-0.2-0.2l0,0 M742.3,119.2L742.3,119.2
	c-0.1-0.1-0.1-0.1-0.2-0.2l0,0 M742.6,119.7L742.6,119.7c-0.1-0.2-0.2-0.2-0.2-0.3l0,0 M742.9,120.6L742.9,120.6
	c0-0.1-0.1-0.3-0.1-0.4l0,0 M743,121.1L743,121.1c0-0.1,0-0.3,0-0.4l0,0 M756,120.7L756,120.7c0,0.1,0,0.3,0,0.4v0 M756.1,120.1
	L756.1,120.1c-0.1,0.1-0.1,0.3-0.1,0.4l0,0 M756.6,119.3L756.6,119.3c-0.1,0.1-0.2,0.2-0.2,0.3l0,0 M756.9,119L756.9,119
	c-0.1,0.1-0.1,0.1-0.2,0.2l0,0 M757.3,118.7L757.3,118.7c-0.1,0.1-0.2,0.1-0.3,0.2l0,0 M757.8,118.4L757.8,118.4
	c-0.2,0.1-0.3,0.2-0.4,0.2l0,0 M759.8,117.4l-0.2,0.1c-0.5,0.2-1.1,0.5-1.6,0.8l-0.2,0.1 M740.4,118l-0.4-0.2l-0.2-0.1l-0.2-0.1
	l-0.4-0.2 M741.1,118.4l-0.2-0.1l-0.2-0.1l-0.2-0.1l-0.2-0.1 M751.5,200.5l-0.1,0.6c-0.3,1.4-0.7,2.8-1.1,4.2l-0.2,0.5 M755.7,125.3
	l-0.1,1.5l-0.3,5.8c-0.6,9.8-1,19.7-1.1,29.5l-0.1,7.1l-0.2,7.8c-0.2,6.1-0.6,12.3-1.4,18.4l-0.8,4.6l-0.1,0.6 M788.9,231.1
	l-0.1,0.6c-1.5,6.4-6.1,12.2-11,16.3l-1.8,1.4 M808,79.9l-0.5,11.4c-2.1,42.3-7.3,84.3-15.6,125.8l-2.9,14 M759.7,80.3L759.7,80.3
	c-0.1,0.6-0.8,0.7-1,0.1l0-0.2 M779.7,79.9L779.7,79.9c0,0.1,0,0.2,0,0.2v0 M740.3,80.3L740.3,80.3c-0.1,0.6-0.8,0.7-1,0.2l0-0.2
	 M770.2,80.3L770.2,80.3c-0.1,0.7-0.9,0.6-1,0.1l0-0.2 M729.8,80.2L729.8,80.2c-0.1,0.7-0.8,0.8-1,0.3l0-0.2 M750,243.3l1.3,0.3
	l1.3,0.5c6.6,3.3,14.3,19.3,16.8,26l0.4,1.2l0.6,2.4c2.2,10.8-6.2,15.5-15.6,16.8l-3.3,0.3l-2,0 M758.6,79.9L758.6,79.9
	c0,0.1,0,0.2,0,0.4l0,0 M775.5,80.3l0,0.1c-0.1,0.6-0.9,0.5-1-0.1l0-0.2 M724.5,80.3l0,0.1c-0.2,0.5-0.8,0.6-1,0.1l0-0.2 M790,231.3
	l-0.1,0.6c-1.6,6.7-6.2,12.9-11.4,17.3l-1.9,1.5 M708.9,231.3l-2.9-14.2c-8-40.3-13.2-81-15.3-122L690,79.9 M779.7,79.8L779.7,79.8
	c0-0.2,0-0.5,0-0.7v-0.1 M786.1,279.7l-0.1-0.3c-3.2-8.1-6.8-16.2-11.1-23.8l-1.5-2.5 M781.4,263.2l0.9,2.9l0.9,2.9l0.9,2.9l0.6,2
	l0.8,2.9l0.7,2.9 M776.8,251.1l0.4,0.9l1.1,2.8l1.1,2.8l1,2.8l1,2.8 M780.7,80.4L780.7,80.4l-0.1,0.3l-0.1,0.2l0,0l-0.2,0.1l0,0
	l-0.2,0l-0.1,0l-0.1-0.1l-0.1-0.2l0-0.1l-0.1-0.2l0-0.2 M719.2,79.1L719.2,79.1c0,0.3,0,0.4,0,0.7l0,0.1 M719.2,80.2L719.2,80.2
	l-0.1,0.3l-0.1,0.2l0,0.1l-0.1,0.1l-0.2,0.1l0,0l-0.2,0l0,0l-0.1-0.1l-0.1-0.1l-0.1-0.2l0-0.2 M769.9,276.5l0,0.9
	c-0.6,9-10,12.1-17.6,12.6l-2.7,0.1 M773.4,253l0.3-0.2c0.9-0.5,1.8-1,2.7-1.5l0.3-0.2 M749.5,223.4l2.1,0.1
	c10.6,1.4,18.3,13.4,22.7,22.1l1.7,3.5 M776,249.4L776,249.4c0.2,0.4,0.4,0.8,0.5,1.2l0.1,0.1 M722.3,250.8L722.3,250.8l0.1-0.2
	l0.1-0.1l0-0.1l0.1-0.1l0.1-0.1l0.1-0.1l0.1-0.1l0.1-0.1l0.1-0.1l0.1-0.1 M673.3,231.3h0.2c0.6,0,1.3,0,1.9,0h0.2h3.3
	c8.9,0,17.7,0,26.6,0h3.3 M749.5,233.1l2,0.1c8.7,1.2,15.7,10.1,20.3,17l1.7,2.8 M773.4,253l0.1-0.2c0.7-1.1,1.4-2.2,2.1-3.3
	l0.2-0.4 M725.5,253l0.1-0.2c4.6-7.6,12.3-18.2,21.8-19.6l2-0.1 M723,249.2l0.8-1.7c4.4-9.2,12.4-22.4,23.6-23.9l2.1-0.1
	 M763.9,289.1l1.4-0.4c6.6-1.8,12.9-4.5,18.7-7.9l2.1-1.2 M725.5,253l-0.1-0.2c-0.7-1.1-1.4-2.2-2.1-3.3l-0.2-0.4 M712.8,279.7
	l0.5-2c2.1-8.1,4.5-16.1,7.7-23.8l1.2-2.8 M725.5,253l-1.3,2.3c-4,6.9-7.2,14.2-10.3,21.6l-1.1,2.7 M841.6,78.6h-3.2
	c-5.3,0-10.6,0-15.9,0h-3.2h-3.2l-3.2,0h-3.2 M725.5,253l-0.3-0.2c-0.9-0.5-1.8-1-2.7-1.5l-0.3-0.2 M749.5,257.8L749.5,257.8
	c0-0.3,0-0.6,0-0.9v-0.1 M809,79.9l-0.5,11.4c-2.1,42.3-7.3,84.3-15.5,125.8l-2.9,14.2 M722.3,250.8l-1.8-1.5
	c-4.8-4.1-9-9.6-10.9-15.6l-0.6-2.3 M712.8,279.7l0.8,0.5c6,3.6,12.4,6.4,19.1,8.4l2.3,0.6 M738.3,253.7l1,0.6
	c2.8,1.5,5.9,2.4,9,2.6l1.2,0 M749.5,256.9L749.5,256.9c3.6,0,7-0.9,10.1-2.6l1-0.6 M735,80.2L735,80.2c-0.1,0.6-0.8,0.8-1,0.2
	l0-0.2 M710,231.1l-2.9-14c-8.1-40.2-13.2-81-15.4-122L691,79.9 M722.9,249.4l-0.9-0.7c-4.9-4-9.4-9.4-11.4-15.4l-0.6-2.2
	 M808.1,76.3l0-0.1c0.1-0.4,0.1-0.7,0.2-1.1l0-0.1 M690.7,75.4L690.7,75.4c0.1,0.3,0.1,0.6,0.1,0.8l0,0.1 M690.6,74.9L690.6,74.9
	c0,0.2,0,0.3,0.1,0.4l0,0 M749.5,290.1l-0.6,0c-8.1-0.1-19.1-3-19.8-12.7l0-0.9 M690.1,79.9L690.1,79.9c-0.6-0.1-0.9-0.6-0.9-1.1
	l0-0.2 M749.5,290.8l-2,0l-3.3-0.3c-8.6-1.1-17.1-5.4-15.8-15.4l0.2-1.4l0.6-2.4c2.2-6.8,10.4-23.9,17.2-27.2l1.3-0.5l1.3-0.2
	 M690.2,79.4L690.2,79.4c-0.1-0.2-0.2-0.5-0.2-0.7l0-0.1 M690.6,79.8L690.6,79.8c-0.2-0.1-0.3-0.2-0.3-0.3l0-0.1 M690.7,79.9
	L690.7,79.9L690.7,79.9l-0.1,0 M740.3,79.9L740.3,79.9c0-0.4,0-0.8,0-1.1v-0.1 M749.5,257.8L749.5,257.8c3.7,0,7.4-0.9,10.6-2.6
	l1.1-0.6 M749.5,257.8v3c0,8,0,15.9,0,23.9v3v0.1c0,0.2,0,0.4,0,0.6v0.1 M735,79.9L735,79.9c0-0.4,0-0.8,0-1.1v-0.1 M739.2,78.6
	l0,0.1c0,0.4,0,0.7,0,1.1l0,0 M729.8,79.9L729.8,79.9c0-0.4,0-0.8,0-1.1l0-0.1 M733.9,78.6l0,0.1c0,0.4,0,0.7,0,1.1l0,0 M724.5,79.7
	L724.5,79.7c0-0.1,0-0.1,0-0.2v0 M728.7,78.6l0,0.1c0,0.4,0,0.7,0,1.1l0,0 M718.2,79.6L718.2,79.6c0,0.1,0,0.1,0,0.2l0,0
	 M723.4,78.6v0.1c0,0.4,0,0.8,0,1.1l0,0 M758.6,78.6l0,0.1c0,0.4,0,0.8,0,1.1v0 M763.9,78.6l0,0.1c0,0.4,0,0.7,0,1.1l0,0
	 M740.3,80.3L740.3,80.3c0-0.1,0-0.3,0-0.4v0 M739.2,79.9L739.2,79.9c0,0.1,0,0.3,0,0.4v0 M759.7,79.9L759.7,79.9c0-0.4,0-0.8,0-1.1
	v-0.1 M769.1,78.6v0.1c0,0.4,0,0.8,0,1.1v0 M765,79.6l0-0.1c0-0.2,0-0.5,0-0.8l0-0.1 M765,79.9L765,79.9l0-0.2 M774.4,78.6l0,0.1
	c0,0.3,0,0.6,0,0.9v0.1 M774.4,79.7L774.4,79.7c0,0,0,0.1,0,0.1v0l0,0 M770.2,79.9L770.2,79.9c0-0.4,0-0.8,0-1.1l0-0.1 M737.8,254.6
	l1,0.6c2.9,1.5,6.2,2.4,9.5,2.6l1.2,0 M808.7,79.4L808.7,79.4c0.1-0.2,0.2-0.5,0.2-0.7v-0.1 M808.2,79.9L808.2,79.9
	c0.2,0,0.4-0.2,0.5-0.4l0-0.1 M775.5,79.9L775.5,79.9c0-0.4,0-0.8,0-1.1v-0.1 M808.9,79.9L808.9,79.9c0.6-0.1,0.9-0.6,0.9-1.1l0-0.2
	 M735,80.2L735,80.2c0-0.1,0-0.3,0-0.3l0,0 M734,79.9L734,79.9c0,0.1,0,0.3,0,0.4v0 M729.8,80.2L729.8,80.2c0-0.1,0-0.2,0-0.3v0
	 M728.7,79.9L728.7,79.9c0,0.1,0,0.3,0,0.4v0 M723.4,79.9L723.4,79.9c0,0.2,0,0.3,0,0.4v0 M775.5,80.3L775.5,80.3c0-0.2,0-0.3,0-0.4
	v0 M770.2,80.3L770.2,80.3c0-0.1,0-0.3,0-0.4v0 M769.2,79.9L769.2,79.9c0,0.1,0,0.2,0,0.3l0,0 M765,80.3L765,80.3c0-0.1,0-0.3,0-0.4
	v0 M763.9,79.9L763.9,79.9c0,0.1,0,0.3,0,0.3l0,0 M765,80.3L765,80.3c-0.1,0.7-0.8,0.6-1,0.1l0-0.2 M759.7,80.3L759.7,80.3
	c0-0.2,0-0.3,0-0.4l0,0 M805.9,76.8l0.5,0c0.5-0.1,1-0.1,1.5-0.3l0.2-0.2 M803.5,76.9l0.2,0c0.7,0,1.4,0,2.1-0.1l0.1,0 M690.9,76.3
	l0.1,0.2c1.1,0.4,2.9,0.4,4,0.4l0.5,0 M808.2,76.3L808.2,76.3c0,0-0.1,0-0.1,0l0,0 M803.2,77.5L803.2,77.5l0-0.2l0-0.1l0,0l0-0.1
	l0-0.1l0-0.1l0-0.1l0.1,0l0.1,0 M758.5,76.9L758.5,76.9c0,0.2,0,0.4,0,0.6v0.1 M763.8,76.9L763.8,76.9L763.8,76.9v0.3l0,0.1v0.1
	l0,0.1v0.1 M759.8,77.5L759.8,77.5c0-0.2,0-0.4,0-0.6v0 M769.1,76.9L769.1,76.9L769.1,76.9v0.2l0,0v0.1l0,0.1v0.1l0,0.1v0.1l0,0.1
	 M765.1,77.5L765.1,77.5c0-0.2,0-0.4,0-0.6l0,0 M774.4,76.9L774.4,76.9c0,0.2,0,0.4,0,0.6v0.1 M770.3,77.5L770.3,77.5
	c0-0.2,0-0.4,0-0.6v0 M779.6,76.9L779.6,76.9L779.6,76.9V77l0,0.1v0.1l0,0.1v0.2l0,0.1 M775.6,77.5L775.6,77.5c0-0.2,0-0.4,0-0.6
	l0,0 M780.8,77.5L780.8,77.5c0-0.2,0-0.4,0-0.6l0,0 M740.4,77.5L740.4,77.5c0-0.2,0-0.4,0-0.6v0 M735.1,77.5L735.1,77.5
	c0-0.2,0-0.4,0-0.6l0,0 M739.1,76.9L739.1,76.9c0,0.2,0,0.4,0,0.6v0.1 M729.8,77.5L729.8,77.5c0-0.2,0-0.4,0-0.6l0,0 M723.4,78.6
	H723c-1.1,0-2.2,0-3.3,0h-0.4 M723.4,77.9l0,0.1c0,0.2,0,0.4,0,0.5l0,0.1 M723.4,77.5l0,0.1v0.1l0,0.1 M719.3,77.5h0.4
	c1.1,0,2.2,0,3.3,0h0.4 M719.2,78.6l0-0.1c0-0.3,0-0.6,0-0.9v-0.1 M695.8,77.5h2.2c5.9,0,11.9,0,17.8,0h2.2 M690.7,76.3l0.2,0.3
	c0.9,0.8,3.3,0.9,4.4,0.9l0.5,0 M690.6,75.4L690.6,75.4c0.1,0.3,0.1,0.6,0.1,0.9l0,0.1 M690.5,74.9L690.5,74.9c0,0.2,0,0.3,0.1,0.4
	l0,0 M718.2,78.6h-2.8c-7.5,0-15,0-22.5,0h-2.8 M718.1,77.5l0,0.1c0,0.3,0,0.6,0,0.9v0.1 M728.7,78.6h-0.4c-1.1,0-2.2,0-3.3,0h-0.4
	 M728.6,77.5l0,0.1c0,0.3,0,0.6,0,0.9l0,0.1 M724.6,77.5h0.4c1.1,0,2.2,0,3.2,0h0.4 M724.5,78.6l0-0.1c0-0.3,0-0.6,0-0.9l0-0.1
	 M733.9,78.6l-0.4,0c-1.1,0-2.2,0-3.3,0l-0.4,0 M733.9,77.5l0,0.1c0,0.3,0,0.6,0,0.9l0,0.1 M729.8,77.5h0.4c1.1,0,2.1,0,3.2,0h0.4
	 M729.8,78.6l0-0.1c0-0.3,0-0.6,0-0.9l0-0.1 M739.2,78.6h-0.4c-1.1,0-2.2,0-3.3,0l-0.4,0 M739.1,77.5l0,0.1c0,0.3,0,0.6,0,0.9v0.1
	 M735.1,77.5l0.4,0c1.1,0,2.1,0,3.2,0h0.4 M735.1,78.6l0-0.1c0-0.3,0-0.6,0-0.9l0-0.1 M744.2,78.6h-0.4c-1,0-2.1,0-3.1,0h-0.4
	 M740.4,77.5h0.4c1,0,2,0,3,0l0.4,0 M740.3,78.6l0-0.1c0-0.3,0-0.6,0-0.9l0-0.1 M808.9,78.6H806c-7.5,0-15,0-22.5,0h-2.8
	 M808.2,76.3l0-0.1c0.1-0.4,0.1-0.7,0.2-1.1l0-0.1 M803.2,77.5l0.3,0c1.2,0,3.7-0.1,4.6-0.9l0.2-0.3 M780.8,77.5h2.2
	c6,0,11.9,0,17.9,0h2.2 M780.8,78.6v-0.1c0-0.3,0-0.6,0-0.9l0-0.1 M775.6,77.5h0.4c1.1,0,2.2,0,3.3,0h0.4 M775.5,78.6l0-0.1
	c0-0.3,0-0.6,0-0.9l0-0.1 M779.7,78.6h-0.4c-1.1,0-2.2,0-3.3,0h-0.4 M779.6,77.5v0.1c0,0.3,0,0.6,0,0.9l0,0.1 M770.3,77.5h0.4
	c1.1,0,2.2,0,3.2,0h0.4 M770.3,78.6v-0.1c0-0.3,0-0.6,0-0.9l0-0.1 M774.4,78.6H774c-1.1,0-2.2,0-3.3,0h-0.4 M774.4,77.5l0,0.1
	c0,0.3,0,0.6,0,0.9v0.1 M765.1,77.5h0.4c1.1,0,2.1,0,3.2,0h0.4 M765,78.6v-0.1c0-0.3,0-0.6,0-0.9l0-0.1 M769.1,78.6l-0.4,0
	c-1.1,0-2.2,0-3.3,0l-0.4,0 M769.1,77.5v0.1c0,0.3,0,0.6,0,0.9l0,0.1 M759.8,77.5h0.4c1.1,0,2.1,0,3.2,0l0.4,0 M759.7,78.6l0-0.1
	c0-0.3,0-0.6,0-0.9l0-0.1 M763.9,78.6l-0.4,0c-1.1,0-2.2,0-3.3,0h-0.4 M763.8,77.5l0,0.1c0,0.3,0,0.6,0,0.9v0.1 M754.8,77.5l0.4,0
	c0.7,0,1.5,0,2.2,0h0.4h0.7 M758.6,78.6h-0.4c-1,0-2.1,0-3.1,0h-0.4 M758.5,77.5l0,0.1c0,0.3,0,0.6,0,0.9v0.1 M733.8,76.9
	L733.8,76.9c0,0.2,0,0.4,0,0.6v0.1 M724.6,77.5L724.6,77.5c0-0.2,0-0.4,0-0.6l0,0 M728.6,76.9L728.6,76.9c0,0.2,0,0.4,0,0.6v0.1
	 M718.1,76.9L718.1,76.9c0,0.2,0,0.4,0,0.6v0.1 M809.9,74.9l0,0.4c0,1-0.1,2-0.1,3l0,0.4 M695.8,77.5L695.8,77.5
	c0-0.2-0.1-0.5-0.2-0.6l-0.1,0 M719.3,77.5L719.3,77.5c0-0.2,0-0.4,0-0.6v0 M723.4,76.9L723.4,76.9c0,0.2,0,0.4,0,0.6v0.1
	 M690.7,76.3L690.7,76.3c0,0,0.1,0,0.1,0l0,0 M689.1,78.6l0-0.4c0-1-0.1-2-0.1-3l0-0.4 M689.1,78.6h-3.2c-8.5,0-17,0-25.5,0h-3.2
	 M749.5,288.4l0.4,0c7.3-0.1,17.1-2.3,19.5-10.3l0.3-1.4 M729.2,276.7l0.3,1.4c2.1,7.4,10.6,9.8,17.4,10.3l2.5,0.1 M208.6,86.6
	L208.6,86.6c0-1.2-0.9-2.1-2.1-2.1s-2.1,0.9-2.1,2.1c0,1.2,0.9,2.1,2.1,2.1S208.6,87.7,208.6,86.6 M280.9,86.6L280.9,86.6
	c0-1.2-0.9-2.1-2.1-2.1c-1.2,0-2.1,0.9-2.1,2.1c0,1.2,0.9,2.1,2.1,2.1C280,88.7,280.9,87.7,280.9,86.6 M237.4,232L237.4,232
	c0,2.9,2.4,5.3,5.3,5.3c2.9,0,5.3-2.4,5.3-5.3 M247.9,228L247.9,228c0-2.9-2.4-5.3-5.3-5.3c-2.9,0-5.3,2.4-5.3,5.3 M247.9,164.2
	L247.9,164.2c0-2.9-2.4-5.3-5.3-5.3c-2.9,0-5.3,2.4-5.3,5.3c0,2.9,2.4,5.3,5.3,5.3C245.6,169.5,247.9,167.1,247.9,164.2 M237.7,233
	l-0.2,0.1 M247.8,233l-0.2-0.1 M239.3,290.9l1.2,0.1l0.4,0l1.8,0 M239.3,290.9l-0.8-0.1 M398,90.5l-0.4-10.7 M394.8,115.6
	L394.8,115.6c2.2,38.6,4.6,77.2,7.3,115.7 M555.4,154l-0.6,8.6 M557,130.6l-0.5,7.2l-0.6,9 M558,113.4l1.8-32.6 M386.2,77.4
	L386.2,77.4c0-1.3-1-2.3-2.3-2.3s-2.3,1-2.3,2.3 M392.3,107.9L392.3,107.9c0.1,1.3,0.8,2.5,1.9,3.2 M387.4,74.9L387.4,74.9
	c-0.8-1.2-2.1-1.8-3.5-1.8c-2.4,0-4.3,1.9-4.3,4.3 M556.7,115l-0.1-0.3 M556.9,115.5l-0.2-0.5 M557.4,118.7l0,0.3 M557.1,116.5
	l0.1,0.3 M557.1,116.5l-0.1-0.2 M557.2,117l0-0.2 M557.2,117.1l0,0.2 M557,116.2l0-0.1 M557.2,117l0,0.1 M557,115.9l0.1,0.2
	 M556.9,115.8l-0.1-0.2 M557.4,118.6L557.4,118.6 M557,115.9L557,115.9 M557.4,118.4l-0.1-1 M557.4,119.2l0-0.2 M557.4,119.2v0.1
	 M557.4,118.6l0-0.2 M557.4,120.6l0-0.5l0-0.1l0-0.2l0-0.1l0-0.4 M394.8,115.6l0-0.6 M557.4,120.7l0,0.4 M543.6,78.6h0.8
	 M494.5,290.8L494.5,290.8c0.1,0,0.3-0.1,0.4-0.2 M411.3,258.8L411.3,258.8c0.1,0.2,0.2,0.3,0.3,0.5 M542.8,250.8l-0.2,0.4
	 M543.3,249.4l0.1-0.3 M402.1,231.8l0-0.5 M410.9,258l-0.2-0.3 M543.1,248.7l0.2,0.8 M551.1,206.3l-1.7,17.1 M554.7,162.6l-0.5,7.1
	l-0.7,8.3l-0.6,7l-0.7,8l-0.6,6.9l-0.5,5.9 M780.7,79.5L780.7,79.5 M719.2,79.1l0-0.5 M724.5,78.6l0,0.9 M808.9,78.6h1 M788.9,231.1
	l1.1,0.2 M690.1,78.6l-0.1-3.7 M749.7,206.3L749.7,206.3c0.1,0,0.2-0.1,0.3-0.2 M766.6,114.7L766.6,114.7c0.3-0.1,0.4-0.3,0.4-0.6
	c0-0.4-0.3-0.7-0.7-0.7 M748.8,205.9L748.8,205.9c0,0.1,0.1,0.1,0.1,0.2 M756.1,120.1l0.1-0.2 M756.3,119.7L756.3,119.7
	c0,0.1-0.1,0.2-0.1,0.3 M756.6,119.3l0.1-0.1 M756,120.6L756,120.6 M756.9,119l0.1-0.1 M749.5,243.3L749.5,243.3c-0.2,0-0.4,0-0.5,0
	 M757.3,118.7L757.3,118.7 M775.9,249.2l0.1,0.3 M769.7,276.7L769.7,276.7c0.1-0.4,0.1-0.8,0.1-1.2 M776.6,250.8l0.2,0.4
	 M763.8,115.8l-1.3,0.5c-0.9,0.3-1.7,0.7-2.6,1.1l-0.1,0.1 M765.9,115l0.8-0.3 M764.3,115.5l1.4-0.5 M763.8,115.8l0.3-0.1
	 M724.5,80.3L724.5,80.3C724.5,80.2,724.5,80.2,724.5,80.3 M719.2,80.2L719.2,80.2c0,0,0-0.1,0-0.1 M779.7,78.6l0,0.5 M690.1,78.6
	h-1 M710,231.1l-1.1,0.2 M808.9,78.6l0.1-3.7 M748.9,206L748.9,206c0.1,0.2,0.3,0.3,0.5,0.3c0.1,0,0.1,0,0.2,0 M732.5,113.4
	L732.5,113.4c-0.4,0-0.7,0.3-0.7,0.7c0,0.3,0.2,0.5,0.4,0.6 M750,206L750,206c0-0.1,0.1-0.1,0.1-0.2 M742.8,120.1l-0.1-0.1
	 M742.8,120L742.8,120c0-0.1-0.1-0.2-0.1-0.3 M742.4,119.3l-0.1-0.1 M742.9,120.6L742.9,120.6 M741.9,118.8l0.1,0.1 M750,243.3
	L750,243.3c-0.2,0-0.4,0-0.6,0 M722.9,249.4l0.1-0.3 M729.1,275.5l0.1,0.9l0,0.2 M722.3,250.8l-0.2,0.4 M735.1,115.8l1.3,0.5
	c0.9,0.3,1.7,0.7,2.6,1.1l0.1,0.1 M733.1,115l-0.8-0.3 M734.6,115.5l-1.4-0.5 M734.8,115.6l0.4,0.1 M219.7,73.1h-26.5 M292.1,73.1
	h-26.5 M292,74.9h43 M219.6,74.9h46.1 M150.3,74.9h43 M219.5,77.4h-26.1 M291.9,77.4h-26.1 M193.6,79.9h-41.8 M266,79.9h-46.6
	 M333.5,79.9h-41.8 M219.2,82.6h-25.5 M291.6,82.6h-25.5 M266.5,90.5h24.7 M194.1,90.5h24.7 M333.5,79.9l0.4,0 M325.1,181.1l1.8-17
	l1.6-17l1.5-17l1.3-17l1.2-17l1-16.3 M318.8,231.3L321,215l2.1-17l2-17 M334.8,78.6l0.2-3.7 M262.2,111.6h-39 M268.5,115.5h-51.7
	 M291.2,90.5l0.9-17.4 M266.5,90.5l-0.9-17.4 M247.9,228v3.9 M242.7,291v-34.1 M242.7,74.9v36.6 M242.7,158.9v10.5 M242.7,232.2
	v-9.4 M237.4,232V228 M218.8,90.5l0.9-17.4 M194.1,90.5l-0.9-17.4 M217.8,231.3h-51.3 M333.9,79.8l0.2-0.1c0.4-0.2,0.7-0.6,0.8-1.1
	l0,0 M166.5,231.3l0.3,1.9c4.8,26.8,35.7,49.2,60.7,55.8l0.8,0.2 M150.3,74.9l0.2,3.7 M151.9,79.9l1,16.3
	c2.5,39.7,6.4,79.4,11.5,118.9l2.2,16.3 M150.5,78.6L150.5,78.6c0.1,0.7,0.5,1.1,1.1,1.2l0.2,0 M230.6,289.7l-2.4-0.5 M257.1,289.1
	l-2.3,0.5 M257.1,289.1l0.8-0.2c25-6.6,55.9-28.9,60.7-55.8l0.3-1.9 M230.6,289.7l1.6,0.3l1.9,0.3l1.9,0.3l1.9,0.2 M237.9,290.8
	l1.9,0.1l1.8,0.1l1.1,0 M242.7,291l1.2,0c3.1-0.1,6.3-0.4,9.4-1l1.6-0.3 M494.8,290.7l1.2-0.6 M495.9,290.1l1.1-0.6 M497.1,289.6
	l0.7-0.4c10.4-5.4,22.3-13,29.9-22l0.2-0.3 M556.7,115L556.7,115 M387.4,74.9h190.9 M578.2,76.3H545 M577.5,76.9h-29.3 M575.3,78.9
	h-9.8 M555.4,79.9H397.5 M557.3,117.4L557.3,117.4 M556.9,115.6L556.9,115.6 M379.6,82.6h1 M398,90.5h-11.8 M577.5,76.9l0.1,0
	c0.3,0,0.5-0.3,0.5-0.5l0-0.1 M578.2,76.3l0.1-1.4 M575.5,76.9l-0.2,2 M551.2,204.4l0-0.1 M551.1,206.3l0-0.3 M557,126.6l0.3-5.5
	 M556.7,113.4h1.4 M560.6,76.9l-5.1,4 M555.3,80.4l4.5-3.5 M563.4,76.9l-6.5,4 M562.4,76.9l-5.7,3.4 M566.2,76.9l-8.2,3.9 M565,76.9
	l-7.1,3.4 M393.9,109.7L393.9,109.7c0.3,0.8,0.4,1.7,0.6,2.5l0.1,0.4 M571.8,76.9l-12.3,3.9 M570.1,76.9l-6.4,2 M569,76.9l-10.1,3.9
	 M567.6,76.9l-7.3,2.8 M394.5,113l0.1,0.5 M394.5,112.6l0.1,0.5 M394.7,115.4l1.6,28.3 M396.4,143.8L398,171 M398,171l1.6,25.6
	 M394.7,114.9l0,0.8 M399.7,196.6l2.3,34.7 M394.7,114.4l0,0.5 M402,231.3l0.1,1.2c0.8,8.2,3.6,16.1,7.5,23.3l0.4,0.7 M394.6,113.9
	l0,0.5 M394.6,113.5l0.1,0.5 M386.2,90.5V77.4 M410,256.5l0.6,1.1 M410,256.5l1.3,2.3 M410.6,257.5l0.7,1.3 M381.6,81.6v-4.3
	 M379.6,77.4v5.3 M380.6,82.6l1-1 M785.9,280.2l2.6-1.5c16.5-9.8,33.2-25.9,36.8-45.5l0.3-1.9 M772.4,73.1h26.5 M700,73.1h26.5
	 M657.1,74.9h184.7 M808.1,76.3H690.9 M803.5,76.9H695.5 M754.7,78.9h-10.5 M718.2,79.9h-59.6 M723.4,79.9h-4.2 M728.7,79.9h-4.2
	 M734,79.9h-4.2 M739.2,79.9H735 M758.6,79.9h-18.3 M763.9,79.9h-4.2 M769.2,79.9H765 M774.4,79.9h-4.2 M779.7,79.9h-4.2
	 M840.3,79.9h-59.6 M840.3,79.9l0.4,0 M825.6,231.3l2.2-16.3c5.1-39.5,8.9-79.2,11.5-118.9l1-16.3 M841.6,78.6l0.2-3.7 M732.5,113.4
	h33.9 M734.8,115.6l-0.2-0.1 M733.1,115L733.1,115 M798.8,74.9l0.1-1.8 M780.7,76.9v3.5 M779.7,79.1v-2.2 M779.7,80.1v-0.3
	 M775.5,80.3v-3.4 M774.4,80.2v-3.3 M772.5,74.9l-0.1-1.8 M770.2,80.3v-3.4 M769.2,80.2v-3.3 M765,80.3v-3.4 M763.9,80.2v-3.3
	 M769.8,275.4l0,1 M755.9,121.1l-0.3,4.2 M759.7,80.3v-3.4 M758.7,80.3v-3.4 M744,76.9l0.2,2 M754.9,76.9l-0.2,2 M749.5,78.9v164.9
	 M749.5,291v-0.9 M740.3,76.9v3.4 M743.2,125l-0.2-3.9 M729.5,272.8l0.2-0.9c1.6-6.2,11.7-27.8,19.1-28.1l0.6,0 M729.1,275.4
	l0.1-0.9l0.1-0.9l0.2-0.9 M729.1,276.5l0-1 M739.2,76.9v3.4 M735,76.9v3.3 M734,76.9v3.4 M729.8,76.9v3.3 M726.4,74.9l0.1-1.8
	 M728.7,76.9v3.4 M724.5,76.9v3.3 M723.5,76.9v3.4 M719.2,79.8v0.3 M719.2,76.9v2.2 M718.2,80.4v-3.5 M765.9,115L765.9,115
	 M764.3,115.5l-0.2,0.1 M700.1,74.9l-0.1-1.8 M825.6,231.3l-35.6,0 M840.7,79.8l0.2-0.1c0.4-0.2,0.7-0.6,0.8-1.1v0 M749.5,243.8
	l0.5,0c7.6,0,19.2,24.5,19.7,30.8l0.1,0.9 M673.3,231.3l0.3,1.9c3.4,18.7,18.8,34.1,34.3,43.9l2.6,1.6 M657.1,74.9l0.2,3.7
	 M658.7,79.9l1,16.3c2.5,39.7,6.4,79.4,11.5,118.9l2.2,16.3 M657.3,78.6L657.3,78.6c0.1,0.7,0.5,1.1,1.1,1.2l0.2,0 M710.4,278.7
	l2.6,1.5c6.7,3.7,13.8,6.8,21.2,8.8l0.8,0.2 M735,289.1l2.3,0.5 M761.6,289.7l2.4-0.5 M763.9,289.1l0.8-0.2
	c6.5-1.7,12.7-4.3,18.6-7.4l2.6-1.4 M737.3,289.7l1.6,0.3c3.1,0.6,6.2,0.9,9.4,1l1.2,0 M749.5,291l1.1,0c3.2-0.1,6.3-0.4,9.4-1
	l1.6-0.3"/>
</svg>
