<?xml version="1.0" encoding="utf-8"?>
<!-- Generator: Adobe Illustrator 19.1.0, SVG Export Plug-In . SVG Version: 6.00 Build 0)  -->
<svg version="1.1" id="Layer_1" xmlns="http://www.w3.org/2000/svg" xmlns:xlink="http://www.w3.org/1999/xlink" x="0px" y="0px"
	 viewBox="-36 211.5 718 190.5" style="enable-background:new -36 211.5 718 190.5;" xml:space="preserve">
<style type="text/css">
	.st0{fill:none;stroke:#000000;stroke-width:0.36;stroke-linejoin:bevel;stroke-miterlimit:10;}
	.st1{opacity:8.000000e-02;fill:none;stroke:#000000;stroke-width:0.36;stroke-linejoin:bevel;stroke-miterlimit:10;}
	.st2{opacity:8.000000e-02;fill:none;stroke:#000000;stroke-width:0.72;stroke-linejoin:bevel;stroke-miterlimit:10;}
</style>
<line class="st0" x1="-491.9" y1="562.8" x2="-488.4" y2="562.8"/>
<polyline class="st1" points="67.6,295.1 67.9,294.7 68.4,294.3 68.9,294.3 69.4,294.7 69.7,295.1 69.7,296 69.4,296.4 68.9,296.9 
	68.4,297.3 67.9,298.2 67.6,299.5 69.7,299.5 "/>
<path class="st1" d="M72.6,299.5l-0.5-0.4l-0.3-0.4l-0.3-0.4v-0.4l0.3-0.4l0.3-0.4l0.5-0.4h0.5l0.5,0.4c0.8,1.4,0.8,0.8,0,2.2
	l-0.5,0.4h-0.5"/>
<polyline class="st1" points="72.6,296.4 72.1,296 71.8,295.6 71.8,295.1 72.1,294.7 72.6,294.3 73.1,294.3 73.6,294.7 73.9,295.1 
	73.9,295.6 73.6,296 73.1,296.4 "/>
<polyline class="st1" points="76.2,294.7 76.8,294.3 77.3,294.3 77.8,294.7 78.1,295.1 78.1,295.6 77.8,296 77.3,296.4 77.8,296.9 
	78.1,297.3 78.3,297.7 78.3,298.2 78.1,298.6 77.8,299.1 77.3,299.5 76.8,299.5 76.2,299.1 76,298.6 "/>
<line class="st1" x1="76.8" y1="296.4" x2="77.3" y2="296.4"/>
<polyline class="st1" points="72.8,203.8 73.9,210 71.8,210 72.8,203.8 "/>
<polyline class="st1" points="72.8,390 71.8,383.7 73.9,383.7 72.8,390 "/>
<polyline class="st1" points="343.9,296.7 344.4,296.2 344.9,296.2 345.5,296.7 345.7,297.1 345.7,297.5 345.5,298 344.9,298.4 
	345.5,298.8 345.7,299.3 346,299.7 346,300.2 345.7,300.6 345.5,301 344.9,301.5 344.4,301.5 343.9,301 343.6,300.6 "/>
<line class="st1" x1="344.4" y1="298.4" x2="344.9" y2="298.4"/>
<path class="st1" d="M348.9,301.5l-0.5-0.4c-0.8-1-0.8-3.3,0-4.4l0.5-0.4l0.5,0.4c0.8,1,0.8,3.3,0,4.4L348.9,301.5"/>
<polyline class="st1" points="344,362.9 344.2,362.5 344.8,362 345.3,362 345.8,362.5 346.1,362.9 346.1,363.8 345.8,364.2 
	345.3,364.7 344.8,365.1 344.2,366 344,367.3 346.1,367.3 "/>
<polyline class="st1" points="348.9,199.5 349.9,205.8 347.8,205.8 348.9,199.5 "/>
<polyline class="st1" points="348.9,398.2 347.8,391.9 349.9,391.9 348.9,398.2 "/>
<polyline class="st1" points="187.7,418.6 187.9,418.1 188.5,417.7 189,417.7 189.5,418.1 189.8,418.6 189.8,419.4 189.5,419.9 
	189,420.3 188.5,420.7 187.9,421.6 187.7,422.9 189.8,422.9 "/>
<polyline class="st1" points="192.9,422.9 193.2,420.7 193.4,419.4 193.7,418.6 194,417.7 191.9,417.7 "/>
<path class="st1" d="M196,421.2l0.3-0.9l0.8-0.4l0.8,0.4l0.3,0.9l-0.3,0.9l-0.3,0.4l-0.5,0.4l-0.5-0.4c-0.8-1-0.8-3.3,0-4.4l0.5-0.4
	l0.5,0.4l0.3,0.4"/>
<polyline class="st1" points="201.3,422.9 201,422.9 201,422.5 201.3,422.9 "/>
<path class="st1" d="M205.2,422.9l-0.5-0.4l-0.3-0.4l-0.3-0.4v-0.4l0.3-0.4l0.3-0.4l0.5-0.4h0.5l0.5,0.4c0.8,1.3,0.8,0.9,0,2.2
	l-0.5,0.4h-0.5"/>
<polyline class="st1" points="205.2,419.9 204.7,419.4 204.4,419 204.4,418.6 204.7,418.1 205.2,417.7 205.7,417.7 206.2,418.1 
	206.5,418.6 206.5,419 206.2,419.4 205.7,419.9 "/>
<polyline class="st1" points="106,420.3 112.3,419.2 112.3,421.3 106,420.3 "/>
<polyline class="st1" points="288.1,420.3 281.9,421.3 281.9,419.2 288.1,420.3 "/>
<path class="st1" d="M365,332.1l0.3-0.9l0.8-0.4l0.8,0.4l0.3,0.9l-0.3,0.9l-0.3,0.4l-0.5,0.4l-0.5-0.4c-0.8-1-0.8-3.3,0-4.4l0.5-0.4
	l0.5,0.4l0.3,0.4"/>
<polyline class="st1" points="366.1,315.5 367.1,321.7 365,321.7 366.1,315.5 "/>
<polyline class="st1" points="366.1,346.9 365,340.6 367.1,340.6 366.1,346.9 "/>
<polyline class="st1" points="496.7,394.4 496.7,389.1 498.8,394.4 498.8,389.1 "/>
<polyline class="st1" points="502.9,393.5 502.7,393.9 502.1,394.4 501.6,394.4 501.1,393.9 500.8,393.5 500.6,393 500.3,391.7 
	500.6,390.4 500.8,390 501.1,389.6 501.6,389.1 502.1,389.1 502.7,389.6 503.2,390.4 503.5,391.7 503.2,393 502.9,393.5 "/>
<polyline class="st1" points="504.8,394.4 504.8,389.1 506.1,393.5 507.4,389.1 507.4,394.4 "/>
<line class="st1" x1="510.2" y1="389.1" x2="510.2" y2="394.4"/>
<polyline class="st1" points="513.4,394.4 513.4,389.1 515.5,394.4 515.5,389.1 "/>
<polyline class="st1" points="517.3,394.4 518.6,389.1 519.9,394.4 "/>
<line class="st1" x1="517.8" y1="392.6" x2="519.4" y2="392.6"/>
<polyline class="st1" points="521.7,389.1 521.7,394.4 523.8,394.4 "/>
<line class="st1" x1="484.1" y1="399.6" x2="486.2" y2="399.6"/>
<line class="st1" x1="485.2" y1="397.8" x2="485.2" y2="401.3"/>
<polyline class="st1" points="488.6,397.4 489.1,397 489.6,397 490.1,397.4 490.4,397.8 490.4,398.3 490.1,398.7 489.6,399.1 
	490.1,399.6 490.4,400 490.7,400.4 490.7,400.9 490.4,401.3 490.1,401.7 489.6,402.2 489.1,402.2 488.6,401.7 488.3,401.3 "/>
<line class="st1" x1="489.1" y1="399.1" x2="489.6" y2="399.1"/>
<path class="st1" d="M492.5,397h1c1.7,1.2,1.7,4,0,5.2h-1V397"/>
<polyline class="st1" points="498.8,402.2 496.7,402.2 496.7,397 498.8,397 "/>
<line class="st1" x1="496.7" y1="399.6" x2="498" y2="399.6"/>
<polyline class="st1" points="501.9,399.6 502.9,399.6 502.9,401.3 502.7,401.7 502.1,402.2 501.6,402.2 501.1,401.7 500.8,401.3 
	500.6,400.9 500.3,399.6 500.6,398.3 500.8,397.8 501.1,397.4 501.6,397 502.1,397 502.7,397.4 502.9,397.8 "/>
<path class="st1" d="M509.2,397h1c1.7,1.2,1.7,4,0,5.2h-1V397"/>
<path class="st1" d="M513.4,402.2V397h1.3c1.2,0.7,1.2,1.9,0,2.6h-1.3"/>
<line class="st1" x1="514.7" y1="399.6" x2="515.5" y2="402.2"/>
<polyline class="st1" points="517.3,402.2 518.6,397 519.9,402.2 "/>
<line class="st1" x1="517.8" y1="400.4" x2="519.4" y2="400.4"/>
<polyline class="st1" points="521.7,402.2 521.7,397 523.8,397 "/>
<line class="st1" x1="521.7" y1="399.6" x2="523" y2="399.6"/>
<line class="st1" x1="525.6" y1="397" x2="528.3" y2="397"/>
<line class="st1" x1="527" y1="397" x2="527" y2="402.2"/>
<polyline class="st1" points="531.1,402.2 530.9,401.7 531.1,401.7 531.1,402.2 530.6,403.1 "/>
<path class="st1" d="M538.4,402.2V397h1.3c1.1,0.7,1.1,1.9,0,2.6h-1.3"/>
<polyline class="st1" points="544.7,402.2 542.6,402.2 542.6,397 544.7,397 "/>
<line class="st1" x1="542.6" y1="399.6" x2="543.9" y2="399.6"/>
<path class="st1" d="M546.8,402.2V397h1.3c1.2,0.7,1.2,1.9,0,2.6h-1.3"/>
<line class="st1" x1="548.1" y1="399.6" x2="548.9" y2="402.2"/>
<polyline class="st1" points="557.2,397.8 557,397.4 556.5,397 555.9,397 555.4,397.4 555.1,397.8 555.1,398.3 555.4,398.7 
	555.9,399.1 556.5,399.6 557,400 557.2,400.4 557.2,401.3 557,401.7 556.5,402.2 555.9,402.2 555.4,401.7 555.1,401.3 554.9,400.9 
	"/>
<line class="st1" x1="560.4" y1="397" x2="560.4" y2="402.2"/>
<path class="st1" d="M563.5,397h1c1.7,1.2,1.7,4,0,5.2h-1V397"/>
<polyline class="st1" points="569.8,402.2 567.7,402.2 567.7,397 569.8,397 "/>
<line class="st1" x1="567.7" y1="399.6" x2="569" y2="399.6"/>
<line class="st1" x1="481" y1="389.1" x2="481" y2="394.3"/>
<polyline class="st1" points="485.2,394.3 484.9,394.3 484.9,393.9 485.2,394.3 "/>
<polyline class="st1" points="490.4,389.1 488.8,389.1 488.6,391.3 489.1,390.9 489.6,390.9 490.1,391.3 490.4,391.7 490.7,392.6 
	490.4,393.5 490.1,393.9 489.6,394.3 489.1,394.3 488.6,393.9 488.3,393.5 "/>
<polyline class="st1" points="451.1,391.7 444.9,392.8 444.9,390.7 451.1,391.7 "/>
<polyline class="st1" points="459,391.7 465.3,390.7 465.3,392.8 459,391.7 "/>
<line class="st0" x1="397.5" y1="133.1" x2="400" y2="133.1"/>
<polyline class="st1" points="512.6,434.5 513.1,435.3 513.4,436.6 513.4,437.5 513.1,438.8 512.6,439.7 "/>
<polyline class="st1" points="509.7,435.3 509.5,434.9 508.9,434.5 508.4,434.5 507.9,434.9 507.6,435.3 507.6,435.8 507.9,436.2 
	508.4,436.6 508.9,437.1 509.5,437.5 509.7,437.9 509.7,438.8 509.5,439.3 508.9,439.7 508.4,439.7 507.9,439.3 507.6,438.8 
	507.4,438.4 "/>
<polyline class="st1" points="503.5,439.7 503.5,434.5 505.5,439.7 505.5,434.5 "/>
<polyline class="st1" points="501.4,438.8 501.1,439.3 500.6,439.7 500.1,439.7 499.5,439.3 499.3,438.8 499,438.4 498.8,437.1 
	499,435.8 499.3,435.3 499.5,434.9 500.1,434.5 500.6,434.5 501.1,434.9 501.4,435.3 501.6,435.8 501.9,437.1 501.6,438.4 
	501.4,438.8 "/>
<line class="st1" x1="496.1" y1="434.5" x2="496.1" y2="439.7"/>
<polyline class="st1" points="493,435.3 492.8,434.9 492.2,434.5 491.7,434.5 491.2,434.9 490.9,435.3 490.9,435.8 491.2,436.2 
	491.7,436.6 492.2,437.1 492.8,437.5 493,437.9 493,438.8 492.8,439.3 492.2,439.7 491.7,439.7 491.2,439.3 490.9,438.8 
	490.7,438.4 "/>
<polyline class="st1" points="486.7,439.7 486.7,434.5 488.8,439.7 488.8,434.5 "/>
<line class="st1" x1="482.6" y1="437.1" x2="483.9" y2="437.1"/>
<polyline class="st1" points="484.7,439.7 482.6,439.7 482.6,434.5 484.7,434.5 "/>
<polyline class="st1" points="479.4,438.8 480.7,434.5 480.7,439.7 "/>
<polyline class="st1" points="478.1,439.7 478.1,434.5 479.4,438.8 "/>
<line class="st1" x1="475.3" y1="434.5" x2="475.3" y2="439.7"/>
<path class="st1" d="M470,434.5h1c1.7,1.2,1.7,4,0,5.2h-1V434.5"/>
<line class="st1" x1="461.4" y1="436.6" x2="463.2" y2="436.6"/>
<polyline class="st1" points="461.4,434.5 461.4,439.7 463.2,439.7 463.5,439.3 463.8,438.8 463.8,437.5 463.5,437.1 463.2,436.6 
	463.5,436.2 463.5,434.9 463.2,434.5 461.4,434.5 "/>
<line class="st1" x1="458.5" y1="434.5" x2="458.5" y2="439.7"/>
<line class="st1" x1="454.6" y1="437.1" x2="455.4" y2="439.7"/>
<path class="st1" d="M453.3,439.7v-5.2h1.3c1.2,0.7,1.2,1.9,0,2.6h-1.3"/>
<polyline class="st1" points="445,434.5 445,439.7 447.1,439.7 "/>
<line class="st1" x1="441.1" y1="437.9" x2="442.6" y2="437.9"/>
<polyline class="st1" points="440.5,439.7 441.8,434.5 443.1,439.7 "/>
<polyline class="st1" points="438.7,438.8 438.4,439.3 437.9,439.7 437.4,439.7 436.9,439.3 436.6,438.8 436.3,438.4 436.1,437.1 
	436.3,435.8 436.6,435.3 436.9,434.9 437.4,434.5 437.9,434.5 438.4,434.9 438.7,435.3 "/>
<line class="st1" x1="433.5" y1="434.5" x2="433.5" y2="439.7"/>
<path class="st1" d="M428.3,439.7v-5.2h1.3c1.1,0.7,1.1,1.9,0,2.6h-1.3"/>
<line class="st1" x1="425.1" y1="437.1" x2="426.2" y2="434.5"/>
<polyline class="st1" points="424.1,434.5 425.1,437.1 425.1,439.7 "/>
<line class="st1" x1="420.9" y1="434.5" x2="420.9" y2="439.7"/>
<line class="st1" x1="419.6" y1="434.5" x2="422.3" y2="434.5"/>
<polyline class="st1" points="417,434.5 416.5,435.3 416.2,436.6 416.2,437.5 416.5,438.8 417,439.7 "/>
<path class="st1" d="M482.3,428.3l-0.5-0.4c-0.8-1-0.8-3.3,0-4.4l0.5-0.4l0.5,0.4c0.8,1,0.8,3.3,0,4.4L482.3,428.3"/>
<path class="st1" d="M478.2,428.3l-0.5-0.4c-0.8-1-0.8-3.3,0-4.4l0.5-0.4l0.5,0.4c0.8,1,0.8,3.3,0,4.4L478.2,428.3"/>
<path class="st1" d="M474,428.3l-0.5-0.4c-0.8-1-0.8-3.4,0-4.4l0.5-0.4l0.5,0.4c0.8,1,0.8,3.3,0,4.4L474,428.3"/>
<polyline class="st1" points="469.8,428.3 469.5,428.3 469.5,427.8 469.8,428.3 "/>
<polyline class="st1" points="466.4,428.3 466.4,423 464.6,426.9 466.9,426.9 "/>
<line class="st1" x1="452" y1="425.6" x2="453.3" y2="425.6"/>
<polyline class="st1" points="454.1,428.3 452,428.3 452,423 454.1,423 "/>
<polyline class="st1" points="447.9,423 447.9,428.3 450,428.3 "/>
<line class="st1" x1="443.9" y1="426.5" x2="445.5" y2="426.5"/>
<polyline class="st1" points="443.4,428.3 444.7,423 446,428.3 "/>
<polyline class="st1" points="441.6,427.4 441.3,427.8 440.8,428.3 440.3,428.3 439.8,427.8 439.5,427.4 439.3,426.9 439,425.6 
	439.3,424.3 439.5,423.9 439.8,423.5 440.3,423 440.8,423 441.3,423.5 441.6,423.9 "/>
<polyline class="st1" points="437.4,423.9 437.2,423.5 436.6,423 436.1,423 435.6,423.5 435.3,423.9 435.3,424.3 435.6,424.8 
	436.1,425.2 436.6,425.6 437.2,426.1 437.4,426.5 437.4,427.4 437.2,427.8 436.6,428.3 436.1,428.3 435.6,427.8 435.3,427.4 
	435.1,426.9 "/>
<line class="st1" x1="475.3" y1="418.7" x2="476.8" y2="418.7"/>
<polyline class="st1" points="474.8,420.4 476.1,415.2 477.4,420.4 "/>
<polyline class="st1" points="462.5,415.2 462.5,420.4 464.6,420.4 "/>
<line class="st1" x1="459.4" y1="415.2" x2="459.4" y2="420.4"/>
<line class="st1" x1="454.4" y1="418.7" x2="456" y2="418.7"/>
<polyline class="st1" points="453.9,420.4 455.2,415.2 456.5,420.4 "/>
<line class="st1" x1="451" y1="415.2" x2="451" y2="420.4"/>
<line class="st1" x1="449.7" y1="415.2" x2="452.3" y2="415.2"/>
<line class="st1" x1="445.8" y1="417.8" x2="447.1" y2="417.8"/>
<polyline class="st1" points="447.9,420.4 445.8,420.4 445.8,415.2 447.9,415.2 "/>
<path class="st1" d="M441.6,415.2h1c1.7,1.2,1.7,4,0,5.2h-1V415.2"/>
<line class="st1" x1="255.1" y1="439.5" x2="257.8" y2="439.5"/>
<line class="st1" x1="220.9" y1="442.1" x2="229.3" y2="442.1"/>
<line class="st1" x1="72.8" y1="203.8" x2="72.8" y2="291.7"/>
<line class="st1" x1="72.8" y1="390" x2="72.8" y2="302.1"/>
<line class="st1" x1="288.1" y1="420.3" x2="210.1" y2="420.3"/>
<line class="st1" x1="106" y1="420.3" x2="184" y2="420.3"/>
<line class="st1" x1="191" y1="464" x2="345" y2="464"/>
<line class="st1" x1="106" y1="284.4" x2="106" y2="424.5"/>
<line class="st1" x1="228.6" y1="390" x2="68.7" y2="390"/>
<line class="st1" x1="288.1" y1="284.4" x2="288.1" y2="424.5"/>
<line class="st1" x1="262.3" y1="203.8" x2="249.7" y2="203.8"/>
<line class="st1" x1="246" y1="203.8" x2="242.4" y2="203.8"/>
<line class="st1" x1="238.7" y1="203.8" x2="226.1" y2="203.8"/>
<line class="st1" x1="222.5" y1="203.8" x2="218.8" y2="203.8"/>
<line class="st1" x1="215.2" y1="203.8" x2="202.5" y2="203.8"/>
<line class="st1" x1="198.9" y1="203.8" x2="195.3" y2="203.8"/>
<line class="st1" x1="191.6" y1="203.8" x2="179" y2="203.8"/>
<line class="st1" x1="175.4" y1="203.8" x2="171.7" y2="203.8"/>
<line class="st1" x1="168.1" y1="203.8" x2="155.4" y2="203.8"/>
<line class="st1" x1="151.8" y1="203.8" x2="148.2" y2="203.8"/>
<line class="st1" x1="144.5" y1="203.8" x2="131.9" y2="203.8"/>
<line class="st1" x1="129.8" y1="203.8" x2="68.7" y2="203.8"/>
<line class="st1" x1="248.5" y1="199.5" x2="353" y2="199.5"/>
<line class="st1" x1="348.9" y1="199.5" x2="348.9" y2="293.6"/>
<line class="st1" x1="348.9" y1="398.2" x2="348.9" y2="304.1"/>
<line class="st1" x1="366.1" y1="315.5" x2="366.1" y2="326"/>
<line class="st1" x1="366.1" y1="346.9" x2="366.1" y2="336.4"/>
<line class="st1" x1="451.1" y1="391.7" x2="434.4" y2="391.7"/>
<line class="st1" x1="459" y1="391.7" x2="476.3" y2="391.7"/>
<line class="st1" x1="448.2" y1="346.9" x2="361.9" y2="346.9"/>
<line class="st1" x1="451.1" y1="349" x2="451.1" y2="395.9"/>
<line class="st1" x1="392.3" y1="315.5" x2="361.9" y2="315.5"/>
<line class="st1" x1="459" y1="348.7" x2="459" y2="395.9"/>
<path class="st2" d="M192.5,232.3L192.5,232.3c-0.2,0-0.4-0.1-0.7-0.1l0,0"/>
<path class="st2" d="M201.6,232.3l-0.9,0.1c-2.4,0.3-4.9,0.3-7.3,0l-0.9-0.1"/>
<path class="st2" d="M202.3,232.2L202.3,232.2c-0.2,0-0.3,0.1-0.4,0.1l0,0"/>
<path class="st2" d="M202.3,231L202.3,231c-3.2,0.6-7.3,0.6-10.5,0l0,0"/>
<path class="st2" d="M170.5,219.8l0.4,0.7c0.7,1.2,1.5,2.3,2.4,3.4l0.5,0.6"/>
<polyline class="st2" points="169.5,217.5 169.5,217.6 169.8,218.4 170.2,219.2 170.5,219.8 "/>
<path class="st2" d="M173.8,224.5l0.5,0.5c4.3,3.6,9.9,6.1,15.5,7.2l2,0.3"/>
<path class="st2" d="M202.6,232.6l1.7-0.3c5.6-1.1,11.2-3.6,15.6-7.3l0.5-0.5"/>
<path class="st2" d="M220.3,224.5l0.5-0.6c1.4-1.7,2.6-3.6,3.6-5.7l0.3-0.8"/>
<path class="st2" d="M197.1,216.1h-2c-5.2,0-10.4,0.2-15.6,0.7l-1.9,0.2"/>
<path class="st2" d="M216.6,216.9l-1.9-0.2c-5.2-0.4-10.4-0.6-15.6-0.7h-2"/>
<path class="st2" d="M139.7,361.3l1,0.6c16.1,9.4,33.7,15,52.4,15.7l4,0.1"/>
<path class="st2" d="M168.6,360.5L168.6,360.5c0,0.4,0.1,0.6,0.1,0.9v0.1"/>
<path class="st2" d="M168.6,360.5l-0.4-0.1c-2.9-0.5-5.8-1.2-8.8-1.7l-1-0.1"/>
<path class="st2" d="M158.5,358.7l-1.4,0.1c-4.2,0.4-13.2-0.3-16.7,1.9l-0.6,0.6"/>
<path class="st2" d="M225.5,361.5L225.5,361.5c0-0.3,0-0.6,0.1-0.9v-0.1"/>
<path class="st2" d="M197.1,377.6l4-0.1c17-0.6,33.1-5.3,48.1-13.3l5.3-3"/>
<path class="st2" d="M254.5,361.3l-0.6-0.6c-3.6-2.2-12-1.6-16.2-1.9l-1.9-0.1"/>
<path class="st2" d="M235.7,358.7h-0.5c-2.9,0.4-5.8,1.1-8.6,1.6l-1,0.2"/>
<path class="st2" d="M232.2,325.9H232c-0.9,0-1.8,0-2.8,0h-0.3"/>
<path class="st2" d="M201.1,309.1h2.2c9.3,0,18.6-0.1,27.8-0.2l3.3-0.1"/>
<path class="st2" d="M256.3,362.5L256.3,362.5c-0.2,0.2-0.4,0.3-0.5,0.4h-0.1"/>
<path class="st2" d="M228.9,327.2h0.2c0.9,0,1.8,0,2.7,0h0.3"/>
<path class="st2" d="M197.1,233.3l2-0.1c7.8-0.4,15.9-3.3,21.9-8.4l0.7-0.6"/>
<path class="st2" d="M197.1,233.3v7.6c0,20.2,0,40.4,0,60.6v7.6"/>
<path class="st2" d="M259.6,326.2l-2.4-0.1c-3.5-0.1-7-0.1-10.6-0.1H244h-2.6h-2.6h-2.6h-2.6"/>
<path class="st2" d="M233.5,327.2h0.1c7.7-0.1,15.4-0.1,23.1-0.2l2.6-0.1"/>
<path class="st2" d="M236.2,358.4l-1.1,0.1c-2.8,0.5-5.7,1.1-8.5,1.6l-1.1,0.2"/>
<path class="st2" d="M225.8,266.7v-1.1c0-11.8-0.1-23.6-0.2-35.4l-0.1-4.1"/>
<path class="st2" d="M268.3,270.1l-2.4-0.1c-11-0.2-22-0.2-33.1-0.3h-3.9"/>
<path class="st2" d="M229,271.1L229,271.1c11.9,0,23.7-0.1,35.5-0.3l3.9-0.1"/>
<path class="st2" d="M224.8,225.9l-0.1,1.7c-0.2,11.6-0.2,23.2-0.3,34.9v4.1"/>
<path class="st2" d="M224.7,360.7L224.7,360.7c-0.1,0-0.1,0-0.2,0l0,0"/>
<path class="st2" d="M224.7,360.3L224.7,360.3c0,0.1,0,0.2,0,0.3l0,0"/>
<path class="st2" d="M235.4,217.1L235.4,217.1c-1.3-0.1-2.9-0.5-4.1-0.9l0,0"/>
<path class="st2" d="M255,360.9l3.4-3.7l3.3-4c19.6-25.3,30.2-65.6,20.2-96.6l-0.1-0.2l-1.5-4c-12.3-30.5-41.5-37.7-71.4-39.3
	l-7.6-0.3h-4.2"/>
<path class="st2" d="M216.7,215.3l-1.3-0.1c-5.4-0.5-10.9-0.7-16.4-0.7h-2"/>
<path class="st2" d="M226.2,217L226.2,217c-2.4-0.9-6-1.2-8.5-1.6l-1-0.1"/>
<path class="st2" d="M221.6,224.2l0.5-0.6c1.5-1.8,2.8-3.8,3.8-5.9l0.4-0.8"/>
<path class="st2" d="M260.6,246l2,3.2c18.6,31.9,3.9,83.4-23.1,106.5l-3.3,2.7"/>
<path class="st2" d="M221.6,224.2l1.1,0.2c14.1,2.5,26.4,7.1,35.6,18.6l2.2,3"/>
<path class="st2" d="M255,360.9l-0.6-0.6c-3.6-2.3-12-1.5-16.2-1.9l-1.9-0.1"/>
<path class="st2" d="M134.9,326.9l2.5,0.1c6.9,0.1,13.8,0.2,20.7,0.2h2.6"/>
<path class="st2" d="M160.6,325.9h-0.2c-7.7,0.1-15.5,0.1-23.2,0.2l-2.6,0.1"/>
<path class="st2" d="M172.6,224.2l0.7,0.6c5.8,4.9,13.6,7.8,21.2,8.4l2.7,0.1"/>
<path class="st2" d="M168.6,360.3l-0.4-0.1c-3.1-0.5-6.1-1.3-9.2-1.8l-1.1-0.1"/>
<path class="st2" d="M165.3,269.8L165.3,269.8c-11.9,0-23.7,0.1-35.5,0.3l-3.9,0.1"/>
<path class="st2" d="M168.7,226.1l-0.1,1.8c-0.2,11.6-0.2,23.2-0.3,34.8v4.1"/>
<path class="st2" d="M169.7,266.6v-1.2c0-11.8-0.1-23.6-0.2-35.4l-0.1-4.1"/>
<path class="st2" d="M125.7,270.8l2.4,0.1c11,0.2,22.1,0.2,33.1,0.3h3.9"/>
<path class="st2" d="M169.7,360.7L169.7,360.7c-0.1,0-0.1,0-0.2,0l0,0"/>
<path class="st2" d="M169.5,360.7L169.5,360.7c0-0.1,0-0.2,0-0.3l0,0"/>
<path class="st2" d="M163,216.2L163,216.2c-1.2,0.4-2.9,0.8-4.1,0.9l0,0"/>
<path class="st2" d="M172.6,224.2l-1.1,0.2l-5,1c-24.6,5.1-38.5,21.3-42.4,45.7l-0.5,4.6l-0.3,4.8c-0.8,25.3,9.9,54.5,28.1,72.4
	l3.3,3l3.3,2.7"/>
<path class="st2" d="M167.9,217l0.1,0.1c1,2.3,2.4,4.5,4,6.5l0.6,0.7"/>
<path class="st2" d="M177.4,215.3h-0.5c-2.7,0.3-6.4,0.7-9,1.6v0.1"/>
<polyline class="st2" points="181.4,215 179.4,215.1 177.4,215.3 "/>
<path class="st2" d="M197.1,214.5h-0.6c-4.4,0-8.8,0.1-13.2,0.4l-2,0.1"/>
<path class="st2" d="M197.1,212.8h-4.2l-7.6,0.3c-29.9,1.7-59.2,8.8-71.4,39.3l-1.5,4l-0.1,0.2c-10,31,0.6,71.3,20.2,96.6l3.3,4
	l3.4,3.7"/>
<path class="st2" d="M157.9,358.4l-1.9,0.1c-4.1,0.3-12.8-0.4-16.3,1.9l-0.6,0.6"/>
<path class="st2" d="M233.6,325.9l0.1-0.8c0.4-4.9,0.6-9.8,0.8-14.6v-1.7"/>
<path class="st2" d="M234.4,308.8l-0.1,0.9c-0.4,4.9-1.1,9.7-1.8,14.5l-0.3,1.7"/>
<path class="st2" d="M224.6,350.4l-0.1,0.2c-0.6,0.9-1.4,1.8-2.2,2.6l-0.3,0.3"/>
<path class="st2" d="M224.6,350.4v0.5c0,2.6,0,5.3,0.1,7.9v0.9"/>
<path class="st2" d="M225.6,358.8l1.4-2.6c3.7-7.8,5.2-17.2,6.1-25.7l0.3-3.3"/>
<path class="st2" d="M232,327.2l-0.1,0.7c-1.1,6.2-2.5,13-5.2,18.8l-1,2"/>
<path class="st2" d="M225.6,358.8v-0.4c0-2.9,0-5.8,0.1-8.7v-1"/>
<path class="st2" d="M197.1,360.4h0.2c7.3-0.1,16.8-1.3,22.9-5.6l1.8-1.4"/>
<path class="st2" d="M197.1,367.1L197.1,367.1c8.7,0,16.9-1.8,24.8-5.2l2.6-1.2"/>
<path class="st2" d="M224.7,359.8L224.7,359.8c0,0.2,0,0.3,0,0.5v0.1"/>
<path class="st2" d="M224.7,359.8l-0.3-0.6c-0.7-1.7-1.4-3.4-2.1-5.1l-0.3-0.6"/>
<path class="st2" d="M169.5,360.3L169.5,360.3c0-0.2,0-0.3,0-0.5v-0.1"/>
<path class="st2" d="M169.7,360.7l2.6,1.1c7.1,3,14.3,4.8,22,5.2l2.8,0.1"/>
<path class="st2" d="M172.1,353.4l1.8,1.4c5.6,3.9,13.8,5.2,20.5,5.5l2.6,0.1"/>
<line class="st2" x1="159.9" y1="310.5" x2="159.7" y2="308.8"/>
<path class="st2" d="M161.9,325.9l-0.3-1.6c-0.6-4-1.2-8.1-1.6-12.1l-0.2-1.7"/>
<path class="st2" d="M159.7,308.8v0.9c0.1,4.8,0.4,9.7,0.7,14.5l0.1,1.7"/>
<path class="st2" d="M172.1,353.4l-0.3,0.6c-0.7,1.7-1.4,3.4-2.1,5.1l-0.3,0.6"/>
<path class="st2" d="M172.1,353.4l-0.1-0.1c-0.8-0.8-1.6-1.7-2.2-2.6l-0.2-0.3"/>
<path class="st2" d="M169.5,359.8v-0.4c0-2.7,0-5.4,0.1-8.1v-0.9"/>
<path class="st2" d="M168.5,348.7l-0.7-1.3c-2.7-5.4-4.1-12-5.2-18l-0.4-2.2"/>
<path class="st2" d="M160.7,327.2l0.3,2.8c0.9,8.7,2.4,18.2,6.2,26.2l1.4,2.6"/>
<path class="st2" d="M168.5,348.7v0.6c0,2.8,0,5.7,0,8.5v1"/>
<path class="st2" d="M197.1,309.1v0.6c0,1.6,0,3.2,0,4.8v0.6"/>
<path class="st2" d="M159.7,308.8h1.2c10.8,0.2,21.6,0.3,32.4,0.3h3.7"/>
<path class="st2" d="M165.2,325.9H165c-0.9,0-1.8,0-2.7,0H162"/>
<path class="st2" d="M197.1,358.4v0.2c0,0.5,0,1,0,1.5v0.2"/>
<path class="st2" d="M255.7,363l-2.6,1.5c-15.6,8.8-32.6,14.2-50.6,15.1l-5.5,0.1"/>
<path class="st2" d="M162.2,327.2h0.2c0.9,0,1.8,0,2.7,0h0.3"/>
<path class="st2" d="M197.1,379.7l-5.5-0.1c-17.9-0.9-35-6.2-50.6-15.1l-2.6-1.5"/>
<path class="st2" d="M224.7,217.5L224.7,217.5c-2-0.6-5.2-0.6-7.3-0.6h-0.8"/>
<path class="st2" d="M177.6,216.9h-0.4c-2.3,0-5.5-0.1-7.7,0.6v0.1"/>
<path class="st2" d="M221.6,224.2h-0.1c-0.4,0-0.7,0.1-1,0.3l-0.1,0.1"/>
<path class="st2" d="M172.6,224.2h0.1c0.4,0,0.7,0.1,1,0.3l0.1,0.1"/>
<path class="st2" d="M197.1,233.3L197.1,233.3c0-0.1,0-0.2,0-0.3l0,0"/>
<polyline class="st2" points="185.2,211.8 192.9,211.5 197.1,211.5 "/>
<path class="st2" d="M138.4,362l-3.4-3.8l-3.3-4c-19.2-24.7-29.6-63-21.8-93.6l1.3-4.3l0.1-0.3c9.6-28.6,32.6-39.5,60.9-43l6.6-0.7
	l6.6-0.4"/>
<path class="st2" d="M197.1,211.5h4.2l7.7,0.3c30.5,1.7,60.1,9.1,72.6,40.1l1.5,4.1l0.1,0.3c10.1,31.4-0.6,72.3-20.6,97.9l-3.3,4
	l-3.4,3.8"/>
<path class="st2" d="M255.3,362.4l-1.2,0.7c-16.3,9.4-34,15.1-52.9,15.8L197,379"/>
<path class="st2" d="M197.1,378.9l-4.2-0.1c-18.9-0.7-36.6-6.4-52.9-15.8l-1.2-0.7"/>
<path class="st2" d="M138.3,362.1l-3.4-3.8l-3.3-4.1c-19.3-24.9-29.8-63.5-21.7-94.3l1.3-4.3l1.5-4.1c12.3-30.1,40.8-37.8,70.7-39.7
	l7.5-0.3l6.2-0.1"/>
<path class="st2" d="M138.4,362L138.4,362C138.3,362,138.3,362,138.4,362L138.4,362"/>
<path class="st2" d="M197.1,211.4l6.2,0.1l7.5,0.3c29.9,1.9,58.5,9.7,70.8,39.9l1.5,4.1l1.3,4.3c8.1,30.8-2.4,69.4-21.7,94.3
	l-3.3,4.1l-3.4,3.8"/>
<path class="st2" d="M255.9,362L255.9,362C255.8,362,255.9,362,255.9,362L255.9,362"/>
<polyline class="st2" points="255.9,362.1 255.9,362.1 255.9,362 "/>
<path class="st2" d="M255.4,362.4l-1.2,0.7c-16.3,9.4-34,15.1-52.9,15.8l-4.2,0.1"/>
<path class="st2" d="M197.1,379L197.1,379L197.1,379v-0.1"/>
<path class="st2" d="M255.4,362.4L255.4,362.4C255.3,362.4,255.4,362.4,255.4,362.4L255.4,362.4"/>
<path class="st2" d="M197.1,379l-4.2-0.1c-18.9-0.7-36.6-6.4-52.9-15.8l-1.2-0.7"/>
<path class="st2" d="M138.8,362.4L138.8,362.4L138.8,362.4L138.8,362.4"/>
<path class="st2" d="M225.6,360.3L225.6,360.3c0,0.1,0,0.1,0,0.2l0,0"/>
<path class="st2" d="M168.6,360.5L168.6,360.5c0-0.1,0-0.1,0-0.2l0,0"/>
<path class="st2" d="M155.6,270.9h-0.4c-1.8,0-3.7,0-5.5,0H149"/>
<path class="st2" d="M149.1,270.1h0.7c1.8,0,3.5,0,5.2,0h0.7"/>
<path class="st2" d="M168.6,257.1v-0.4c0-1.8,0-3.7,0-5.5v-0.7"/>
<path class="st2" d="M169.4,250.5v0.7c0,1.7,0,3.5,0,5.2v0.7"/>
<path class="st2" d="M224.7,257.1v-0.4c0-1.8,0-3.7,0-5.5v-0.7"/>
<path class="st2" d="M225.5,250.5v0.7c0,1.7,0,3.5,0,5.2v0.7"/>
<path class="st2" d="M238.5,270h0.4c1.8,0,3.7,0,5.5,0h0.7"/>
<path class="st2" d="M245.1,270.8h-0.7c-1.8,0-3.5,0-5.2,0h-0.7"/>
<path class="st2" d="M238.5,326.2h0.4c1.8,0,3.7,0,5.5,0h0.7"/>
<path class="st2" d="M245.1,327h-0.7c-1.7,0-3.5,0-5.2,0h-0.7"/>
<path class="st2" d="M225.6,340v0.4c0,1.8,0,3.7,0,5.5v0.7"/>
<path class="st2" d="M224.8,346.5v-0.7c0-1.7,0-3.5,0-5.2v-0.7"/>
<polyline class="st2" points="169.4,343.8 169.4,344.4 169.4,344.6 169.4,345.2 169.4,345.9 169.4,346.5 "/>
<path class="st2" d="M169.5,340v0.4c0,0.9,0,1.8,0,2.7v0.7"/>
<path class="st2" d="M168.6,346.5v-0.7c0-1.7,0-3.5,0-5.2v-0.7"/>
<path class="st2" d="M155.6,327h-0.4c-1.8,0-3.7,0-5.5,0H149"/>
<path class="st2" d="M149.1,326.2h0.7c1.8,0,3.5,0,5.2,0h0.7"/>
<path class="st2" d="M138.4,363L138.4,363c-0.2-0.2-0.4-0.3-0.6-0.4l-0.1-0.1"/>
<path class="st2" d="M137.8,362.5l-3.4-3.7l-3.3-4c-18.9-24.3-29.2-60.9-22.9-91.2l1.1-4.5l0.8-2.7c11.2-34.8,41.8-43.7,75.2-45.5
	l7.6-0.2h4.1"/>
<path class="st2" d="M197.1,210.7h4.1l7.6,0.2c31.3,1.7,61.3,9.5,73.7,41.3l1.5,4.3l0.8,2.7c8.5,31.3-2.1,70.5-21.8,95.7l-3.3,4
	l-3.4,3.7"/>
<path class="st2" d="M191.8,232.1L191.8,232.1c3.7,0.4,6.8,0.4,10.5,0l0,0"/>
<path class="st2" d="M191.8,231L191.8,231c3.7,0.4,6.8,0.4,10.5,0l0,0"/>
<path class="st2" d="M197.1,315l2.3,0.1c24,3.8,24,39.3,0,43.1l-2.3,0.1"/>
<path class="st2" d="M231.3,216.2h0.2c1.2,0.2,2.7,0.5,3.8,0.9l0,0"/>
<polyline class="st2" points="231.2,216.2 231.2,216.2 231.3,216.2 "/>
<path class="st2" d="M158.8,217.1L158.8,217.1c1.2-0.4,2.9-0.8,4.1-0.9l0,0"/>
<path class="st2" d="M197.1,358.4l-2.3-0.1c-24-3.8-24-39.3,0-43.1l2.3-0.1"/>
<path class="st2" d="M246.5,201.3L246.5,201.3c0-0.5,0-1.3-0.2-1.8l0,0"/>
<path class="st2" d="M246.5,206v-0.2c0-1.3,0-2.7,0-4v-0.5"/>
<path class="st2" d="M246.4,207.3L246.4,207.3c0-0.4,0-0.8,0.1-1.2V206"/>
<path class="st2" d="M220.1,201.3L220.1,201.3c0-0.6,0-1.2,0.2-1.8l0,0"/>
<path class="st2" d="M220,206v-0.2c0-1.3,0-2.7,0-4v-0.5"/>
<path class="st2" d="M220.1,207.3L220.1,207.3c0-0.4,0-0.8-0.1-1.2V206"/>
<path class="st2" d="M147.7,201.3L147.7,201.3c0-0.6,0-1.2,0.2-1.8l0,0"/>
<path class="st2" d="M147.7,206v-0.2c0-1.3,0-2.7,0-4v-0.5"/>
<path class="st2" d="M147.7,207.3L147.7,207.3c0-0.4,0-0.8-0.1-1.2V206"/>
<path class="st2" d="M174.1,201.3L174.1,201.3c0-0.6,0-1.2-0.2-1.8l0,0"/>
<path class="st2" d="M174.1,206v-0.2c0-1.3,0-2.7,0-4v-0.5"/>
<path class="st2" d="M174.1,207.3L174.1,207.3c0-0.4,0-0.8,0.1-1.2V206"/>
<path class="st2" d="M257.6,363.7l3.5-3.8c33.9-38.6,46.2-121.3-12.9-143.3l-1.7-0.6"/>
<path class="st2" d="M220.1,210.2l-1.6-0.2c-6.4-0.6-12.8-0.9-19.2-1H197"/>
<path class="st2" d="M197.1,209h-0.7c-6.7,0-13.4,0.3-20.1,0.9l-2.3,0.2"/>
<path class="st2" d="M147.7,215.9l-1.7,0.7c-59.1,22-46.8,104.8-12.9,143.3l3.5,3.8"/>
<path class="st2" d="M138.3,364.9L138.3,364.9l-0.1-0.1l0,0"/>
<path class="st2" d="M255.9,364.9l-3.1,2.8l-3.4,2.7l-0.5,0.4c-9,6.6-19.4,11.2-28.8,17.4l-2,1.3l-3.3,2c-4.8,2.8-9.9,5.7-15.5,6.5
	l-2.1,0.2l-2.1-0.1l-1-0.1l-2.3-0.5c-4.1-1.2-7.9-3.3-11.6-5.4l-3.5-2.1l-2.1-1.3c-9.5-6.3-20-11-29.2-17.7l-0.7-0.5l-3.4-2.7
	l-3-2.8"/>
<path class="st2" d="M256,364.8L256,364.8l-0.1,0.1l0,0"/>
<line class="st2" x1="168.6" y1="360.3" x2="168.6" y2="358.8"/>
<line class="st2" x1="224.7" y1="360.7" x2="224.8" y2="361.7"/>
<line class="st2" x1="224.6" y1="350.4" x2="224.5" y2="330.4"/>
<line class="st2" x1="168.4" y1="330.3" x2="168.5" y2="348.7"/>
<line class="st2" x1="201.1" y1="309.1" x2="197.1" y2="309.1"/>
<line class="st2" x1="232.2" y1="325.9" x2="233.6" y2="325.9"/>
<line class="st2" x1="160.6" y1="325.9" x2="161.9" y2="325.9"/>
<path class="st2" d="M226.2,217L226.2,217c-0.1,0-0.2,0-0.3,0c-0.5,0-0.9,0.2-1.3,0.6"/>
<path class="st2" d="M169.5,217.5L169.5,217.5c-0.3-0.4-0.8-0.6-1.3-0.6c-0.1,0-0.2,0-0.3,0"/>
<path class="st2" d="M225.8,266.7L225.8,266.7c0,1.7,1.4,3,3,3"/>
<path class="st2" d="M165.3,269.8L165.3,269.8c1.7,0,3-1.4,3-3"/>
<path class="st2" d="M168.4,330.3L168.4,330.3c0-1.7-1.4-3-3-3.1"/>
<path class="st2" d="M228.9,327.2L228.9,327.2c-1.7,0-3,1.4-3.1,3.1"/>
<path class="st2" d="M165.3,270c1.8,0,3.3-1.5,3.3-3.3"/>
<path class="st2" d="M225.6,266.7L225.6,266.7c0,1.8,1.5,3.3,3.3,3.3"/>
<path class="st2" d="M228.9,327c-1.8,0-3.3,1.5-3.3,3.3"/>
<path class="st2" d="M168.6,330.3L168.6,330.3c0-1.8-1.5-3.3-3.3-3.3"/>
<path class="st2" d="M165.2,270.9L165.2,270.9c2.4,0,4.3-1.9,4.3-4.3"/>
<path class="st2" d="M224.7,266.6L224.7,266.6c0,2.4,1.9,4.3,4.3,4.3"/>
<path class="st2" d="M229,326.2L229,326.2c-2.4,0-4.3,1.9-4.3,4.3"/>
<path class="st2" d="M169.5,330.4L169.5,330.4c0-2.4-1.9-4.3-4.3-4.3"/>
<path class="st2" d="M229,325.9L229,325.9L229,325.9c-2.5,0-4.5,2-4.5,4.5l0,0"/>
<path class="st2" d="M169.7,330.4L169.7,330.4L169.7,330.4c0-2.5-2-4.5-4.5-4.5l0,0"/>
<path class="st2" d="M165.2,271.1L165.2,271.1L165.2,271.1c2.5,0,4.5-2,4.5-4.5l0,0"/>
<path class="st2" d="M224.5,266.6L224.5,266.6L224.5,266.6c0,2.5,2,4.5,4.5,4.5l0,0"/>
<line class="st2" x1="201.6" y1="232.3" x2="201.9" y2="232.3"/>
<path class="st2" d="M177.6,216.9L177.6,216.9c5.4,4.7,12.3,7.3,19.5,7.3s14.1-2.6,19.5-7.3"/>
<path class="st2" d="M169.5,217.5L169.5,217.5c6.8,8.2,16.9,13,27.6,13c10.7,0,20.8-4.7,27.6-13"/>
<line class="st2" x1="192.3" y1="232.6" x2="191.7" y2="232.6"/>
<line class="st2" x1="201.8" y1="232.7" x2="202.6" y2="232.6"/>
<path class="st2" d="M192.3,232.6L192.3,232.6c1.6,0.2,3.2,0.3,4.8,0.3s3.2-0.1,4.7-0.3"/>
<line class="st2" x1="224.5" y1="360.7" x2="224.7" y2="360.3"/>
<line class="st2" x1="169.5" y1="360.3" x2="169.7" y2="360.7"/>
<line class="st2" x1="268.3" y1="270.1" x2="268.4" y2="270.8"/>
<line class="st2" x1="125.8" y1="270.1" x2="125.7" y2="270.8"/>
<line class="st2" x1="224.8" y1="225.9" x2="225.5" y2="226.1"/>
<line class="st2" x1="169.4" y1="225.9" x2="168.7" y2="226.1"/>
<line class="st2" x1="259.2" y1="326.9" x2="259.6" y2="326.2"/>
<line class="st2" x1="134.9" y1="326.9" x2="134.6" y2="326.2"/>
<line class="st2" x1="169.4" y1="361.7" x2="168.7" y2="361.5"/>
<line class="st2" x1="224.8" y1="361.7" x2="225.5" y2="361.5"/>
<line class="st2" x1="138.1" y1="364.8" x2="137.6" y2="364.5"/>
<line class="st2" x1="256" y1="364.8" x2="256.6" y2="364.5"/>
<line class="st2" x1="169.4" y1="361.7" x2="169.5" y2="360.7"/>
<path class="st2" d="M235.7,358.7L235.7,358.7c0.2-0.1,0.4-0.2,0.5-0.3"/>
<path class="st2" d="M157.9,358.4L157.9,358.4c0.2,0.1,0.3,0.2,0.5,0.3"/>
<path class="st2" d="M138.4,362c0.1,0.1,0.3,0.3,0.5,0.4"/>
<path class="st2" d="M255.3,362.4L255.3,362.4c0.2-0.1,0.3-0.2,0.5-0.4"/>
<path class="st2" d="M254.5,361.3L254.5,361.3c0.2-0.1,0.3-0.2,0.5-0.4"/>
<path class="st2" d="M139.2,360.9L139.2,360.9c0.1,0.2,0.3,0.3,0.5,0.4"/>
<path class="st2" d="M138.3,362.1L138.3,362.1c0.1,0.1,0.3,0.3,0.5,0.4"/>
<path class="st2" d="M255.4,362.4L255.4,362.4c0.2-0.1,0.3-0.2,0.5-0.4"/>
<path class="st2" d="M201.3,390L201.3,390c0-2.3-1.9-4.2-4.2-4.2s-4.2,1.9-4.2,4.2s1.9,4.2,4.2,4.2S201.3,392.3,201.3,390"/>
<path class="st2" d="M201.4,390L201.4,390c0-2.4-1.9-4.3-4.3-4.3s-4.3,1.9-4.3,4.3c0,2.4,1.9,4.3,4.3,4.3S201.4,392.4,201.4,390"/>
<path class="st2" d="M256.6,364.5L256.6,364.5c0.3-0.2,0.7-0.5,1-0.8"/>
<path class="st2" d="M136.6,363.7L136.6,363.7c0.3,0.3,0.6,0.5,1,0.8"/>
<line class="st2" x1="225.6" y1="358.8" x2="225.6" y2="360.3"/>
<line class="st2" x1="162.2" y1="327.2" x2="160.7" y2="327.2"/>
<line class="st2" x1="232" y1="327.2" x2="233.5" y2="327.2"/>
<line class="st2" x1="169.7" y1="330.4" x2="169.5" y2="350.4"/>
<line class="st2" x1="225.7" y1="348.7" x2="225.8" y2="330.3"/>
<line class="st2" x1="489.1" y1="369.9" x2="504.4" y2="355.8"/>
<line class="st2" x1="504.4" y1="355.8" x2="513.5" y2="336.3"/>
<line class="st2" x1="513.5" y1="336.3" x2="515.4" y2="314.5"/>
<line class="st2" x1="515.4" y1="314.5" x2="510.1" y2="299.7"/>
<path class="st2" d="M501.4,342.7l-0.1,0.8c-1.2,4.8-7.1,4.1-8.1-0.4l-0.1-0.8"/>
<line class="st2" x1="501.4" y1="342.7" x2="501.5" y2="339.2"/>
<line class="st2" x1="501.7" y1="331.8" x2="502.3" y2="319.2"/>
<line class="st2" x1="502.3" y1="319.2" x2="502.3" y2="318"/>
<line class="st2" x1="501.6" y1="334.2" x2="501.7" y2="331.8"/>
<line class="st2" x1="502.3" y1="318" x2="502.4" y2="316.9"/>
<line class="st2" x1="501.5" y1="336.3" x2="501.6" y2="334.2"/>
<polyline class="st2" points="502.4,316.9 502.4,316.5 502.4,316.1 502.4,315.7 502.4,315.5 502.4,315.5 "/>
<line class="st2" x1="501.4" y1="342.7" x2="501.4" y2="315.5"/>
<polyline class="st2" points="501.5,339.2 501.5,339.1 501.5,338.8 501.5,338.4 501.5,337.8 501.5,337.1 501.5,336.3 "/>
<path class="st2" d="M492.1,315.5L492.1,315.5c0,0.7,0,1.3,0,1.9v1.1"/>
<line class="st2" x1="493" y1="342.2" x2="493" y2="315.5"/>
<path class="st2" d="M492.8,334.2l0.1,2.1c0,0.9,0.1,1.9,0,2.8v0.1"/>
<line class="st2" x1="492.7" y1="331.8" x2="492.8" y2="334.2"/>
<line class="st2" x1="492.1" y1="318.6" x2="492.2" y2="319.8"/>
<line class="st2" x1="492.6" y1="329.2" x2="492.7" y2="331.8"/>
<line class="st2" x1="492.2" y1="319.8" x2="492.6" y2="329.2"/>
<line class="st2" x1="492.9" y1="339.2" x2="493" y2="342.2"/>
<line class="st2" x1="510.1" y1="299.7" x2="397.6" y2="299.7"/>
<path class="st2" d="M459.2,342.6l-0.1,0.8c-1.2,4.6-7.1,4.3-8.1-0.2l-0.1-0.8"/>
<line class="st2" x1="459.2" y1="342.6" x2="459.4" y2="339.2"/>
<line class="st2" x1="459.6" y1="331.8" x2="460.2" y2="320.5"/>
<line class="st2" x1="459.5" y1="334.2" x2="459.6" y2="331.8"/>
<line class="st2" x1="459.4" y1="336.3" x2="459.5" y2="334.2"/>
<line class="st2" x1="460.2" y1="320.5" x2="460.3" y2="315.5"/>
<line class="st2" x1="459.2" y1="342.6" x2="459.2" y2="315.5"/>
<polyline class="st2" points="459.4,339.2 459.4,339.1 459.4,338.8 459.4,338.4 459.4,337.9 459.4,337.1 459.4,336.3 "/>
<line class="st2" x1="514" y1="310.7" x2="396.5" y2="310.7"/>
<line class="st2" x1="515.4" y1="315.5" x2="396.2" y2="315.5"/>
<line class="st2" x1="450.9" y1="342.3" x2="450.9" y2="315.5"/>
<line class="st2" x1="460.2" y1="320.5" x2="492.2" y2="320.5"/>
<line class="st2" x1="502.2" y1="320.5" x2="514.9" y2="320.5"/>
<line class="st2" x1="420.5" y1="320.5" x2="450" y2="320.5"/>
<line class="st2" x1="449.9" y1="315.5" x2="450" y2="320.5"/>
<path class="st2" d="M450.7,334.2l0.1,2.1c0,0.9,0.1,1.9,0,2.8v0.1"/>
<line class="st2" x1="450.6" y1="331.8" x2="450.7" y2="334.2"/>
<line class="st2" x1="450" y1="320.5" x2="450.6" y2="331.8"/>
<line class="st2" x1="450.8" y1="339.2" x2="450.9" y2="342.3"/>
<line class="st2" x1="514.1" y1="329.2" x2="501.8" y2="329.2"/>
<line class="st2" x1="492.6" y1="329.2" x2="459.7" y2="329.2"/>
<line class="st2" x1="450.5" y1="329.2" x2="419.6" y2="329.2"/>
<line class="st2" x1="419.6" y1="331.3" x2="396.8" y2="331.3"/>
<line class="st2" x1="450.8" y1="339.2" x2="399.9" y2="339.2"/>
<line class="st2" x1="492.9" y1="339.2" x2="459.4" y2="339.2"/>
<line class="st2" x1="512.2" y1="339.2" x2="501.5" y2="339.2"/>
<line class="st2" x1="420.9" y1="315.5" x2="419.6" y2="331.3"/>
<line class="st2" x1="397.6" y1="299.7" x2="397" y2="301.3"/>
<line class="st2" x1="395.5" y1="328" x2="404.7" y2="351.4"/>
<line class="st2" x1="404.7" y1="351.4" x2="428.6" y2="369.8"/>
<line class="st2" x1="428.6" y1="369.8" x2="459.7" y2="376.8"/>
<line class="st2" x1="397" y1="301.3" x2="395.5" y2="328"/>
<line class="st2" x1="459.7" y1="376.8" x2="489.1" y2="369.9"/>
<line class="st2" x1="220.2" y1="199.5" x2="246.3" y2="199.5"/>
<line class="st2" x1="147.9" y1="199.5" x2="173.9" y2="199.5"/>
<line class="st2" x1="220.1" y1="207.3" x2="246.4" y2="207.3"/>
<line class="st2" x1="147.7" y1="207.3" x2="174.1" y2="207.3"/>
<line class="st2" x1="224.8" y1="248.3" x2="225.5" y2="248.3"/>
<line class="st2" x1="168.7" y1="248.3" x2="169.4" y2="248.3"/>
<line class="st2" x1="224.8" y1="250.4" x2="225.5" y2="250.4"/>
<line class="st2" x1="168.7" y1="250.4" x2="169.4" y2="250.4"/>
<line class="st2" x1="224.8" y1="250.5" x2="225.5" y2="250.5"/>
<line class="st2" x1="168.6" y1="250.5" x2="169.4" y2="250.5"/>
<line class="st2" x1="247.3" y1="326.2" x2="247.3" y2="326.9"/>
<line class="st2" x1="247.3" y1="270.1" x2="247.3" y2="270.8"/>
<line class="st2" x1="246.4" y1="207.3" x2="246.4" y2="215.9"/>
<line class="st2" x1="245.2" y1="326.2" x2="245.2" y2="326.9"/>
<line class="st2" x1="245.2" y1="270.1" x2="245.2" y2="270.8"/>
<line class="st2" x1="245.1" y1="326.2" x2="245.1" y2="327"/>
<line class="st2" x1="245.1" y1="270.1" x2="245.1" y2="270.8"/>
<line class="st2" x1="224.7" y1="257.1" x2="225.6" y2="257.1"/>
<line class="st2" x1="168.6" y1="257.1" x2="169.5" y2="257.1"/>
<line class="st2" x1="238.5" y1="326.2" x2="238.5" y2="327"/>
<line class="st2" x1="238.5" y1="270" x2="238.5" y2="270.9"/>
<line class="st2" x1="245.2" y1="270.1" x2="245.1" y2="270.1"/>
<line class="st2" x1="245.2" y1="270.1" x2="247.3" y2="270.1"/>
<line class="st2" x1="149" y1="270.8" x2="146.8" y2="270.8"/>
<line class="st2" x1="169.5" y1="266.6" x2="169.7" y2="266.6"/>
<line class="st2" x1="224.7" y1="266.6" x2="224.5" y2="266.6"/>
<line class="st2" x1="168.3" y1="266.7" x2="168.6" y2="266.7"/>
<line class="st2" x1="225.8" y1="266.7" x2="225.6" y2="266.7"/>
<line class="st2" x1="228.9" y1="270" x2="238.5" y2="270"/>
<line class="st2" x1="155.6" y1="270" x2="165.3" y2="270"/>
<line class="st2" x1="146.8" y1="270.1" x2="125.8" y2="270.1"/>
<line class="st2" x1="268.3" y1="270.1" x2="247.3" y2="270.1"/>
<line class="st2" x1="247.3" y1="270.8" x2="268.4" y2="270.8"/>
<line class="st2" x1="125.7" y1="270.8" x2="146.8" y2="270.8"/>
<line class="st2" x1="229" y1="270.9" x2="238.5" y2="270.9"/>
<line class="st2" x1="165.2" y1="270.9" x2="155.6" y2="270.9"/>
<line class="st2" x1="146.8" y1="270.1" x2="149" y2="270.1"/>
<line class="st2" x1="247.3" y1="270.8" x2="245.2" y2="270.8"/>
<line class="st2" x1="149" y1="270.1" x2="149.1" y2="270.1"/>
<line class="st2" x1="225.5" y1="346.6" x2="225.5" y2="346.5"/>
<line class="st2" x1="229" y1="326.2" x2="229" y2="325.9"/>
<line class="st2" x1="229" y1="270.9" x2="229" y2="271.1"/>
<line class="st2" x1="228.9" y1="327.2" x2="228.9" y2="327"/>
<line class="st2" x1="228.9" y1="269.8" x2="228.9" y2="270"/>
<line class="st2" x1="225.5" y1="250.4" x2="225.5" y2="250.5"/>
<line class="st2" x1="149.1" y1="270.8" x2="149" y2="270.8"/>
<line class="st2" x1="245.1" y1="270.8" x2="245.2" y2="270.8"/>
<line class="st2" x1="224.8" y1="250.5" x2="224.8" y2="250.4"/>
<line class="st2" x1="225.5" y1="346.6" x2="225.5" y2="348.8"/>
<line class="st2" x1="224.8" y1="250.4" x2="224.8" y2="248.3"/>
<line class="st2" x1="225.6" y1="330.3" x2="225.6" y2="340"/>
<line class="st2" x1="225.6" y1="257.1" x2="225.6" y2="266.7"/>
<line class="st2" x1="225.5" y1="248.3" x2="225.5" y2="226.1"/>
<line class="st2" x1="225.5" y1="361.5" x2="225.5" y2="348.8"/>
<line class="st2" x1="224.8" y1="348.8" x2="224.8" y2="361.7"/>
<line class="st2" x1="224.8" y1="225.9" x2="224.8" y2="248.3"/>
<line class="st2" x1="224.7" y1="266.6" x2="224.7" y2="257.1"/>
<line class="st2" x1="224.7" y1="330.4" x2="224.7" y2="340"/>
<line class="st2" x1="220.1" y1="207.3" x2="220.1" y2="210.2"/>
<line class="st2" x1="225.5" y1="248.3" x2="225.5" y2="250.4"/>
<line class="st2" x1="224.8" y1="348.8" x2="224.8" y2="346.6"/>
<line class="st2" x1="224.8" y1="346.5" x2="224.8" y2="346.6"/>
<line class="st2" x1="255.7" y1="363" x2="255.4" y2="362.4"/>
<line class="st2" x1="216.7" y1="215.3" x2="216.6" y2="216.9"/>
<line class="st2" x1="137.8" y1="362.5" x2="138.3" y2="362.1"/>
<line class="st2" x1="202.3" y1="232.2" x2="202.3" y2="232.1"/>
<line class="st2" x1="256.3" y1="362.5" x2="255.9" y2="362.1"/>
<line class="st2" x1="197.1" y1="210.7" x2="197.1" y2="211.5"/>
<line class="st2" x1="197.1" y1="216.1" x2="197.1" y2="212.8"/>
<line class="st2" x1="197.1" y1="377.6" x2="197.1" y2="360.4"/>
<line class="st2" x1="197.1" y1="379.7" x2="197.1" y2="379"/>
<line class="st2" x1="177.4" y1="215.3" x2="177.6" y2="216.9"/>
<line class="st2" x1="245.1" y1="326.2" x2="245.2" y2="326.2"/>
<line class="st2" x1="245.2" y1="326.2" x2="247.3" y2="326.2"/>
<line class="st2" x1="149" y1="326.9" x2="146.8" y2="326.9"/>
<line class="st2" x1="229" y1="326.2" x2="238.5" y2="326.2"/>
<line class="st2" x1="165.2" y1="326.2" x2="155.6" y2="326.2"/>
<line class="st2" x1="146.8" y1="326.2" x2="134.6" y2="326.2"/>
<line class="st2" x1="259.6" y1="326.2" x2="247.3" y2="326.2"/>
<line class="st2" x1="247.3" y1="326.9" x2="259.2" y2="326.9"/>
<line class="st2" x1="134.9" y1="326.9" x2="146.8" y2="326.9"/>
<line class="st2" x1="165.3" y1="327" x2="155.6" y2="327"/>
<line class="st2" x1="238.5" y1="327" x2="228.9" y2="327"/>
<line class="st2" x1="146.8" y1="326.2" x2="149" y2="326.2"/>
<line class="st2" x1="247.3" y1="326.9" x2="245.2" y2="326.9"/>
<line class="st2" x1="149.1" y1="326.2" x2="149" y2="326.2"/>
<line class="st2" x1="138.4" y1="363" x2="138.8" y2="362.4"/>
<line class="st2" x1="169.4" y1="346.5" x2="169.4" y2="346.6"/>
<line class="st2" x1="174.1" y1="207.3" x2="174.1" y2="210.2"/>
<line class="st2" x1="169.4" y1="250.5" x2="169.4" y2="250.4"/>
<line class="st2" x1="149" y1="326.9" x2="149.1" y2="327"/>
<line class="st2" x1="168.4" y1="330.3" x2="168.6" y2="330.3"/>
<line class="st2" x1="225.8" y1="330.3" x2="225.6" y2="330.3"/>
<line class="st2" x1="169.5" y1="330.4" x2="169.7" y2="330.4"/>
<line class="st2" x1="224.7" y1="330.4" x2="224.5" y2="330.4"/>
<line class="st2" x1="245.2" y1="326.9" x2="245.1" y2="327"/>
<line class="st2" x1="168.7" y1="250.4" x2="168.6" y2="250.5"/>
<line class="st2" x1="169.4" y1="346.6" x2="169.4" y2="348.8"/>
<line class="st2" x1="168.7" y1="250.4" x2="168.7" y2="248.3"/>
<line class="st2" x1="169.5" y1="266.6" x2="169.5" y2="257.1"/>
<line class="st2" x1="169.5" y1="330.4" x2="169.5" y2="340"/>
<line class="st2" x1="169.4" y1="248.3" x2="169.4" y2="225.9"/>
<line class="st2" x1="169.4" y1="361.7" x2="169.4" y2="348.8"/>
<line class="st2" x1="168.7" y1="348.8" x2="168.7" y2="361.5"/>
<line class="st2" x1="168.7" y1="226.1" x2="168.7" y2="248.3"/>
<line class="st2" x1="168.6" y1="266.7" x2="168.6" y2="257.1"/>
<line class="st2" x1="168.6" y1="340" x2="168.6" y2="330.3"/>
<line class="st2" x1="165.3" y1="327.2" x2="165.3" y2="327"/>
<line class="st2" x1="165.3" y1="269.8" x2="165.3" y2="270"/>
<line class="st2" x1="165.2" y1="326.2" x2="165.2" y2="325.9"/>
<line class="st2" x1="165.2" y1="270.9" x2="165.2" y2="271.1"/>
<line class="st2" x1="169.4" y1="248.3" x2="169.4" y2="250.4"/>
<line class="st2" x1="168.7" y1="348.8" x2="168.7" y2="346.6"/>
<line class="st2" x1="168.7" y1="346.6" x2="168.6" y2="346.5"/>
<line class="st2" x1="169.5" y1="340" x2="168.6" y2="340"/>
<line class="st2" x1="225.6" y1="340" x2="224.7" y2="340"/>
<line class="st2" x1="155.6" y1="270.9" x2="155.6" y2="270"/>
<line class="st2" x1="155.6" y1="327" x2="155.6" y2="326.2"/>
<line class="st2" x1="169.4" y1="346.5" x2="168.6" y2="346.5"/>
<line class="st2" x1="225.5" y1="346.5" x2="224.8" y2="346.5"/>
<line class="st2" x1="169.4" y1="346.6" x2="168.7" y2="346.6"/>
<line class="st2" x1="225.5" y1="346.6" x2="224.8" y2="346.6"/>
<line class="st2" x1="169.4" y1="348.8" x2="168.7" y2="348.8"/>
<line class="st2" x1="225.5" y1="348.8" x2="224.8" y2="348.8"/>
<line class="st2" x1="149.1" y1="270.8" x2="149.1" y2="270.1"/>
<line class="st2" x1="149.1" y1="327" x2="149.1" y2="326.2"/>
<line class="st2" x1="149" y1="270.8" x2="149" y2="270.1"/>
<line class="st2" x1="149" y1="326.9" x2="149" y2="326.2"/>
<line class="st2" x1="147.7" y1="207.3" x2="147.7" y2="215.9"/>
<line class="st2" x1="146.8" y1="270.8" x2="146.8" y2="270.1"/>
<line class="st2" x1="146.8" y1="326.9" x2="146.8" y2="326.2"/>
</svg>
