<?xml version="1.0" encoding="utf-8"?>
<!-- Generator: Adobe Illustrator 19.1.0, SVG Export Plug-In . SVG Version: 6.00 Build 0)  -->
<svg version="1.1" id="Layer_1" xmlns="http://www.w3.org/2000/svg" xmlns:xlink="http://www.w3.org/1999/xlink" x="0px" y="0px"
	 viewBox="129 67 1049.9 414" style="enable-background:new 129 67 1049.9 414;" xml:space="preserve">
<style type="text/css">
	.st0{fill:none;stroke:#000000;stroke-width:0.36;stroke-linejoin:bevel;stroke-miterlimit:10;}
	
		.st1{opacity:0.12;fill:none;stroke:#000000;stroke-width:0.36;stroke-linejoin:bevel;stroke-miterlimit:10;enable-background:new    ;}
	.st2{opacity:0.12;fill:none;stroke:#000000;stroke-width:0.5;stroke-linejoin:bevel;stroke-miterlimit:10;}
	.st3{opacity:0.12;fill:none;stroke:#000000;stroke-width:1.0291;stroke-linejoin:bevel;stroke-miterlimit:10;}
	
		.st4{opacity:0.12;fill:none;stroke:#000000;stroke-width:0.7389;stroke-linejoin:bevel;stroke-miterlimit:10;enable-background:new    ;}
	.st5{opacity:0.12;fill:none;stroke:#000000;stroke-width:0.6059;stroke-linejoin:bevel;stroke-miterlimit:10;}
</style>
<line class="st0" x1="1277.2" y1="371.7" x2="1280.7" y2="371.7"/>
<polyline class="st1" points="882.6,202.2 882.4,202.2 882.4,201.8 882.6,202.2 "/>
<polyline class="st2" points="496.3,198.8 496.3,190.8 492.8,196.8 497.3,196.8 "/>
<path class="st3" d="M1135.1,896.7L1135.1,896.7c0-1.8-1.5-3.3-3.3-3.3c-1.8,0-3.3,1.5-3.3,3.3c0,1.8,1.5,3.3,3.3,3.3
	C1133.6,900.1,1135.1,898.6,1135.1,896.7 M1136.8,896.7L1136.8,896.7c0-2.8-2.2-5-5-5c-2.8,0-5,2.2-5,5c0,2.8,2.2,5,5,5
	C1134.6,901.7,1136.8,899.5,1136.8,896.7 M1155.2,901.7v-10 M1148.6,905v16.7 M1148.6,186.4v16.7 M1145.2,893.4v6.7 M113,186.4
	h1177.7 M1006.6,203.2v-16.7 M1006.6,921.8V905 M1290.7,370.3H1274 M864.5,203.2v-16.7 M864.5,921.8V905 M1290.7,554.1H1274
	 M722.5,203.2v-16.7 M722.5,921.8V905 M580.5,905v16.7 M580.5,186.4v16.7 M171,737.9h-16.7 M1290.7,737.9H1274 M1145.2,900.1l10,1.7
	 M438.4,203.2v-16.7 M438.4,921.8V905 M106,905h1168V203.2H106 M154.3,921.8h1136.4V186.4 M1155.2,891.7l-10,1.7 M296.4,905v16.7
	 M296.4,186.4v16.7"/>
<polyline class="st2" points="790.3,198.7 790.3,190.8 786.8,196.8 791.3,196.8 "/>
<path class="st4" d="M651.9,199.9l-1-0.8c-1.6-2.1-1.6-7,0-9l1-0.8l1,0.8c1.6,2.1,1.6,6.8,0,9L651.9,199.9"/>
<polyline class="st0" points="727.4,478.8 727.2,478.8 727.2,478.4 727.4,478.8 "/>
<polyline class="st0" points="884.6,484.4 885.6,490.7 883.5,490.7 884.6,484.4 "/>
<line class="st5" x1="415.6" y1="224.6" x2="419.8" y2="224.6"/>
<line class="st0" x1="884.6" y1="484.4" x2="884.6" y2="494.9"/>
<line class="st0" x1="910.8" y1="484.4" x2="880.4" y2="484.4"/>
</svg>
